<mxfile host="app.diagrams.net" modified="2023-08-11T13:03:46.966Z" agent="Mozilla/5.0 (Windows NT 10.0; Win64; x64) AppleWebKit/537.36 (KHTML, like Gecko) Chrome/115.0.0.0 Safari/537.36" etag="IcvLiZqATEofHTZAQ0kf" version="21.6.7" type="device" pages="3">
  <diagram name="conceitual" id="MNCKnOFE5HeJH9aOxsBj">
    <mxGraphModel dx="1050" dy="574" grid="1" gridSize="10" guides="1" tooltips="1" connect="1" arrows="1" fold="1" page="1" pageScale="1" pageWidth="1169" pageHeight="827" math="0" shadow="0">
      <root>
        <mxCell id="0" />
        <mxCell id="1" parent="0" />
        <mxCell id="nO0XkZ6iR2E-LEG_lxri-1" value="" style="shape=image;verticalLabelPosition=bottom;labelBackgroundColor=default;verticalAlign=top;aspect=fixed;imageAspect=0;image=data:image/png,iVBORw0KGgoAAAANSUhEUgAAAswAAAF+CAYAAACWO0z5AAAAAXNSR0IArs4c6QAAAARnQU1BAACxjwv8YQUAAAAJcEhZcwAAEnQAABJ0Ad5mH3gAAO0WSURBVHhe7J0H3JbTG8dP9k4SslJKZkYyEpFNhGQkI3tnKysrO2QmEqWySebfjkR2ZFRmmckm+/zP93ru83a/d89zv8/7NpR+38/nqfe5xxnXWb9z3ec+Ty0fcEIIIYQQQoiizJX8L4QQQgghhCiCBLMQQgghhBA5SDALIYQQQgiRgwSzEEIIIYQQOUgwCyGEEEIIkYMEsxBCCCGEEDlIMAshhBBCCJGDBLMQQgghhBA5SDALIYQQQgiRQ7UF8y+//OJGjhzpHnnkEff888+7b7/9NjlTmXvuucfts88+7oADDnCPP/640w8K/jeYPHmy22233dySSy7pll56aXfdddclZ4QQQggh/puULZi/+eYbd+6557qVVlrJbbjhhm6HHXZwm266qatXr57r0KGDe++99ypE8T///OO6d+/uBg0a5G699VbXo0cP9/vvv9u56oJA//LLL93EiRPd33//nRz974P9Vl11Vde0aVN39NFHuz/++CM5MwVs2rlzZ7tmtdVWc6eddpr7888/k7NToDyOOeYYu65Zs2buiSeeSM5Un7/++suNHTvWTZo0yX399dfu888/T84IIYQQQvw3KUsw40Vu3769O/vss004p0GM3X333eZN/vnnn5OjbrqIWwThXnvt5dZff3373HXXXcmZ/z7jx49377//vhszZox74IEHKtk28sYbb7jbb7/drmHCMnDgQPfTTz8lZ6eAqGXywnVvv/12jScvQgghhBBzIlUKZoRvz5493bBhw8yDPP/887tOnTq5G264wfXq1cvtscce9ngeQRdF8lxzzeW6du1qj+733HNPd+qpp9p91YXwPvjgA/fZZ5+5Tz/91P6fU2CCEMGbO27cuORbAcri4Ycfdr/99ltyxJkXHuGcZfjw4e7777+3v1lGsd5669nfQgghhBCiaqoUzHgjWa8c2XHHHV3//v3doYceao/58XDi6ezWrZtbZJFFkquc22+//czzPHjwYLf99tu7WrVqJWdEObRo0aLCZr/++quJ3jQIZdaGp2F98ZNPPpl8K8ATgAcffND+hw022MAts8wy9rcQQgghhKiaKgUza2J//PHH5JtzSy21VIWQ438+yy23nL3cN88889hxQCgjmg888MBKgg3P6JtvvmnH11xzTbfsssu6FVZYwQTiiSeeaHFx7ZVXXmnrc9NeZZYV7L333m7fffd1r776anK0AJ5o1vo2b97cLb/88vZZZ5113MEHH+xGjx6dXDUF1lYTDnGy5IQXGfGIN2zY0O7dfPPN3b333mtpwQbXXnut22STTSyvK6+8sl1LPrKw1pilIywlWXvttS0s8sga41122aXS5COPxo0b23rxyEMPPVRpfTJLY1hLnIXlGwjnCPaMtqKsttpqq4ryA8rj3XffdUceeaTZK9pu3XXXdUcddZT76KOPkitL8+yzz7p27dq5Ro0amX0oy4suukhLP4QQQgjx3yAIplyC4PJB7PE2n30aNGjgX3/9dR/EW3JFcXbaaaeKe/bff3//119/2fH333/fB4FccS79mX/++f1zzz3nf/31Vx/EZtFr4ufyyy+38IKg9UEQ+hVXXLHodXyC8PRvvfWWXRuJ6VtwwQUtrIUXXniq++aee24fhL8PQtzPNddcU50PAtF/8sknSYjeB7HsO3XqNNV16c9CCy3kH3744UppKcWhhx5acd8SSyzhw+QhOePNTtiLc4svvrilNYY/ZsyY5KqCvRdbbDE7t8ACC/gXXnghOVOw3WuvveaDQK6IJ/tZeuml7ZoI9SFMdCrOb7DBBhZn+h4+QZT7448/3gfRnNwphBBCCDF7UqWHOYgs8wRHgkA07yseYry6IYzkTNWwJpmlG7zQBniWzzjjDDsWlyBwzXzzzWfe2SAEbT10JIhbO8bOHOz4ALzkdsghh9gaZwiC3p155pnu5JNPtvW68PHHH5s3Oa7jTcPShtNPP9124yCutJectLD0BO8ynuZ55523knf2ww8/dL17967wnhPWyy+/bH+TTrzbl1xyiXlq43IVllewpjvttS/FrrvuanHCd999V8mjHCYtFR5nPPlxmQXhh8mB/Q2UUfQ4B9FdyWs9YcIE85TzP1Ae2ALbYWP46quv7Fgp8MwTJ8S0AvXi6quvdk8//XRyRAghhBBiNsVkcxUEEVjUgxtEoHlB33zzzeTKKRTzMAfRV+FdDqLYP/7448nVBW8nnusffvghOeJ9ELGVvNuXXXZZcmYKAwcO9EGo2fm6deuaJzkyYsQIv+iii9o5vLHDhg1LzlROH97ZDh06+CAufRDVvl27dhXn+JBPvNCkhzTisY7nttxySx+EsoWJN7Vr167+qquu8kHI27FInz59KrzAeHzHjRuXnCnN559/7uvXr18RV69evew4tiK9HMNrTL4222yziuvCBMSug/PPP9+8vRzfcccdK3l8r7jiiop7mjRp4oNwtuOE/9RTT1m+OYcNR48ebeeyHmbCjrYLwtzynvY4h8mC3SeEEEIIMbtSpYcZ2LHh0UcftfXLadgZIwhB2485CKzkaGnSHlzW+rLONXp98dyyhjaISfteDnh2WYscPa1sbZf2hq+11lq2rha45p133rG/s7Ru3dpeZOTa2rVru2OPPbbCs83/QSy7448/3gUhaGlkvW6E9c9xdxA84xdeeKG9DJl+ARJYExw9sOxlHL2yeeClTnuEebkSsNlLL71kf7M+mvJJ73yRXt/93HPPmbcX+7I1IGmMpL2/2223nQvi3P7mWmyC/QAv/gsvvGB/Z8EWrFfHdjyNwNuf3uGj2DpvIYQQQojZibIEM/DSGi/P8Zh9jTXWqLQ0geUFu+++u3vllVeSI8VBRCJqoxhlRwd+nIMX+R577LEK4VkuxJsWwYjI/fffv+Jz2GGHuS+++MLOIa7Znq0YLEVILydgYhC3wUNgInbTpCcOpBlBmoblHWz5xg+28DIdy1fOOeecSi/tZe8pBmlgqUpk1KhRlg/2Uo4/GIKoZanKFltsUVEmlBOimuUUcXlGnTp13JZbbml/A+GwpCTCLhy8ZBltx98sv4mU2tKPujD33HMn3wrLMqgrEdIghBBCCDE7U7ZgBvZbZicK1s9eddVVtptChDW27GKRB0KZ9bs77bRThacTQcXWdHg4WS9c7Ic3SsHaXMRpBMGMpzh++CEPfo0OEJNpUZwHXvAo6ouRXuecBhGKRxcPK9vvsT77+uuvd/369bOdQqo7ISANbdq0qRDC7FjBemP2xMZLDVHMI6yjkCfPrKVGWPMricCa7xVXXNH+BtZbp38M5bXXXqtkOz7pX/HDe1wOpLlu3brJt8KTBCGEEEKI2ZlqCeYIwhPhfN9999kShgiiqyrwMiNkhw4d6lq1alVJmN5yyy3mlS3H+wrcG72biEq2crv00kuLfvCM8+LfjAQxiwc9/ngIyym6dOliS09Y0lGuYE/Dz5BHIcykBLHMi3YRttEDXnCMf+PJpmwQ74h4IJw0pCXtGWZpRTG78WHZDUstyoGySwvx9BIQIYQQQojZkRoJ5gj7EcfdFKCU5zXLwgsv7LbZZhsTdKyj5cc0AHGHmEYYRtJLP6JXNUI4LDUAhFqTJk3cSSedVPTDThUz+gc72AM5veME+WM/abzq/DpiufZJg1iOyzLII3tDs28ykP/VV1/d/mbywO4l0V7PPPOMxR8pJphZIx1hGcUJJ5xQ1HaIZXbYKAb7Qac954h1foI7EncqEUIIIYSYXalSMLPOFU8wyx2ynl+2LEs/to8viZUCYcVa2fRa3s0228w8sNETyRKL+IMXeEDTXlDWK0ePKeCtTq/xve222+wlvH+L999/v8JG/PAIL+RF0i8HVgeEMGuPoxDmh0/ij4mwfpgfColgi+jFRrSOGDHC/mY5RbGfw06vNWY9Ocs0qstNN91kTwZivtn6LsYL6ZcwhRBCCCFmR6oUzBMnTrSX+dgJgx0i2GmBX/XbYYcd3Lbbblux2wM7SPDiXx6sp2X98kYbbeQuvvhiE2n8Kt5ZZ51VsdZ1lVVWqfB8IqLTopOf2iYOlg+wpAPYkWLRRRe1vxGSe+yxhwlnfn2OnT169erlOnTo4DbeeOOK9cwzCl5gjML2xRdftD2YyWP37t1tqUZN1/MihONLiIja6GlnnXQ8DuxUEXcZQZzH/ZebNWtWaf1yhF8ejOllOQ1li+1Y9oEwZ3cQ9mnmulIQD2XAz59jZ8T9Dz/8YOcQ+5S3EEIIIcRsja+CsWPH2q+9cWmpD/vunnHGGfZLd5Fi+zAHweyXWmqpSvemP+xP/NhjjyUhFGBf3yC8prq2Z8+edp44DzvsMD/PPPNMdU36wx7N48ePt3ugWPoi7777bsUv/7HPMftQpwliv+LeIEb9zz//bMf51b/llluu4lz6g43CRKDi72J7V5eCX/hbZpllKoVHuoYPH55cUSBMXnyrVq0qXRcEsb/wwguTKyrD/tH77rtvlbZbffXVkzsq78M877zz+saNG091PR/KbK+99qrYo1oIIYQQYnalSg8zXss77rjDtWzZstJ64giP3DmPFzX9UhsvvLGcguUArHXmXnbZuOKKK4qua8UDyqP99NZngGe2bdu2leLG84w3F4gziGd3zTXXlFxny3G8oOn11sXSF8FLyxpkPKSkNb3rA+D1xqPO/fyyYFw2wq4hffv2rbR7CHA9a7P33HNPuxYPenaf5jxYx8wWedF7TJ7x+GeXwJCXE0880dZqkx/iYhcNtu0rBt5pdvHgxT7Kphik9aCDDkq+FdapxzyzHOTOO++0tGGrCH/zK4c33HBDJQ+4EEIIIcTsSC1Uc/J3Ljx6Z/cHtirjpTzEG2tgedwfBWO5sHUc257xk9XQsGFDe/GPl9iKwbplljjwshtiDKHImty0SAOWh7B8hKUZrINmBw/EHWlE4M4s2B+aZQ0sQUFs8zJefDlxViWWCT9bHm1HufAT5VWJXuoG9YIfKUGos1tHfBlRCCGEEGJ2p2zBLIQQQgghxJxIrmDmxbr4cp0Q0wLb+uGtFkIIIYSY3cgVzGeffbb9pLMQ0wp7VGvHDCGEEELMjuQK5i+++MI+QkwrvFiZ/lVIIYQQQojZBa1hFkIIIYQQIocqt5UTQgghhBBiTkaCWQghhBBCiBwkmIUQQgghhMhBglkIIYQQQogcJJiFEEIIIYTIQYJZCCGEEEKIHCSYhRBCCCGEyEGCWQghhBBCiBwkmIUQQgghhMhBglkIIYQQQogcJJiFEEIIIYTIQYJZCCGEEEKIHCSYhRBCCCGEyEGCWQghhBBCiBwkmIUQQgghhMhBglkIIYQQQogcJJiFEEIIIYTIQYJZCCGEEEKIHCSYhRBCCCGEyEGCWQghhBBCiBwkmIUQQgghhMihlg8kf88aTJ7s3KhRIWW1nGvWzLkFFkhOiEpQbB9/XPg0bercsssmJ4QQQgghxPSkag8zwuy776aIMz4TJjj3ww+Fc9OT0aOdW2MN5zbaqPB56innPv3UuVNPde6KK5z744/kwunAbrs5V7euc3fdlRyYzfjwQ+c23ti5nXZybtiw5GAOv/zi3KWXFmz5wQfJQSGEEEIIURVVC2ZE6oEHOrf++oVPixaF/5s3d65rV+d+/z25cDqAKP7oI+dWWMG5o492bumlnXv4Yecuu8y5s85y7pNPkgunA4h+JgLffJMcmM3AJl99VSiDPfZIDubw1lvOnXKKc5dc4txtt03/yY4QQgghxH+UqgXzP/8499lnzk2a5Nwiizi34YbONWhQ8Pwi2o44wrnffksungYQ5q++Wvj7kEOcu+qqgijH09yhg3MHHeTccssVzs/pIJR/+qkggI87LpRiGUvRGzVy7uCDndtrL+e2376w5EUIIYQQQlRJ9V7622Yb5x580Lnhw53r1Kkgpm+91bl33y2cx2v555/OvfCCc7fc4txzzxWEcPRm8v/ffzv311+Fe/EY33lnQfyxdpkPLLxw4RquX3vtgke0Z0/nFlywcJ7jLDEYMsS5/v0Ly0QIL8aTheN4k2+/3blnnimEXQyuI/3PPutcv37Ovfxy6WuB69P5ifA3xzgX4dovv3Ru8OBCnidOnJLeYmFwjmN84nXxGIKZsmBC8euvlc/HsPg7xkdc9eo5d/31zg0YUHhKEOE68vz888717evck09WLjPIhiuEEEIIMSfBS3+5/Pqr9y1aIJO8P+SQ5GCgX7/CMT6PP+79P/94P2SI902bTjnOp3Fj74cOLZyfPNn7TTf1fvHFve/a1ftFFilcc8IJ3tet632tWoXv88zjfe3a3o8c6f2TT3pfp473a67p/U8/FeK+4orC+RgH159zjvd//104n6VHD+8XWqhw7Vxzeb/++t4vs0whvuuuSy4KDB7sfYMGU8LlQ7wvvZRckOG777xffXXvF17Y+zvuSA4GevYsHNt998L3337z/rDDvJ9//inhkp4HHiicP/zwwvcTTyx8B/KNfZZf3vtPPy0c69/f+0aNptiJD/EcdVShnP74w/sOHbxfbDHvL7jA+/r1C9ecdpr348cXwlp0Ue/vv78Q3p9/en/VVYXjMTw+lMVFF3n/11+F6z76yPuGDQvlMGBA4ZgQQgghxBxC9TzMETyh48YV/p57bueWWKKwFvjEEwvHd97ZuWuvdW6LLQovp512WsGLjBz7/vvChxfQllzSuVatnFttNefatCl4loFdH7beuvBSHss9fv65cA9eTtYe9+hReOnwsMOc693buV12Kb3E4J13Cut28cSyLGGTTZwbO7bgfU3DspOTTiqE37Gjc9dcU/Dgvv12YTkI8WchPRzH2034EdLL9x9/LHznpbwbbyz8zVrsK690rmXLwv2Abbie/yMx3+QTDzDguZ93XueOP76Qb15cxCuPN5w8RfsS75lnFmyy2WbONWxYCOPbbwtxEC48/nghLGzBshc8zG3bFpbfcD/nCZP8xTXfn39euFcIIYQQYg6heoKZpQDsXMHyCB7vAwIUwYu44oU9/maZxpFHOjdokHPLLFM4zrKJNIg4lj6wRKJzZ+duvnnKGmXWMLN7BQI3SxSoiEFENaKZpRas5y0mmhGTiM46dZwbOtS5p5927rHHCksU0vTpUxDNiHXE8lFHFZZOcB+if1peOPzii8IkY775CiK3S5fCy4w77phcUCbnn+/ciy8W1o6T75tuKtgXMUwcaZh83HtvIb/YtxjkD9HOxIalGrzcSZjLL18Ik/Oke5VVnHvkkcLyDspGCCGEEGIOonqC+YEHnNtyy4I4xYvJ36xVZm3xiBEF8YV3ErHMGmdeSMObyZpY1tGmYQ0uAhkPNZ9yQWjjncXzSRzt2hWEMGI5K5iJl90hACGPACcuXlxcaaXCceC6l14q/I0gZ4cOwj799MI51u4iumsKXnTSjXcXcYrHmvjmmSe5oEwQwSNHFoQzwpV0Ri82aUxDHtdZp/BCYCn7vv9+4X/sOf/8hb+XWqrgWQde7CRcvNqUNS8MMoEQQgghhJiDqJ5gXndd57p1c65XL+fee8+5J54oCEGISxa+/rrwMt599xWELIKL7eHwWqZBhBXzCFcFohFP57bbFrygiPhdd3Xu7LMrvzQHiOq4VIL7Su0mwX14rQEv+v33F9JP2ISBN5o85MF1pUCo41FGtGMnvOmbb+7cPfdUvi8vDM6xnIN8d+9e8OKTzpjuLHizq9o9g+UclEF8mRL4vuiihb/jkhEhhBBCiDmY6glm9l++4ALnjj3WuZVXTg4mROHMNaxnRsjFD55KljpMLxCwCNDXXnNu330LwpDlB3FtbgQPblx6wbKQeB6vbNpjjHiPgpj04w1Pp5/1u8XSj7iM3tu4/hiRyfKNrPhddVXn3nijsEQC7y/Xsa4ZD3YUtqwRjmTXCpNmJgrkieUjXIs3ny3+agprxEkn658jiGjWfUP9+lPyx/F0+oQQQggh5hCqJ5jz4KU9PJW8JMfWc6yp5WUyPNGsb44vrk0riLszzij8z/KBrbYqiLqsdxk4jkcWQcoaal5qY0s8fh1vzJjkogDX8aIi//Oz3KzXxdNMHsgPnnKEbRa81ry4CIhZtqHjZTmWqaR56KHCi36skW7SxLkNNigcj6KafAB2uvvugnebPKbhB2J4ERCRzn7YCGjWbuPRrylMDoD88UIhecar/uabBVvssEPhfyYMeMlJJ+uahRBCCCHmIKafYMZrykt4eGT32aewDpYP4vCYY6bPj5sASxp46Y0fNCH8ww8viHHWRC+0UHJRCna8YC0vS0P4WWjWELM/dNZDvueehXW6eFJZv7zeeoXwiSeuxc7Cul9+ZQ8Ry8t4rAW+6KKCEE2vTx4/vrCDCLbg3HXXFUQ897J0Iop6vN6kY/fdC0K8du0kgADfWRJDXlm/TNoOPbRwf03hftaRI7pJA2HygiCTD2zAzhnkjd01uAYbpr3RQgghhBBzAHOfHUj+Lg6CCQGFwMQL27hxciIDyxrwSLLFHOJvgQUKHkkEIgIP0Yq3kvAIix0i+J/vEONhRwbOxR0zOM6ndevCh10hWD6BAEewcj0vGfIT0cSZBUGJkGXJBGtz+SEUlpXwsiAvsPGrd8SFwEV0473lb8ImHu7l5Trui0sn0qy1VuF6zvEiIdu0kRbyijhH5OKdJW2IXbzSHGM9MqI03kc+EOvEiZ3ZiWSxxQr2w4uO9x7xHpdwsBSDlxLZUo+lE9ttV1hiQbysF6csSFu0L8fxaDMRYOs4lqqQ//btC+HxYcLBPfx6I2HHCQh241rSjaDWi39CCCGEmIOoxWbMyd9CCCGEEEKIDPmCmV0Y2PFCiDSXXy4vsxBCCCHmGPIFMz9iwYtyQqThxcDsD78IIYQQQvxH0ZIMIYQQQgghcpgr+V8IIYQQQghRBAlmIYQQQgghcpBgFkIIIYQQIgcJZiGEEEIIIXKQYBZCCCGEECIHCWYhhBBCCCFykGAWQgghhBAiBwlmIYQQQgghcpBgFkIIIYQQIgcJZiGEEEIIIXKQYBZCCCGEECIHCWYhhBBCCCFykGAWQgghhBAiBwlmIYQQQgghcpBgFkIIIYQQIgcJZiGEEEIIIXKQYBZCCCGEECIHCWYx3fHeux9//NH9888/yREhhBBCiNkXCWYxXfn555/dPvvs41q0aOE+++yz5KgQQgghxOyLBLOYbvzxxx/uxBNPdKNGjXL333+/W3755ZMzQgghhBCzL7OVYP7mm2/cLbfc4j7//PPkiIhMnjzZDRw40I0ePTo5MvP58MMP3UILLeTuu+8+t9pqq7latWolZ2Y/Hn/8cTd06NDkm5iV+OSTT1z//v2Tb7M3X3/9tevbt6/74osvkiNCCCFmRcoWzKxL/euvv9yAAQNcjx493K+//pqcqRmvv/66O/bYY80TWS7jxo1zhx9+uHv11VeTIzXnySefdIsssogbNGhQcqQ8nn/+ebfEEku4u+++OzmSD+t4//zzT7PfjOS7775zxxxzjInVf4vx48dbHfnqq6+SI7MnlNUll1zizjrrrOTItHHkkUe6FVZYwU2YMCE5UjW///6722WXXVzz5s3Nc18VsX3+/fffyZHpQ6n6e+mll7ratWu7N998Mzky83jhhRfMpv8F3nvvPXfYYYe5d955JzkihBBiVqRswfzaa6+5rbfe2nXu3NndcMMN7pdffknOVB8G4XPPPddde+21rlu3btMsvmvCXHPN5VZaaSU333zzJUfKp0GDBm6eeeZJvuXzyCOP2HpexP5/GYRa9+7d3XXXXedOOeUU99tvvyVnxGKLLWaCuToedwTq4osv7pZZZpmyXp7E3u3atbMlMdMTJoYbbbSRTYbSLLjggtZ+aEdCCCHEf50qRzsGbryW2267rQ3466yzTnKm5rz//vvmqUVYffrpp/b4uxjEzW4LEydONO9ZHoiKSZMm2fUR7v/pp5/seNbztsUWW7i3337b7b777smRynAfS0Cy8bZq1cq843j/0vCyG49XsxMJPL9jx461JROl4N5sGplEEB73FxNM5I1rsA3eyDzwUJIX4sizI2FyDenh7+rAhIp8nnzyye6NN95wL7/8cnJmagj7+++/t086Hv4mv+QJr2YxyAvnyU+pa7JgH+759ttvS3pgCYswqT9V5T2Gl7Y74XI/9SbLRRddZF7R5ZZbLjkyBcqjWLwLLLCALT966KGH7O8IdYF8cE+6LIn/gw8+mErYpiH8YuVLmnkqUCzvXE+42Tp29NFHm3d5rbXWSo6UR6yL2K8czzmQZ+pKto1kqUndIDzC5VOsbWAP2jRtsVS7iG2V81m4HruWOl+KWB+z5SyEEOJfInTouYTByvfp08fffvvtPog+HwSmX2GFFXwYAJIrqkcYoHz37t19w4YNfRikfRhw/ZZbbmlhpwmDnz/77LN9o0aN/PLLL2/xPvbYY37++ef3DzzwgF3zzjvv+O22286PGjXKB/HtV1xxRd+kSRN/7bXX+jDI+Lvuusuvssoqlt727dv7MCjaffDuu+/6rbfe2gfhbt9/++03v++++/qnn37aX3311b5x48YW75577unDgGnXwMcff+zbtWvng2i272Fg87179/arrrqqX3bZZS0+7EU+jz/+eN+0aVM/11xz+XXXXdcHse0HDBhgNu3bt68/7LDDfBCWPkxCzB7Dhg3zQTD6E0880e4LAsvy1KlTJx8GXYsvMmTIEL/66qvbNc2bN/cPPvigr1Onjj/vvPOSKwo88sgjFjd5wQ7bbLON2SsSBnt/4IEH+iDOfNeuXS2+1q1b+yBQzL477LCDhZ0Htt5vv/38hhtu6L/44gtLE3njeJqePXv60047zcqF/GKzcePG2bkvv/zSd+zY0Tdo0MDSSp6ee+45OwfUjyuvvNJsxXk+W221lf/kk0+SK6YmiDx/wQUXVNiJ/IeJ31T3TJgwwY4TJum65pprLGziilx//fX+0EMP9SNHjrRy5No2bdr4IFCtbA466CALn/LHlpR/hPqxxx57+CB07XsQwb5z584+iCGrlzFe6k2E+3v06OGPPPLI5Ii39rLbbrtZPNwTJn1WH8NExf5ecMEFfd26dS19fCefeeXLvXvvvbe1Meou/1M+tD0+RxxxhF955ZX93HPPbeVBuLQtGDp0qNUNbPfSSy9ZO8Q2aYLQ9jvttJN/5plnrJ3069fPwiHtfDbddFP/1ltvJVcXhzpE26ZekG/a6E033eQXXnjh5Iqa1Q348MMPrS0TLh/sQr+Q5p577vFrrrmm1R/sQzwR0kae4nlsRZ+F7YB+I0wsrGyxL33TWWedZWUSefbZZ82+TzzxRHLEWz2gX4x52XjjjX2YhCZnC4wePdrKIF3PhBBCzDiq9DDjVT7kkENcEI6VPF01hUfHjz76qD3mZS0wnutXXnnFhcE7uaLgUWK5Bp659ddf39Y641ULg2UlzxHeJLzTQXy4F1980bxeYeBzJ510kq1xZA1qEAS2lCQITBcGu+TOwss2Tz31VIVHLgx+LgxeLghOd+utt7ogUt2uu+7qgli0ddN4rwCPTxjcKu4Los6dcMIJLoh+d9VVV7n999/friEPQZyYV5HH1mEwtRfhllxySfM6sWbx3nvvdUEA2ZKNILjsXBDsLggQszdpCYLKPPxByJg3jHvJM7bAfuQ5CEIXxFwlDxbx33bbbS4INQv3qKOOsrThBSZfH330kV1HvocPH25rUrER6cBeLDkJ4sH973//s6cBefDCEtdRlqSJ/GDLrEcNz/ydd95py3H22msvyyMvCeLBIz9BcLlTTz3VXXzxxW7ppZe2MiC9wFOJ/v37uyBSXRAlLog5e8GxQ4cOlZ4qpGF9KOUXRJvFSf7x9LJsgXxDEOouCD8LK4h+Sxf1hDqZhvOUF2EEgeQOPvhgsw9hY09sQFmwrpe15OmXL3mSQbnGpwzkKUz63I477mh1g7Ihv3jnY7yUH/Ug2p5yP+OMM8xGLGPCRkGcWz0Ok0gXJli2vIjlH9QzPnzPK1/qBx596s7555/vNthgA3f55Ze7IBKt3Qeh5+rXr++CoHNhAmlhskQE8DrTDvD8knbeK7j55psrPMCkN0yyrX0stdRSlmfac8uWLd2ZZ57pwmTSth2k/pOHYtDWeQoVJjBW7rRD6i1Lf9LUpG5Q7pQbLxCTd9oaaae9xbZNXaFO0FdhF8oJb3Jk8ODBlibsRH6o/9juhx9+sP6KvGGDtm3bWp0LE1d34YUXWr8U618W0hNEuPUnXEec2Jo6Fe+hDyVe+jZetBVCCDETCANbtZhWD3MYyHwY1M1zA08++aR5YNPeNbyUeMrwhoZBwo7hRQoCg+ehFR5mvDN8x7uFhxjwxAQx4OvVq1fhLcKj06xZM/O0RqJnJwx69j2IO/O+kTe8hhHyS1hhcLfvQdCYdyumAa8p+cFbVQw8ykEU+jfffDM5UvAe4kUm7WEgNI9zHngh8WDhfcZ7tfPOO1ta8VAC4eFZJrzoYf7pp5/MS4XXN+0hx6MehJQPIt++4x3Fm413Go9yGmwSxLp5NvO4//77/bzzzuuDMLPvQbzYkwC89WnwlJPGXr16JUcKTzDCBMUvssgiPoiu5Kj3QXSYVzEI0+TI1ATRaGVYlZcyTRAgVp4xT3j6CeOOO+6w7xAmXz5MDit5mPEUUq8GDRqUHPHmLSQ/eJcpAwiTGavPYVJo34F703UILyX3hYmdeV4hCEErA+oDcJxypt4C5YlHvlR94TzliAc6TV75ZuFanqwQb+S6667zYRLgx4wZkxwpQB6oR2EyYG2Pp0R48gkDaK+bbbaZD2Kzkkc1DfUAO9OmioGHevHFF7cnDxHaAF7qtIe5GHl1A/sF4Wphh0lVcrTgcabf4akE8KSBelnMbrSpNdZYw6+99trWTiLUA8LH80x9GThwYHKmcG6fffax/oB+EIp5mLPwpIEyiP0S4YTJudkl3baFEELMOGbqGzshPnfTTTeZR4o1xBAGP9ekSRPbrSJ6j3lBDs8XLzGFwcSO4d3Gs4Y3LQ3n8QLF43h0gzgw710QGHaMF5SC+LEwqwKPIWFECIP1m9E7mAXPHufxYLLdVXXA84YHrdjLYKwrxSOLh5HzxIF98C7hrWPt6KKLLmrX4qU84IAD7CWxCB5P1ofjTST/ETz2eKTxCKdp3bq1eRHTBFFia7VJZykoU7xohBnEnR0LExgr46uvvnoqTxrH8XpHOI9XDi84nrlhw4bZh3XQlGPaUwvYgWPYheuDOMldHw7YjL2hoy15WsAxYB0u+aQeRvCQ4wnNQnqCCEy+Oau3eHHxhFMGwFMF6mIQNfa9FJQVT07w9AL3YRs8n8WgDLEvXk08ubGtlEux8o3wRIQ156xDDxOfkl7ZUmAD2ir1P5YX+cADTztMt1nSjUcYrzfxUn9K5QVvMh7d2FcAdjvuuOOSb5Upt25wHU8Lll9+eWsnsc6RLp54RK9tbNt4rckLaY2ECYSlj3ZH/YlQD6hjeKfZhWfjjTdOzhTO8TSMOs8TsTy4hjixE/WV79G7TTh4nNlGkvQKIYSY8cxUwcwgijBm4GaA4hHxM88849Zee20bQBCIwONMBh0ERJoonrOkBScChEE/CpgIg1pVIgbigBchLAZKBt9i8BgY4cNuGIjrLl262PZh6cG1FISdHmwBUc+SEnbi2GabbWzZAktYCI8PeWCpQ7169SrZI5tubIgoRIiljyNeeKzOS05pGNzT15UL4gLxjZhjqz7KFLGAmCTdPE5Ow8QnLeARSzyG5vE8wpPHzPHDkptYBxA+LNNhacumm25qdrn++utz7Uz+WQaADRBd3MO2iBDvww6IjnQ5YIds/YmkbYRQhPSxWPeqKv9sHPzNvaXqKGXNsgFEHGKJ/++44w4TdOVQrHxZBsVLrywpYNlAx44drbyqSnsWwt15553NjtiXtsLLipQt4ZM3RB9tn3qx4YYb2qSJpRZ5sNwDe2QnbNl+oLp1g3pBX8TEnF+ljPWN5SqknWVFsPnmm9tyDUTreuut5w488MCK+ky9IU+002JQd7F5tn1Tn6k3vGRZDPKLU4GlZUzaWFbCxBOqWy5CCCGmHzNVMCOSWa/IAISnJX4QXAz8eM8YsBgQGRzKFQP/Jog/RBlrTxE0rD/E4x09mNWFddC9evWyNap4/FgbyrraNNiH8PMGUK5BqKTXXAL2xXvNYD6tED/bjiFs+JGPdJnisSRu1rnmgdhCQDRq1Mjymv5gU9aTw8MPP2xrxRE4TKw4d84551QSnVnwfOMdZEKDLbmHMNJgJ4RdOZOpfxvEJm2FdsSkk/XU/OhFTSC/CG/K56677qqwzxprrJFcUT0QeDxZoD7geSVdeLVJM5Bu6gVPcGJc7OeeB2VD/aiqH6hu3eA4dY6JerE6x9phYPLN5JW63LNnT7MTk7p4jrRl21eE88XqFeIebzFr3YvB+wlMuhHKMU0XXHBBclYIIcS/xXQTzAgxvCZ4XUqB14mXiHgZCw9o/OBh5NElHkpeAONRKYNlemsyBh48lww2sxoMwKSZQZsXJHmhLw6k5ANhWeqxcxZeDsNThscLEYI3OD3wM9CzfAHvWLQ14bPkIP34edlll7VBGc99Om68ityLJ64qsDmPrEuVKaKdMuWlKMowXaY8TiYNvHSXJ+zxeMflMsRHftMfXmID6gJ24GU7vHrUo/Sj/mLwYh0ePV7Gi/dkRRR7CVPnWL4SwfsYX/yalUCg4cVlWQ3ijbTzYmCEvOW1vzSUETblxTeELsuQ6tatm5ydAvWXtl1V/SVuXnIjXDyklD+ij/sBkYyI5AVDJkeURVUvEXMN97z11lvJkcJyCl58TFPduoHXlycilDPpy9a5tFeYcAmPFwmZEMclJzy1YEkUfVZaFLOchT6KCQ3LQpg8RGgHXE+cLPspBu2F+HkxMtqJJw9ZKOdSL0sKIYSY/lQpmOnkWQLAmj0+iAsGBB7F83gyDhYMYjzaPf300+17FryQDBY85sw+YmXgZK0tQo4Bibf/8f6wVhNBwCDZp08fW++bHpxmBXr37m3igAEMwcoAyUAaBznyir0QrgjMqoQHAg+RymDOtXhuWasYwVbsBY1AZvcMbMM6XB4npz1xiGoGZQZgvIicYzBn/Sd/81Z/VeAVRIDwq3fFYBkFYoZlKVnxQz5403/EiBGVdkDJgiBhJwBsw2QD4YwtY76wLZAf7IF9+Z/jeCgRc6VgwsGj83gPEy52i0hDfSQ+dsZgkoONePQed+eYVWCZD+vkeTpAeln/S5uKIheByN/syEH9wZ55tqG8WA9M+ZFn7H3ZZZdN9ct91F/sQv3lmrz6i5BnOcMVV1xhT17S68A5zr3UBf5ncs3TlDwQnQh5njIwoSF+lnHw4zhpqls3EKx410kD3mTyh02xGU+/Yn3laRH9WmzbrKuP7w3Q12211Va2BAUPN2mjf9x+++1t0sDabdo9/SFlxXnaIU886OtY4lEM6ixljFOBvLCuOrsrCPA+B9777JInIYQQM4ayPMysD2TNJB/W6jIg41Vkey3W6gHeLwbt7Jq9CI8aGZjw1ESvU4R78UYxyLLtGP8zWOGhZO0pnhYGVwQ0Qix6jxCleKDiWlIgLMRAVsARZvpY9l6EG39n009cXBfTzDV8YhoY3BAKrF9m2y0GXAbFuOSBraTwZrGtFIMs21MB9xMO6U3D1mKICzzAhIuQY3AnXaSBdHbt2tW2sOKFI7yMCFa823hqySeQP5Z28Fic9aXEzbU8ssaWpBWIn3Rgm2xaCCOeKwZCgTSxTjV7L8cRwky4eKkPCIf0kYc0vDBImngcjh2xF2KJNdxRvLAulbWveN6ZCLBMBY8idqF8isHjdPKJsOEeyoA1qXje4z2bbLKJbfXFxAKvIRME7I89oy0hlnk67bEOpeMn39nrsvdiB77HOhXhWHyJC3sSP8eA//HmU44sm0Bw0f7iC3CkhfwhzjjPEw8EXKnyRfjhMWWSSr0hPEQayxrSbYCXHGnrbGOGbdjeEAiTTzrveGfxWDOpjV7rCO2bCRTLlXjBEruzbjobRhrKgR9v4TzlSPx8v/HGGystaahJ3WDSyQSEdeAIT+oc/Qxh0b8BApoJFRN44udFQTy/EexHXsgb9ZW/qUO0fWxGH4ZNCZfzvBhJnaYPiGUf61D8jp2Jk60OCY+13mwnyGSIa4E2xUSQ76XaphBCiOlLrdD5zrJvkiCwWaKApwbhHB/Pz0pgPnYHwBPFwMdgx0CfBg8eez5zLaKhqnzgxccbRXiI4bRwi+B9wmPKhIXBH7FSDMQLXkS8bngUEeLTY/3yjIDyZn0uYoBH0ewLnE4reeElUbzQiOD0riClwDPIPYifUranXPDUsV4U8YSAzIr6WQE8nXh6WS7C5Af7RBEF5INyxhPK5JbJWlX5QByyqwT1h2VRxQQmT5iojwhu7J6dVJYL5UdcLCWgLLLtpBR40ukHaAdMAIu1h5rUDcAbzF7RtDkEOSI1LUKxD5Ng8k7bzi5bwYsdn6JwLxO+NLR9wmd5BvWKyWFVUM60A/JNv5eNk0kREw4mB+ylLYQQYsYzSwtmIYQQlWH9Ouvy+XGgrEAXQggxY5j13GhCCCFKgoeZFyslloUQYuYhD7MQQgghhBA5yMMshBBCCCFEDhLMQgghhBBC5CDBLIQQQgghRA4SzEIIIYQQQuQgwSyEEEIIIUQOEsxCCCGEEELkIMEshBBCCCFEDhLMQgghhBBC5CDBLIQQQgghRA4SzEIIIYQQQuQgwSyEEEIIIUQOEsxCCCGEEELkIMEshBBCCCFEDhLMQgghhBBC5CDBLIQQQgghRA4SzEIIIYQQQuQgwSyEEEIIIUQOEsxCCCGEEELkIMEshBBCCCFEDhLMQgghhBBC5CDBLIQQQgghRA4SzP9x3n77bffee+8l34SYmjfeeMN9+OGHybc5lz/++MO9/PLL7quvvkqOCCGEEAVq+UDyd0n+/PNPN2jQIHfbbbfZYLL66qu7s846y/6vCb/99pu78cYb3T333ON++OEH16xZM3f88ce7ddZZJ7lizuCDDz5wd9xxh/vrr7/cXHPN5ZZZZhm3xRZbuEaNGrlatWolV9Wcf/75x7Vq1cottNBC7oknnkiOCjEF6siaa67p1l9/fde/f//k6JzJp59+anY4/fTTXZcuXZKjQgghRBke5t9//93ttddeNogsueSSbpVVVnGPPPKI23zzzd2zzz7rytDblRg9erTbZJNNTHDXqVPHRPInn3xi4V199dU2gM8p3H333e6MM85wgwcPdnfddZfZBPHCYP3dd98lV00biHEmPOK/wZtvvmmTqnfffTc5Mu38/fffqiMB+jJswWd6MXbsWOvbnn/++eTIzOP77793O+20k7v00kuTI0IIIWpKlYIZT2fbtm1tgEbYIfL4H8/wNddcY4KsXBCBu+22m/voo4/M43nfffe5fv36uaefftrdfvvt7scff0yuLMAAFgVfVUKaQY5r0wKev8u5txxiWtJhxWPZeMuFsLAvXmaE0Pjx492hhx5qdr311luTq6YQhQ3/l4qPMOM1eVQ37VwT4y9lz6rOR6bFZsWIeU7HG/OXZ6ssMZxSaYthck2pMOM1efmL8eSljePF0vLNN9+4kSNHum+//TY5MgWui2VQTvz8X+oaqMoeEc5xTVW2jtfFuGcEVdm2pmmIdi11T6l46Scpry+//DI5MjXx3nTY5aaT64izWBnh7Hj11VdNtBcjHUf2XiGEEJWpUjDPN998rnPnzm7RRRdNjjjXokULt8QSS5gHI68zz4JAZhlCjx49XPPmzZOjBVG+3XbbmRebpQnw/vvvm3jEm8bnkEMOcW+99Zadi1x33XUm3p977jm3++6723V4aVmL+MUXX7ijjjrKtW7d2nXs2LGSR44lIWeeeeZUyxQeffRRd+qpp1Z4d1944QVLK/k86aSTLPwOHTq4119/3QaaG264wW2zzTb2yQrciRMnutNOO80988wzyZGqmXvuuS3N2JpBNvLrr7+6a6+91rxFm222mdtxxx1NVJPPNGPGjHEHHHCApXOXXXaxJwDFwLYHHXSQeb623HJL83IXE2AR8kr+dthhB7Nn+/btK3nMfvnlF9ezZ0+3/fbb23meSAwbNqxiEGZAx1Y333yze+yxxyycdu3auc8//9zOp0FYnHLKKTaBSDNkyBArMyDcoUOHuosvvtjK+ZhjjrG87L///pY36uSVV17p2rRpY2liQlKV6CC+aJOtt97a4qLcIz/99JM777zz7Bz2Ja5x48bZOeol11NvLrzwQrMpdeKKK64wMZKGMtlzzz0tHuo85ZotR8I98sgjLZ6tttrKnXzyyVafKAPyxfV4DQ8//HBbRkHeOE/csY5su+22rlevXmb7NNSrGP/ee+9ta9yLwVMk6jrlSZ4pE2wdmTx5sjv//PPdgw8+aE9HuObAAw+0tlUMljuw7Ir8EDdpeOqpp5KzhTrSp08fy18ayoA2SZsrBX0AdWvUqFFu3333tfD32GMP9+KLLyZXFKAt0j4oH/K13377uddeey1XLFL3mdRHu1L3qXtpu7IGnD6GMCnTyy+/3MqIOnvRRRfZ3+SN8rrsssusTlDG2IM0H3bYYVbWffv2tbIcMWKE9XfYijDJy/Dhw5PYCpMm6gTrre+8805rT9R1+pvodCBf2A3BTlsl7m7dullbBdr72WefbfUUe2G3bJsTQggxhRq99EcnzMDIEg1EXrkgolhPS+eeBwNBy5Yt3ZNPPukaNmzoVlppJRNa3Jfu1FkDzeDE4ILQRmgyIDEQMdiz/KNx48YWzq677moDDTBo3HTTTebZToPw7t27d4VQIh0IGsJi8CUtCB6E/AUXXGCCZIUVVjCxgmhLi0gGrEsuucTiqc6kYv75569kUwZXxNiJJ55oHqN1113X0o+A6dq1a4XYYm056UTorLjiijagM4invUsIAwQlgpv07bzzzrbGGbHBpKiU2Ln33nstz0svvbTFQRqxDZA+JjqIJ5brIIQQvYjmd955x64hLUyWEHkITcqJT1bMAaIMm2cnR5Th9ddfb3+TD8qBJTyICuJp0qSJe+ihh0wQkVbER9OmTd3HH3/sjj76aMt3KZjEMcGgvjDxWm+99aweHHfccRX2ZUJAeWJ/7Ia9Y/74n7RwfMCAAWYHJjkImFj+pJn0EQ+iBjtSN7EdwiXa4uuvv7anMPfff7+dr1evntVzyosnEDydITxe0sNGEyZMsLDJL4J6qaWWMvHKJBTBxEQlCkJEK+VCXcZexMW16YkLYQ8cONDKkbhYIkRZYXtEFfkC6sott9xi5c4kb9lll3ULLLBA0bpOu0NoEi51CPsgMjnGpJX0IUyZ2PCuRBomIUyM8wTzww8/bG0x1j3sRv1kshT7C9ookxBssOGGG7qNNtrI6hT1JftkK0Ka6F9OOOEEs+s+++xj9R0b/u9//7NrsAdthwk5fQxLzEjPzz//bHUZYUz+KDvKi7rGd+ol+cJ2pJX3FmjfQLnxoi7rqUkn5UUccSLP/5Qrk3j6BdKGY4P2Rf8H9GGkiTwgjombMKln1GlEOnV8gw02sMkrEyfsl54UCSGESBE672pzzjnn+HnmmccPHjzYhwEyOVo1m222mQ8C04eBOjlSnCAmfN26dX3oxC18PkGM+jAo+IMPPji5yvsgoP2CCy7oH3zwQR8GBh8GM7/DDjtY2rp37+7DYGb39ujRw4fB3I8cOdLuCwO4X2aZZXwQNPY9wvfFFlvMBzFi36+88kqUhj/wwAN9GFR9GGz8jTfe6IOg9auuuqoPg5+FHwZhHwYtHwY1uw9++uknH8SSD4NUSRsF0e2D0PdhUE+OeN+vXz8L/+KLL7bvQVBY2slPECkW1uTJk30Y/P28887rX3jhhYo8hsmIDwO5pRNbED+2wO7AsSB6fBAUPogkO8a9ffr08Ysssoh/9dVX7ViWIDh9EOE+iET7TvhhcLe/w6TD7u3fv7+VAeFRvkGQ+TAA2zVcu+2221parrnmGksH1/HJEoSh5SMIz+RIgTAhsToBxB+EgtkpiE0rZ46FiYUPQtEHkWH5I/zhw4eb/YKQsHuzkGbqWxDXPogFu4ewyA/poN4BdW3LLbe0MgDyEISH/X377bdbPdl00019EGwWRphU+iB4fP369e1YmOT4jTfe2G+xxRZWl4AwjjjiCLNtEDV27LzzzrN4g5irSEsQe1af+Jvy5XyYfNr9HIMgouwTbUo6iT+IQ7MP+QwTS1+nTh0fxKpdRz2KdTCIQLuPukyag9i0OLmOeMKkytpfEGp2HeldeeWVfZg8+bvvvrui7GP8EY5TVxdffHEfhJ+ll2uoI6uvvroPgtzSTXqxcYsWLZI7C9AWqV9hQpAcmZpOnTqZ/cOkxsqE8B9//HFLWxCfdg3poHxjmXENdRFbYg8IItYvscQSFg7QLhdeeGHr77ABBCHqgyj2YaJm31955RVfu3ZtawdAuJQ1//N56aWXrI8Kk4FK5UX6sCdlFMuND9DOYj3jWJhoWR3mfxgzZowPkxizX5jUWJiUx1prreWbN29u13AfbYCypM8kbmwAYQJm9z/22GMV5REmXn655Zbzxx9/vF0jhBCiMtX2MONFxduGNw3PBJ6scsEzGkRerlcabw8eFR4T4iEkfD54W1jGkV1msMYaa9jjTMIMgsy+hwHKhUHU/ufeMJCYpyV6x6pDGOjNA4iXDS92EEXmScOjHHezwMu8/PLLm7cvEgZ5e8Qf81CKUAa2Y8i5555rHmG8obwUSfrDQGZeyTBoW1h4dgmL+PFC8jeeIfKGzUgHHinSiS3w5rIDSSQMwi4M8OYpx7vIvXhV8VCFgdO8fsUgXK7n0TfeLcLHo0X6WMZCuvBq49EiPLyv2Ca9rATwLOKlJG2kPc8u5YC3knKgnEkTeSdsyisIBQs/TGzsSQjLVYpBWvE0UrfwhJJ+PMZ4dqlT2AsoX7yVDzzwgNmReKjLEdKAh480EW+YeNnafzyeeBMJmzSwswzfsT0eP+w2adIk8/qxzAFvPl5dPP+EQ75IP/WJv/kA/5OG+J16GoSbtTG8mny4h/ZE/cDjyRMUPKBrr722hU094tE+ZRWhDEkr9Yv7uY548IhjU5YZpKE94FnFVlzLJw1Po6gjLOPCs0t6uQb78nQAW2CjaSWIPfMWUyaET5vHbix5ANLHLjTkBS8q+aQOY5tSHuYgds2jHCYGVlaUGZ5iyic+XaC8g+h2V111lYVJ3HyPtihVXhGejlF28XqgPZIP7EK83MOHcknDUg2evnGOMKjDeJMhHTd/Ezc2IL+04zD5tHjIB3Wedo19sm1WCCFEgcq9dw4IO9ZxsoMDAymiGZFQHbiex4502qWg4+ZxIsKCTj6CKGPgigNCJDsARZEcBx9AGAACr7qkBx5gMGTg4ZOGOBA9NYElEYgtHjuzTpbH1DziJr2IcMQXnzQIDuxDmWBPRBfrytM2I93pdJI+BAwCEQHD0gM+iCEEc6n0M6gjRnkEjOglvVwb00fcPNqP4fFhfWrW3tSbtMicVrLlzMSC7+k8Ex/CqNRkifqEYGI5QDr9TAipq9EmLK8gfB7HI8aYuGGzCPFm88ZEg+PUacQOaeAxOMImxsOa+5heBDNiDhFEmqsDQpk0InpWW201WzqSnlwSNu2KepWGOpKu30wgyBcThDSUHQKU82kQXtk2mIZ0kf9seEBaqLvU4WklCsII7RQRSdxA/8XkB7FLuTBxYIkGlOoXKAvKHyGerhvUlQj5Ym0wyzCoF0wIaQ/EVw7YNAsin/ZGOpncUBepO9l0pu1OPSPPpfISIT/sSsSH5RjpfBFvVfcLIcScSumRLgODBy+XILh40adBgwbJmfJBCDBoZwfdLAwEDPBpGIDwkkXxOy1EkTUrDA6kBc8fAzseKtZfp4UXtkDAZAdgPF+kH2FFGHzyJiLANYTHC2G80IhXOn7wLDHYF4Pt/1gb/fjjj9u9rH9knSXhIVIQ75xLh8cnu0a8HAgTyhUc0wrpJ07ynk0/HkZelgKeFOBhZj0xXmHswPrkPPBEkw/qLPFg+2OPPXaqeHihC+EZy4f7qgtrofFyMuFCKBMuL4xFCJtPqUlRJNo/ex11jQkEoqw6xHipr1nIJ+fSk4PpVe60GeJkog2s4cXjj0jnpT3qP+vO86DMuJ+14dkyS7/MyzpkJrus56YdIHZr+kMwPMlhAktbpq5RN1j/X127lwJ7ky+cD9k88eElQiGEEFNTlmDGCxdfnOJlE7xXcWCNMNBFb2cpeMscIcyAlRWrDHCIaTwufBAraa8ggpJHojxin1YYoPFIIdxjOkh3eknF9ACBn/ZCloK0pD3DEcRT9KpnB2DKgjTj4WIAxLPII1zijODVZIITId/YFqGCpy3tXcKThQe1FIg+lsnwchneZDxqpI8XrBAmPJpOh8eHpR/VBYFCuAiHCPWAl7VmBLG+UXexQTr9eCFZihNhyQMv7bEFIssTsEGEcuZxfRR81Cte5sJuLBfg8TdhIUSz8VAWlD+iiOURPIZPl1sUf4BtINvOmJwQ1hFHHGEvzPJ3ujwJm4kNL52lxetnn31mXuAI9YkJG20tDfanfuEdrw7kmbrJZDAtwrET+cSmpIt8kUbqb0wfNuSadHpLQb8SvcnAS37UoVgHeapCPtm5hJcBWeJV1aSf86SBpzvp8uLDS5MR0o5Xn5dwaR94b+PShthP5vWLabiPZSrsAINnmSdBxBXLvToQN/el+yD6ANJKm2Lil81XfBJA+WCvmkzehBDiv0iVvTBeJXYdwKOCRw3Bylv1fNKCE+8bg1B8S7sY7EDAGuO4w0QcRBgk2ZGA9ZQIpjZt2tjAwXrRCNczEHXu3Dk5UnMQEgwWrK1kJwDyyOPs9KPWaQV7MAAx8NUUBjtsBnixEAGAWGadLmKANaSILbaH4ikAb95TJkw+eKs/vXYX8caWWtiWpwRpeBxbanDs379/xVIYxAvCJK67ZK0rgyue8bTIo27k7UxRCjyACCx2ZUDMIbIIm7XcMwI8u9gJDzp7jMf6zP9M2hANpIGtxaJww058WAIToQ5RN6lT2AMBS3is0+XJCtcy0cRbiHiMECblQVug7h988MFWJ9mdAaFDPHgu4w4shEP4eB75P0Kdpn4gHDlO20nv2sKSirgbAnkhf4hnxCN2jtA+Efisq491h/JmWQ7lzZrx6oBgxr7UL9o9+SVufjWUiTM7MzDZog6zxpk0cY5ryCPLIbBtVSCOeRrA8hruJf3UR9oFIHopRyY1QLnikc+DtsV9pDu2PaC/ihMKhHh6ezzaCfHTPoD7mdCSF45XBddj59h2mMjxNCc9qSkXxDFL1CjHKJpJC0+IsBNLrNJP8piUU/eAyRH5x/5CCCECYXDNJQwAtrMFl2Y/Cy20kO0AALy1HwZH37VrV/teCnaW4A38eeed1wdxZG9685Z5GKjtbfswqPhx48bZG/Ohw7c38Ymfa3iDOwwgSUjeh8HQdib49ddfkyPen3vuubYTQNzpAthxgLCeffbZ5Ij3AwcOtLfv69Wr54PwtLfzjz32WHtLnrflIYhP2/0i7igBvE3Obg3sGpCmdevWlp4Iuytgjy5dulS8GZ/l0ksvtTf5w+CbHJka7NG7d29LFx/shd2DGLc39CNhAPQdO3a0nSPID+kOYtsHQeu33nrr5CpvOy6wewX24K36li1bmn3Z9SOWZZYgBC0v2IgdNsj/oEGDkrPebEF8lGerVq0sXMqAXQggCB7ftm1bv8kmm1Qqq1Kwa0cY6C3MBg0a2I4EYTJlb/ED9qSecS6IOTsGzz33nO1qEHcsAOoLeUvvrpJl0qRJZifsGkSt7WaBTdg5Iwgs27GAtJOejTbayNKBHdihBNglg3IM4sIH8Wf3kX7CGjt2rF0Db731loXDubiDBfWPuh4EkV0TxJjfe++9K+r+8ssvb2lh9xAIAsd2PaH9kAbyFcS27epBG2nWrJnVRcp155139muvvXZFm8FW7FZCHWEXE9LK/aRp//33t2uob7QT6hl5wnZLLrmk7bbADi4RwuIcO1RUBWWObYIoth1ByBf5Y8cW6m0kiF6zL9eRPvJOHQoTjql2TUlDGrAj9YQ2Qr0Ik0MfJvoVeaeMyTv1GHuvueaatvMKdTbuhMIOIYRz9dVX23dgZ4pGjRpZncdO7JARRK3v1q2bnb/33nvtHP1X8+bNLfz99tuvIl/UHeoWNiffm2++udmDOkoahwwZYtdFaCvsWEIdYUcVwqTfo03TZwH9YxDk/sILL7TvkRNOOMHqRIR6we462Jr7SeM333xj57iX+sJx8kV5kw/6YKAPpMxJgxBCCO9r8U8QvzMdvMXsrYznI76Aln7siDcGLy2eGR7Vsv4wCJbk7PQBrxQePzxq/OAAXq5ZFTxBeIVZNhL3kc0+psVmeEXZs5dreHweHwlnwZvEeku8d1xHeHifikEVYY0ma63DoGrLEvBYpiEcvLR4CHmsiyebpQ41hfrBkocwoJuXdmaUDTtLUCcBbzD1Mq4nxzPKUxY8iyxDwTMb08STCX60I9oH7y5LaVjnnLUp9Z3yYb1oEDK2IwpLMrIQD95L8s++2elw8HCymwaP1dmhAg8tUJ85joee9lLMZtQRvN8sdeBJDk+MitWRmF92UMBDTn7xgE8LLOugjhAf70PEx/9p8KhTz/FqU89YrlEVrD/H9tRR+gxsx845vDiczht5Yv9k6hb24SlTOXAfZYEtsDV240lIhKcppJny4Fw2XtoGdYLy4QdQqoqXMmLP+lL5qC78EAprtlkSR52OUI/w8uNNpoxJO0tkhBBCTM2/JpiF+K+QFsxM/MTMJQpmxLIEnxBCiBlB9d8kEUIIIYQQYg5CglmIaYRlDfvtt58thRAzH5bs8EM/vNQqhBBCzAi0JEMIIYQQQogc5GEWQgghhBAiBwlmIYQQQgghcpBgFkIIIYQQIgcJZiGEEEIIIXKQYBZCCCGEECIHCWYhhBBCCCFykGAWQgghhBAiBwlmIYQQQgghcpBgFkIIIYQQIgcJZiGEEEIIIXKQYBZCCCGEECIHCWYhhBBCCCFykGAWQgghhBAiBwlmIYQQQgghcpBgFkIIIYQQIgcJZiGEEEIIIXKQYBZCCCGEECIHCWYhhBBCCCFykGAWQgghhBAiBwlmIYQQQgghcqhaMHvv3B9/OPfrr1N/OD6z+ecf54YOde6CC5wbPz45+C9wxRXO1avn3EknFb5jp2eeKaTrvfcK34vx++/O7babc0st5VyfPsnBaWDPPZ1bemnn7rsvOSCEEEIIIaYnVQtmRPEhhzi39trONWtW+XPKKclFM5FPP3Vu//2dO/1053r3Tg7+C4wb59w33zg3YULh+9dfF8Qr6TrzTOf+/rtwPMuffzr37rvOTZzo3CefJAengY8+KoT15ZfJASGEEEIIMT2pWjDj0UXgIRARh999N+Xz00/JRTORunWd23pr51q0cG6DDZKDswCLLebcDjsU0tWmTbCsVrsIIYQQQvwXqJ6q23VX5956a8qnZ8/kRA3AA/vyy8498ohzP/+cHEzBkgYE+gMPOPfSS8799Vfh+KKLOjdwoHPDhjm3886FY2neftu5e+917rnnCssfSkH4XPvggwUPbRbOf/xxYfnHww87N2lScqIECy7o3E03FdJ1+OGVBfOPPzr36KPOvfhiYQJSDOL74otCXOT588+TExmwFTbDdqXCAp4MPPusc0OGOPfZZ8nBDCxpYSkH1/32W3JQCCGEEEKkqZ5gRhQuu+yUz+KLF45fd51ztWs7t912U4Qtyw0aNCh4hJ98snCMJRx8v/zywrUbbljwynIdwi6CkGN5Q+PGzrVr59xGGzm38caFc6yd3nxz55ZZxrlBgwrHAKG51lqFpSLt2zu32WaFcIkL4Yy4ZKnEEks4d/XVhXXEXLvTTs41bepc//4F0crn6aed22QT51ZeuSDKd9zRuRVXdO7UU0uv2yaOtm0L6WIdM/ExKSDcJk2c2377Qh645ocfkpsS3nij4DVfaaVCXOS5UaPC0pPvv08uCtxwg3PLLVewGTbhf5aCZLnxxkLesdMuuxTSvvfezn37beE8/++3XyFd2IHr1lhjikh//PFCPK1bF5/MCCGEEELMQVRPMCOGEVDxE8Ujog4v6ldfFQQncA4xhziLSze4ju8nnujc888XRNl88xWOnXGGc5MnF+4/5xzn7rrLuYUWcu7kk5078MCCtxcQoazXRXQSHtePHu1cx44FjzFLIi65pCB4iZ+4HnqocC/xsJSkS5eCwCb++ecvHDvuuIInFqGLECcsxOT55xfEPR5Y1kx/+GEhrCzcx/2kK3qsCYP136SDvCy/fMFbjic5DQJ1xAjnttjCufPOc65Dh0I+SQeecmCtcrduBTsvsohz9esXJiLpddDYAi82eSEN++xTeCmR62+/vSD4CRcPNWHjrT/7bOeOPbYwGWIyAmPGFMTz++/ne+mFEEIIIeYAqieYWeqw6qpTPjVdkoHHE5GICO7Ro3AM4YfgZOkDgm6eeZy79tqC+O3btyAEi4FQZbcJhCpeVZYYILIRxOutV7iGZRdpEJDkhfivuca5WrUKopk0sJQCYfrmm87deWfhJT6WgBA2gnLs2CSQMnjiicLEAU98zO/gwQXxnKZTJ+defbUg7Jk4cE3z5gVxy9px6NevkEY8+U89VRDud9/tXJ06hfPAC4XYk3TiqWaJCPa78spCvlgWgn0Rw9gNzzqCulcv50aOdK5hw0I4LL256CLnLr20sDZbCCGEEGIOpnqCGQ9m9lMTWrZ0rlUr5+ae27l11y0cQ+zhYWZLNnafwPPLkokIyyOKgdeb9dRAuCwVAYQeHluIojOyyirObbllIX6WheBdBeJHPCOO8azecYdz555b8PriJSe/1fG4RnGN+GUJBfFts01hwpCGbeHmnbewdhnBe9ppU5ZaEB+2eeWVwvfVVnNuzTULnnmWbrBsJUIa8WoDEwiWoLAMhu3uyBfeaZ4MMJEgz8OHFyY+bJGHzeO6a2yIN3rffQvpEkIIIYSYg6meYGY9LOtt44dH/9NK+uU4BClCL66DRuRVBZ7SuJSA9clpoic3hlcMRGyMh/gJD68zQpp1v927F74jKKsLAhzwCqfzmQWvOEtJWHuNh5l113EJCpCmuJaYZRSkuRgI6yjoWfKC55gPHmviZxkH3nXWJt96a2G9NS9WnnBCYQ113CJPCCGEEEJUUD3BjNeXH+uInyhIo4BDIMZ1zawXZklBdVlyyYJXE/GXXutbSvQSN4IUWHsbr0P8su4X8OCWyy+/FF6u4388tKwFZinE6qsnF1SDmC6WT0TxTLhR/EZYG8167IMOKiyXwIYI2Ah5jJMBXoiME4RsWJTPwgsX/mYyg3gmrPjBe88PprDcZffdC97o+CIhtrv++sK9ceKinTOEEEIIIaopmEsRxRxLH+65pyD6EGyI3urCEgEELgLvsssKLxKytnmPPZILMiD+4rIOXpB7/fWCUEQMxpf9eAGwXBDcLG1ApLKMAo8sQpN0VJcoslkPzXpiJhGsr856cvFe4+VmCQprkhH6CNgIeWQnC/jgg8KabGyMTdgjO4L3OdqC9deEgy0Q6wh/Xo5EDGMX1kwz4cGLvs46hXuYGAC7hOCNZlePrLgXQgghhJjDmD6CGUGKWMOjzI4WbImGWOP/6oJXljCAl9TYao0P+yEXg6UGRx1V2BYNjygvu5Ee1i8jUBF9vFRXLqztZZ0wgp37EM38EAnfqwtpIe2IVCYQK6xQ2K2CNchp+AEWll3wgiHxseY5u+8z64kR4ExCDjigsCUcL0ey80YEYc2uHqyRxhONHfiw3IPru3YtTAjYw5n13sTD+f/9r7DmO9rpnXcKIhsPf1ziIYQQQggxhzL32YHk79LgzcTTyp7F/ER2FpZn4Nlk6cECCxR2X+DxPsf5ztpc1svyIhsCbNttCyIOEHCs12UPZbZxQ3izfhjvJ8sUuJ8lAwjGuEyBn8fGE8uaanZ2QGQTJl5gliuwVIGlHXvtVdiTmL8BDypCEDHNB7GNUCV+hC3LFEgnYpKt66KnmbjZOQKIk5fiSBtxEQ4iFxCYLIlgr2VEcUwXnnfiImxe6MOriyBmH2VE8PrrF74TH+nBzkwCyAeiG3tiD17W40VCXvhDKFN0hMF13MMEhX2uWaNM+skraWSJC/Zl+zheeMR7TJ6Jk4kAYpqXG0kr6SQM7ufFSF5SRIgLIYQQQsyh1PKB5O9pg2Dw8CKIEXeIummB8BB8CDoEH2FW9RIgYhPxiAgn/nLuKQVhEBaCGRFc03DIB15h8oLwLJWm9It9TE4QrsXAHohg8oc3vFS68PZzHf+TB65NC1+Okz/i5Rzrn4UQQgghxFRMP8EshBBCCCHEf5ASbkwhhBBCCCEESDALIYQQQgiRgwSzEEIIIYQQOUgwCyGEEEIIkYMEsxBCCCGEEDlIMAshhBBCCJGDBLMQQgghhBA5SDALIYQQQgiRgwSzEEIIIYQQOUgwCyGEEEIIkYMEsxBCCCGEEDlIMAshhBBCCJGDBLMQQgghhBA5SDALIYQQQgiRgwSzEEIIIYQQOUgwCyGEEEIIkYMEsxBCCCGEEDlIMAshhBBCCJGDBLMQQgghhBA5SDALIYQQQgiRgwSzEEIIIYQQOUgwCyGEEEIIkYMEsxBl8Pfff7vPPvvM/fLLL8kRIcTsyF9//eUmTJjgfv311+SIEEJUzRwjmO+++263zTbbJN9Emtdff921atXKTZo0KTky+/Hbb7+5fffd15133nnJkenLww8/7Jo3b+6GDRuWHJl5zOi8zQl8/vnnrk2bNm7ixInJEVFTPvjgA7fRRhu5kSNHJkdmL+6//363/vrruxEjRiRHhBCiasoWzN579+abb7pOnTq5Dh06uB9++CE5Uz2Y3Q8aNMhtueWWbokllnDzzDOPq1Onjg1mgwcPtvMzgk8//XS6dPB4Guls1157bff9998nR6uGAXv55Zd3O+64Y3Ikn8mTJ7vHHnvMffLJJ8mRGcc333zjXn75Zffnn38mR2Y//vnnH/fWW2+5MWPGJEemH3iVL7nkEte2bVvXunXr5OjMY0bk7eeff7b6RdnPCfz444/ulVdemW3q+Ndff+3+97//VfKC0jceeOCBrn79+m78+PHJ0ZkPtqS/+O6775Ijsw88JTr33HPdIYcc4jbbbLPkaGlq2t8LIf57lCWYGWQGDhzoWrZs6W6//Xb30ksvuT/++CM5Wz4M/Ndee6074IADTHD379/fvfPOO653794mKPfff3932223mTifVZl77rnd9ttv73baaSe34IILJkerZrHFFnPt2rVzW2+9dXIkHx4Z7rLLLmZv8e/St29fN99887nrrrvOLbTQQsnR2Zv33nvP7brrru6ZZ55JjohZCcQy5TNu3LjkSOis55rLJmxM3BZffPHkqCiXOP4st9xy7rTTTnPzzjtvcqY0Ne3vhRD/PaoUzHQyV155pTvllFPcpZdeap7hmoJXgo4K4fjEE09Yx7/KKqu4PfbYwz399NNu3XXXdccff7wbO3Zsckdx8I69+OKL7vnnny8560fkv/rqqxZnVeKepQiElV6SwGPwF154oahXj0fj559/vpt//vmTI1PAG8mjvvfff99sF1lkkUWssz7uuOOSIwVIJ2kkLvJVHYhr+PDhlbyEeERGjRpl9kR0F4Nr3n33XYszbx0fdmO5BssQmNDkTWS++OILyzd2qwoeiz/77LMWZjHKjZfyIpyqvPBffvmlCUPKJA/ioh6k1ylTJmuuuaY79dRTy17ziH3xCD/33HNTeeHIC087SDd5LFU3y8kbtn7ttdcsb9i/GISDHd9++21LV3Ug7dSv9NMk0ku7Isy85Q2///671a+q6g025ToEfLq91IRvv/3Wyo96WG5bIk7irqotlAu2otwp27z8cB02rI6HH8GMU+HGG290iy66aHJ0CpQvZUPcpTzp1G36TsoVT3E5UH4fffSR5SvvySLX4fmm3mb7v2mBcBgTCJe2k1ef8qBObL755u6kk07KbQvZel+qv49jDOWYHjuEEP9RQueTS+is/JNPPulHjx5tf+++++5+hRVW8F9//XVyRfmcfvrpPnQ6PnS8yZHK9O/f34cZve/Tp09ypDJBIPggOH3t2rV9vXr1/OKLL+6DEPU33XSTDx1gcpX3QRz4ddZZx88777x+oYUW8ltssUXFfZEzzjjDb7rppv7666/3yyyzjF3H/w8//LAPAtavv/76frHFFrMwjjzySB862+RO7zt06OB32mknP3nyZPt+yy23+I022sgH4eJXXXVVS1OtWrX84YcfbmmG0Pn6jTfe2MKKjBw50jdu3Njystxyy/lll13Wv/HGG/6GG26wuCmeBRZYwNIdJhP+p59+8p999plv2rSpD4Omb9KkiV944YX9jjvu6IOQMbstvfTSvk6dOn6ppZby8803n8UXhEASo/dfffWVDxMUszPpJN5u3brZtUF02TXY8qGHHrK8EH8YnM0Ohx56qA8iya6BIMr9Gmus4QcOHOjr1q1rNgyTquTsFEhbx44d/QEHHOAvvPBCv+SSS1rchB0GIzsP5cYbBip/zTXXmI0Ih//DRMvs0alTp+Sqgs2POeYYO9+gQQOrL2HC5z/44IPkCu9vu+02v/LKK/vevXtbOZAHwi63rmUJYsW3aNHC6jnX8//FF19ccY46x3HKiTxSrkFcW9uCcvKGvQiTMl5iiSUq0h1EfUVZE97VV19t9WP55Ze3a4JYsDp0zjnnmG2pX9xHHrfddlurz0FwWp2gDpJG7scO5LlHjx5mB8qaD2VD+UV7BFHlGzZs6Hv27OmbN29u6Sfc2Aay3HXXXZZ+0kB6jjjiCCuvNm3a2Hnyuffee/sddtjBvkfCRNDK7J577rHv9EXUL2yFTQiLtvzggw9W2DVMEO047SdCW9hrr70q2gJ26tevn19ttdXsHHz44YcW1+DBg+07UEbUSewZBKgdCxMEf8UVV1jdpn/k/1VWWcUHIW7ngfaObekvVl99dUvPUUcdlZydQrt27cwmlA/ponwuv/xyywtlQN/2/fff27W0Qb4PGTKkou8hP9tss40P4rIi/9jyuuuus3rANYTPh3qU7h+yBPFo5UI9Jr30LaeccooP4t0/+uijyVWFMjjssMPs/IorrmjX7rzzzhV9SjEOOugg65vT8dNGsNF9991n32nD9BuULXal/l122WV2Dtq2bev33HNPs38EW9CXhsmkfadeH3zwwX7BBRe0/GNPPoMGDbLzkFfvs/09Nr3jjjvsesLEnrSFIMQrjRMvvfSS79Kli7ULIcTsT5WCOcu0CGY6HQYSBrxihNm6dUB0PMVgkOjcubMNQgxoH3/8sQ2uDN4MbPDtt9/6Nddc0wZMhPn48eNNaNCh0UlGjj76aBOJjRo1MqFLp8YgT4dcv359G6BIJ4MAg0V64CPODTbYoGKwvPLKKy0sBmtEP3Eee+yxFufdd99t15AuBl46d6Aj3mqrrSwcrkcQko5PPvnEBqkHHnjA4qXDxS7vv/++3UOeERnExQSENHI/nTiD7/3332+D1JdffulPPPFEE2VPPfWUxclAz8DBYIDI5V7SToefFsyICwYWxN2YMWPsOsQXZcPgRTiAIGHQZXBiAGGA/uabb+xcGgYzhBP5YZCJ+UQYEDeDFZQb7yuvvGJlyYBMOIRHmTFJiaISWzHgMYAjwidNmmSTEerFLrvsUiHymDAx+GPTAQMGWJyUVTl1LQuiBLFMHNxHWAhyBlzo27eviQ3Cov2MGDHCyrF9+/YVk4Zy8vbjjz+a7R555BErZ9KHqKGs42SUOkHYCCzKBKGIwGTQJ27EAuWB+KB+kSfq0OOPP251gXbaq1cvywNxcA6RSF3iO8epywgZJtNAmSGUSP/+++9v+eS6KNrSUFfIFxMGyp00IFSJe6211rJrENrYHJumIa3UG+wJTJCxDWILW4wbN87aMuGTVsgK5ih6s22BtGOXdFsgj9STCPdSZkwWmYAA4p+w6Ddoy+QPQY1ojm3i2WeftXIkPCapxBmFeRryd8EFF1i9v/POO802hEmdpU3ThqijQBskvdRL0k+YiHva5T777FNRr0gf9YM6Tb2ivyP/9FGkObaHLExw55lnHn/RRReZ7ajPtKmsYKbvwXZPPPGEtTX6K5wBtPtSgpw6jMiPNgTaBPmhH6XekCfyxmQDO5JuhGgER0Xr1q0rTcpII2EQFlCWiPNRo0aZvUkbYwRlE0VwXr3P9vfDhg2zusSkhDpPWdMXY0v6nL/++suu428mPUyQhBCzPzNVMLds2dIEauzss9CRMRDSkZcLHmE6OjpqoBPHw3LVVVfZd8BLgVinQ48gmBng6PwiiAfu5f84yCN8GDAQJ5FigpkOGhESBx46dwZsOmrICmYGEQZcBt60dyRCR8wAx0CVJgpmPKUx/lJgTzp20gcIcdKAVybGSed+9tlnVwhm0n/IIYfYwPHOO+/YNcD1DHB4j9KDNYMEg2UcmIsRBTMevHSYCFjKGxuVGy/lEj1ZiJkIog17R1GJFzkKkzSIA+oBtoEomM8666yiwi5Ntq5lQZgjcqgH6bBKiRHytv3225topCzLzVsxqMfkA6EBeNfIPxOZYvniKQppRUilicKBCUqpdEeIA2GGqIMomDfZZJNKnrYspAcvN2XPBCHy+eefW5uormAuBu2ftoyIhqxgLqctQDmCmbxShtTxGBYMHz7c+phoYwQzAooJW55XF5i8Yds333wzOVKoR8UEM+k9//zzK4Qadtt6663N28/EjwkWNuWpGX1hhL+bNWtmT76KpYdyos/GG44IjmD3tGCmryNNJ598ckUagKd4tDXqRTGqEszkF+cJ/QYCthjlCOZiUD+oD9H7m1fv0/09AhtHB0980uMY99CWmSzHOkYfxBOL9NMxIcTsy0zdVi50wK5WrVrJt6kJ6bH/w0Bn/2fhfBisbE3q0KFDXRjE3FNPPWXhhg7TrmE9YhBxbsMNN7TvEAY8W7uWJQxILgyayTdnu1gQN29Fx3QuvfTS9sJX6BDteykIi7euw0Bi3+vWrWu7gJRaYx3Eir1Mcu+997rDDz/c8hQGm+Rs1eywww5TvYCGHcIgaGsN+/TpY1vpke7Q0dv5MMmxNZNhgKx44YX88jJnhGuxaRjI3GqrrZYcdXZ9GDRsrV4Qx8nRwv177bVXWS/QLLvssm6llVZKvjnXtGlT+x5ETdnxhgHL1qhyL+vfI4Sz1FJLJd+craFkzeJXX33lwuBY8WFLLOIKgii50tnaxDB4V6qb5dS1LKzLDwLJ1vmnw4p1gjCDMLG08RItLxESPvFwrty8AelgrSVr1XlpNoh1Ox7Thh0bN25suypQF4IoqWhf5cBLTjHdEeon5RDEhcWJXdL1KxKEo9mhFOSXNaK0tyA0k6POdn9It8dyIV/UjfHjx7t77rnH3hXgvQBsRFzFKKctlAvrtOl3KHPsEusa9QHSL+4RR5g0T9cXyCgnXgYkbCA/66yzjtUP7BIEnNW5LbbYwvrCCP0H9SSI0aJ1mr4rTNBtC7kwiUuOukplBuyehC2pB9g+3dbCBCJ33XMe5Gu77baztemk/ZlnnrE2Up16HMEOtDW2lCONYbJu9YP0pSlW79NgE94HYNeMtE24h20nySt1Cxo1amQvuC+55JL2XQgxezNTBTMdDAN3KcFBZ8OgHGbpyZHK0LkhLhFUvDz44IMP2lZxdHwROm06L0RQdSkm5jlW7Hg5kI68zp088CIlAysiic4VQVJTGAgIZ5999jHhwMsoaRGO3fm+6KKLlswTAwtlhOBPw/WUX1UTh+rAwL7AAgtYnOXGS/oRwuQhb2CjHmB7Brcnn3yy4oOoYlvEtHAvRjl1LQ1xMbBT70rVPV7QY79rBtYowBH0kXLzhgg8++yzTVQjiIcMGWI716RBkCHKeaH2xBNPdGuttZa9vJuuD9Wle/fuFudRRx1lcfKCXU3qA/eQTwRbXj7LZeLEiW633XazPF5wwQXukUcecaNHj85te+W0hXIhLOov4jJd11599VXb+x3BOTMhP0xYqKvYAJFJnVk8s7MG15F/7FDMVrQBPrS/PBvx8iBhIJzT+acNtm/fvmR/Xg44OhC5hIF4pv3gEKgOlA99a5MmTawOUz/oF2oC5Ux46YlHBFtix2lpY0KIWZeZKpgRc3Sun5R4859Bn46d2XsxGKDZw/nkk082DwFetYsvvriSd5NBOA7Iaaan0JteMBAhZthR4bjjjnP33Xefu+KKK5Kz1QNvDoPBJptsYlv1scfuzTffbLtzRBBy7HuNNyg9QKZFILak48dLku74uR6vLGHUVORkB2XKCI8Nnvhy4yX95Alxmr0uHT7XMMgfeeSRJu7SH+pQgwYNkiuLU05dS0Nc5ANxkq17wEDL2/aIO4Qz4fN0Ie3RLDdvCLELL7zQPPtjxowxAXD55ZcnZ6eA95At8bh+jTXWsJ1uXnjhheRs9UBgXH311eYdZRcW4rzhhhtq5CnFE0o+mSBlPcDpfGJTyjzbdvmevg47Ut/xapJXJjfHHntsbj0tpy1ADCNbHunr6HMID3GcrWukrdjTrelNNg+0I56MYWvKiHobPZ8RriP/iGtskYX7+eCZTec3ayP6MeI5+uijp8r/bbfdZk8SihHLNs/+hMtWnEz+sSXpPeaYY5Kz5YUxYMAA61upvzzNon6wG1NNwB5M8mmjWUgbdsx7uiKEmH2ZboKZTouBtJhYiPCoFo8Fj6Kzg+Cnn37qLrvsMnuMVWpDeR4rMojy4x/x8SMdV7qDxAOGOEl73Bgo+vXrl3yb9ahdu7aJGR6hYwdgIODDI/xy4LEqtkdERZGcFSQsL2FwwzbYCDif3usZ0YqIoyzTXhjKjUFrxRVXrPHjZER9estAHpszeUJolBsvH5bMUBf4RBgIP/roo+SbM28S1yJMa0I5dS0LSzGweVweEWECg+CijEhXFOuElV7OUG7eYh3B4xYFfKl2Rx6YqJ5++umWDzzsEPOU117TUG7UmY4dO5pgAB75p4VkuZBmltlgDyYjEfKMFz+C+OCJA4KNuID6yuQg3S6oVwjWTTfdNDlSeFqVFlFZ0m0htpFsWwA8iYgk0hbLngkcdTeC95N+i2UmTJimB9iIPrKc8LiOJ0qxLGgz5IslUJRVXArFJCe9RAznBZP11VdfvaJM0+CRpt0RVrQ/ZOs32y5STizRqU59qFevnpUtQhOw7x133FHRN2VhCRsT4FiHgb4z9n1AGHik01BW5IVlV3ECxMS1JhAfYwxhxnQD+Y79FEuLII6J6T5YCDH7UqVgZtBh/0s8bXzoYOl0zznnHHtUjUAAOgsGQY6VgnVoeH7uvPNO67xuuukm6yBZloBoorO79dZbbSArBo+yGUiuueYai4//s54CHn+ut9569stsDKyEt/vuu1s+Ymc5K/Dhhx/aPtSsL2UAwvvBI13yCHgrGdTvuusuywOeQh4FlgKxvdxyy1k4eNvwxhx66KGVRANCmrXPPNLkkT6P7A866CAb6KPwQmCxTykCtnPnzrbnK14ifhkL7x2P47Nrp8uFQY1Bj7JhAnPCCSfYYM4SknLj5bojjjjC0svgSR7w3LLMIuYBEAh47RFAxION8Sxhn65du1Y5iJVT17K0adPG2gDilDpN2tg3F48YoqtZs2Y2GaD+88ia8BDDkXLzhucYcU37IRzy2K1bN4sjcsstt9hjaOJ64IEHXK9evUxUIm6AQZ12xuQVDxxx5dmEtCM6mNSylIQ6yXKQmkA+qXes7aSsqds8WWFCna7jtNe9997bJirkhfqAF5P6GieFwJpaRBZtibqN953lJ3mk2wJPZmJbiOuOIwhm7I0dWfJEPaAOpz2yeBT59TgmFZQ33kzEKfmiHNPr5cuFtdzEQbmRNta258HTEGyDjbp06WJLUjp16mT1hDyQPtYy09Yob54+sVyCNslTrnT9imB/rmGyRpuJcVC3qEsRxDITKfqcM844o6KtUaakJT0pTEN7YUJA2PzKK2XMfdG21EfsR3tCjGMH0h37SGCShICmDMkXP/ZC3tNQrxineELEWEYdZklUnDRWB+xJ30m6d955Z2uD/fv3tyVBPO3p0aOHiWrADtRN6o4Q4j9AEFS5BBFrW3uxe0H2w24ZcVuk9957z96mTr9NXowwE/dh4LG3qsOgZW+R8yY1b3WzHVQeoQP1oWO0rd+4L3SctqUU/z+fbE0GoQO1t9YJPwgw24uYN9aDkE6u8PaWPt/TbzDz1ncQWraDQIQ3nslXECbJEW/bNbFbSBjc7XvoyP3aa6891dvQvDXN9nLAm+q8zc02cRA6XNv1gLyTF/LEG/DkMcI2YGyzFvMaOn17e5833nmLPEvooG03Ba7nbW12dQgdue0dHAkDpO3DjF2wD2+Zv/jii7aX69fJzieUOTtBsC1ULCPCJZ9pgtiwrZnY7SKP35NdMnhLn31fwwBrYbI3MvEQH5Qb799//237JsdwqIfYKogv28opEkSUbffEriJcR5jcEyZ1FW/Cs4sEuyWkd6WAcutaFtoBOw8QFx/ygp3gyy+/tDfuOR5EjO0Owp7F2CbuUlBu3oJIrihr/h8yZIjfcMMNK7YxDOLNyjTakV1GgoizcxF2T4n1j7pKfaYuxHLJwj7fQWTb9ZT7qFGjbLeWIGbsPNuVNW3a1Pb7LQe2QKQfITzqK3Wa7fTiLhkRdl+I9ZUtBydMmGC7N5BnCILMtkuMeWFv31iP2GEESBvtmDKI0J7Y8i+G3apVKx8mApV2yYAwqbGwCJv2eNVVV9m2b/RZ6XJj+zC2WOQ6PtQdwqftQ5j4FS2HYlAW9DGkiw9lRfug/YRJWcVuF0Fg2m46lA1lEuNlhwr62gh/U6/iHsOEyU4P6e0yi0E/xZaF2JZ72PqPvZ/p79j1I8J17GgR6y3XEhe71ND+i4HtaAO0Ba5n9wn6XuoQZYtN2ZEjnWbipW5HsAM7IFGGfOjv6KvZISTdL5E2zhMOu7iw9zl2ZEs4yKv32f4eqLu0O9LEh3KPe0cDZUVdomwYe4QQsz+1+CfRzjMVHqnywhOPskKHY7sAlDPjJ7k8xsMzgncydIDJmcoQPtfhdQsdW428CTOaMCCYDchL6MzNo5z2gpNXzuMd4Ryeojy4nkeneOTwUONBxJuXBZvjbeJ6vNLFvEuAFwXvGNdRPpRTsfCqAu8f3hjSxpvu5IdH5pQLYWYpN15ekCSvPNoNIiE5OjVcE9cXBoFmti4nH8RfTl3LQn7T9k1743hcziNkjnGuVDqqyhthkyee9pSqG3hrsSPljR25Jh0f9Y8dHkgT+avqyQFx8iibR/mkKxteTSD9hEldDWLLfg4ejyaPsiOkk3xg16w9I6QNm5MX1swWu6YYeDGxQRA4LkxObNcRnvywVCj9shp1gDRQFuS9FFxHnQGupR3W9MlWuh6Rp/QThAheTJ6gsXMJT9bIC/U025dEKDv6FNo87a8cO2Eb8o5tS9kfSGest7Q17ERby4OwYx3E/sXymE4z9TR7TezPIO50lCXW9ViHii1BqS6MMdiFNkBdSbcf+rcwAbAnBXj9008khBCzJ/+aYBZzDlnBzGNNIYrBUq2sYJ6ZIDyLCeZZlbRgZgcJMWvw6KOPuoMPPtiW5rB7ixBi9mfWWdQrhBBC/AdgO0refYjvDAghZn/kYRYzHB67shsCj79btGhR40fU4r8P9YRH3eyY8m/AEhF26uCHQMpd1vFvwvIHXorlZeeqlj8IIYSoORLMQgghhBBC5CBXnxBCCCGEEDlIMAshhBBCCJGDBLMQQgghhBA5SDALIYQQQgiRgwSzEEIIIYQQOUgwCyGEEEIIkYMEsxBCCCGEEDlIMAshhBBCCJGDBLMQQgghhBA5SDALIYQQQgiRgwSzEEIIIYQQOUgwCyGEEEIIkYMEsxBCCCGEEDlIMAshhBBCCJGDBLMQQgghhBA5SDALIYQQQgiRgwSzEEIIIYQQOUgwCyGEEEIIkYMEsxBCCCGEEDnMMYJ58uTJ7ptvvkm+iTR//PGHmzhxovvnn3+SI7Mf3nv37bffuh9//DE5Mn0h7KuuusqNHj06OTLzmNF5E/8+v/76q/VPs3MbFEKI/zJlCea//vrLPfDAA+6www5zu+++uzvllFPcBx98kJytPr/99pu7/fbb3SGHHOLat2/vDj74YDdo0CA7PqO46aab3Jprrpl8mzbOOOMM161bt2qlF7Fz5JFHussuuyw5MuswfPhw17hxYxPNsytMiLbffnt3/PHHJ0emLz169HA9e/Z0888/f3Jk5jGj8/ZfBzF69NFHu169erm///47OTrrwISIydi6667rvvvuu+SoEEKIWYkqBTPexwMOOMB17tzZvf32227ChAnummuuca1bt3avvfaadfbVYdy4cW7LLbc0kfz666+7SZMmuVdeecUddNBBbquttnKffPJJcuX05c8//5wugpzJw9NPP20fhEy5/PTTT+7JJ590L7zwQnIkn6+++srtvPPO7r777kuOzDjIE7apblnOavz+++9WX6c3r776qhsyZIjr27evTSz+DaZ33j766CPXrl07N3LkyOTI7A82YlJ6ySWXJEcKIJhpryNGjJglBTNQtqT/vwa232+//dyNN94o77kQYramLA9z8+bNTTQ89dRT7plnnnF9+vRxX3/9tbv88surNQDxWHmXXXZx77zzjnmsn3vuOff444+bhxMx8vLLL7u9997b/fLLL8kdsx7zzDOPe/jhh92jjz7qFl988eRo1dSvX9+9+OKL7tZbb02O5INHGtuMGTMmOSL+LRZeeGF355132kTvvwITVerXp59+mhyZ/WFSTB/10ksvJUcKLLHEEu7555830TbvvPMmR8XMgInAsGHD3BtvvJEcEUKI2ZNavgZuRcRys2bN3FprreUefPDBsh9T9+vXz5ZhXH311e6II45IjhbA+3DyySe7K6+80gTptttum5yZAtcgqh955BH33nvvmVhfbbXV3IEHHuhWWmml5KqCp2ngwIE2eHIPnrTx48e7888/333//fd2DZ04xzbZZBN3yy232NrUtdde2x111FFuwQUXtCUijz32mA22eEg22mgjV6tWLbsXry9xI/4R0Hje8bbvtttulkcG58UWW8zu23TTTe0e0nTHHXe4ZZZZxm2zzTZ2DK/zgAED7Hq8vOutt57ZBxHDtSwB4NrNN9/c1alTx8JjACJvW2yxhYl27m3Tpo3dR35IG4MTgnvFFVd0e+yxh9t4443dXHMV5kbY44knnjAByDUbbrihXdepUyfz7pM+wE4sm2Eyg5eoQYMGthynZcuWdh5IJzairHr37m3LdPDw8fQhDbainiywwAKuUaNGNml49913rcx4esFSmWjbcuKlyn744YdWbky+VlhhBbfXXnvZkiHqJTaFWF/IKx7VJZdc0pY27Ljjjm6++eazayh36sJ2221ngmrs2LHu2GOPtXpRTl3LwlOHe+65x54mUL6rrLKK69ixo+WRieBDDz1k8X3xxRduoYUWMhFO2rENlJs3JlL333+/GzVqlNlp5ZVXtnjWWWedCluSl5tvvtmupT5Slzp06GATt7vvvttdd911FjbtePnll7dzX375pdWhHXbYwQ0ePNi9+eabNondddddKya61HeeSFCW1Enuhx9++MHddtttVv7YjvpJudGmaCdZeIpCHDxhiuHtueeeNkGPMMmmXAgPG7Vq1crKIJZfhD4Jm7Hkaemll7Z0Eef+++/vFl10UYtn2WWXtbZCW8AGn332mZUzbZY2wwSY+zgWob3de++91maYZDDxpQ5R52MasD91lv6G61dffXV7goZNi0FfcNddd5l9KG/Coo6xbIx2UbduXbuONc30Q3jGuY6ypb3ENloMriNv1HnaJ/0X/RR1nj6G8KgLPL2KfUJsn9Rd6gOwNIR+hriZiBD3vvvua/URfv75ZztPnaIOUhcpQ2xDfWFiwnGezFxxxRXWduiHsR/hAPWFdNLWY39FWjfbbLOKtHGc/oJ+jmMsW6Gvoz8E2jX2J/x4jxBCzBBCB1ttQiflQ0fs27dv78MAkRytms6dO/swePkwgCdHKvP000/7MAj5IGyTI5UJg6cPg6oP4sCHTte3bdvWB7HuwwDnQ6dp14TO35911lk+DJa+adOmdi4MED50qL527dp2DRx99NE+dNA+iBAfRI0PotLiDsLJH3TQQT4Mun6rrbbyYRC1vI4bNy650/sw6PoNNtjABwFk34PI92Eg8aGz98stt5ydJy7CCIOWXUPaSXcQBPY9iDlLZxABPohVf9xxx/nGjRv7//3vf75Pnz4+iDsmMn6RRRbxSy21lMUXBJj/+OOPLT1BRPowsPogyM0WlEMQX3Yt6QhCwderV8+HAcoHIV0RZxBzls8w6PogxC0sbMqxIOLsujAY+jAQmm2DiLdwwwBlaQ0Do4UDYZC1NBAf+Q/iyF977bV2Lk0QCD6IAh8GXcsX5RIEv1944YXt74kTJ9p15cYbRLUPkxsfBKeFQxjYibqFLYFrX3rpJUsf12JrypN8BmFSEdb1119v4WDfIIStvgQBVVZdy0KY3bp182Hg9mussYaljTLgfwhizuoiYQTRZ/bg2h49eli9hXLyxjWki7pGPeA4dsK2tE2gPpAnyv+EE07wQQj5VVdd1Wx93nnnWblTv6in1JkgqHwQTP7xxx83G2299dZWf4NANduRPsokiEAfJmH2IV1BHFq5Ae2adGJn/g/C2WxH+Weh7VB3KdswabO8khbS9eqrr5otuYa2RL66dOnigwg12wRxnIQyhSDsrT3PPffcVk7kibSSpiC6zI7YKYg/u/6UU06xMmrRooVdR1sgfsonCHiLn3SHCaAP4s/uD5MIszl9C/Um1qGLLrrIrsHGxx9/vPUnQaDbuSxBtPozzzzT0sl11AVsRbjUlSCS7TpsSt6xR5hw+MMPP9zKGJtGexcjTGgsLZT9aaedZtcvuOCCPohOS28QrdYmJkyYkNzhfZgkWfxhwmTfqQe0acqXeortsSe2CiLXron9UBDHli7KkvZDfaYPIK7+/ftbnjhGGgiDugHEQd2lrlGm9A9cS58QJql2P2UVxLHZ59BDDzU7NGnSxIcJgYUBpIl0xH5WCCFmFDUSzD179rRBo2/fvhWDRjkwKCKsokDKMnr0aOsw6RiLgQgYNWpUhVBl8Ln88stt0EUcwVtvvWVhMDgysJA+hDiDRFYwM2idccYZJkQRBEcccYR17nTen3zyid07cOBAuw4hESkmmGvVquV32203E53c98wzz9iAg9iArGBGdK211lr+gAMOsLi5h3QwkPA3tiBfiKnffvutYqCPAxV2fOONN+xa7ABvv/22xQMcf+yxxyoGSyC9iFpEDgMm1yCwEEVpwYygJO4bbrjB4uW6Dz/80O5jgIoDNoKZ+9Zff33/+eef23VR+KWJgplrL7nkkgp7I0wZ3LEflBsvYgVRNGDAAAuH8C6++GILPy0qmQwhwL/77js7hm0Z4CmHSZMm2THCQjgy4CMcYh7KqWtZEGfUMyZcse4h7kaOHGnnqVNcE21EGqlHiCbSBuXkDdu8/PLLdn9k0KBB1iaZEMHrr79u9f3RRx+176QFMUaYfF544QWrG7fffnul+hUFM3UztoGYXtoW4hM4RpzYg0keRMGMwH3uuecq4iKMNBzr2rWridOhQ4da3Bx7//33rWyiMBs7dqxdgyCNxLpTDOo+IhSxR56od8RdSjBT7rQ/7uM6hDrl17FjRyt/xCe26N69e8UkiTqCCGUiQlsEJhcci9dQlrHeZPnqq69M2CO+SRd5oSyZnKUFM22DvFN+pI3PsGHDrExpH8UgzUz8qcuxfnOMPqdBgwaWdvoz6skdd9xh5yGWOXEST+/evc1R8MQTT1SUH39TttRLiP0QbZPJCteRNyZl2AIbxGPEjeDHPrFdI6qZFDKGxHKivq277romvLkP+xA+7Sn2cdg1PQFjEoUIj3YTQogZRbWfYfHokqUNoVO0x6fx8W85hM7Olm+EDjs5Uhke4wXBWvLlF87z+JcweDzKY20ej4fO1r4Da63DIGGPBVl7SvpY0nDiiSfa+TR16tRxoSN3QdhavEG8WNrYBYTHg9zLMgmOhY4+uas4YSCz5SQ8LuU+Hh3zCDiIgOSKyhBmGCDtcSRpDmVh6QgCxO4nrxDEelGbsbsItuBaroE11ljD8hREhQsC1v4OA6HZCXgEymP6IPgr0on92PEjgu1YT87j8SAwLF6uY2kEj455aTMMfMnVBbp06VIRHnYsBcsSeDwf7c1jYh6f85i/3HjDwGmPcSkfHvESDuERLssfIjzaZrlFGEzNHixXYReQMGmzR/HYIYKtTzvtNEtLzEM5dS0Lyy14LM1uFrHuUcZBANp50tykSRPLQxAEttwgiA577BzERdl5wzZhkmKP1ilT8kP9I21xlwW+U/YsveBFXdISxKCFGfMHperXoYceWtEGuB4oP9IThLrZg8fznGMZRxqW0FD/Y1yEkYY0s2yFpRdt27a1uLmOPFLWLE8gTNoCduRdB8ofG8W6UwzyFNNLnsh/Nu40Qdjb7ie0E67jsT5pYMkJ9ZFlGITDUheWaQF1hL6EusRyBaAMw2TBXqDkPtIdxKCdy0K9pOzpO4MAtbRih3322Se5orAWm+Ul1DfSQ/nxIb2klZeli0GdDpMaWxpGX0udx45BdFp6+ZvlWdSbMMlJ7nK2NAQ7009SB1kSx9IJlpRQt4h7ueWWs/rDEqU0LBGhnZAP7BDjIhyOUQYQy4SyJn+0FeoPy4BiOVHfWK7B0jDsRN0kreSXMiFM7BrDBJbrsBaftAkhxIykWoIZIXvcccdZ58c2SHSy1YGBhAGFjq8YhM+gyEBSDEQlgn3rrbd2q666qnXUcV0vYgEYFOiUEatp6Kyz0EmnB9Q4KEYBCnTOhBfDLwXhYJcIYXBvKaHN4H7uuefa2ksGKtayIvDKJYqVNITFgIMoQ9wgFqMYA4Te5MmT7Xz63iiegIH2448/dg0bNqw06JM/jnF/DA8Ih4E9bcdSYMf0dQywSy21lAmIcuPlfwZwhDTiKcJ16XJjwsD1Z599tq39jR/ELKKWcCKki3SkKaeuZaH8GOARF8XgPtapEh7CgvWYrHUmLig3b4AoYX16LOu49jSmjTI55phjbBLC+tMTTjhhqolOHtn2A6xR32mnnUzEEScTHsJM1wcodm8aypq6iEDKQr2mzVBvCYcXi3nRGFGJ/SnX6QXlnq77fEcQM8Gij6Is6IuYfKTBtvRl1Ffg3QvqBet3mZBRb0qBGKS8Kbc0xB3BpoTNmnEm7LHuInZZl0z9LQblQx1i28t0nb/ooousXpBG6iaTGWxKPExeWGfMmmbKg3zTHpkA8H5DDIN3OIg7u+0d9TLdprELccU6XQzioJ+mzaXtD6SBMEkD/TF9JPnaZJNNbBLJ+n4hhPg3KFsw8wIK3gA6L7xgeGOqCx4LOmg8VMVgMGGwzA4mEQYROk0GBbaO4qUTPETZThdKiZo80h1/pNixcqnq3pYtW5pH6JxzzrEBAq89npeawCCP14oXjxjABwwY4G644YZKwisOYti4VNriNVkRBNyXHSCnBeLgw8SiuvHm5QE4h5hngscLlPHDC1zPPvusCYA8qlPXgPTHT7G6x7GLL77Y0oPQ5CVJXkQrlo6q8obXjxejEOjdu3e3F+0IOw334zXnCQZPW3hxCqGECKwJCCWeauDFZBJCnGwvGSeZNaGYnWLeEZCUHxMBdr3gRUzKjTZCHzSjQMwRd7R/rJdpuIa0x7wj5hG3lAGTfto1ZVuMWEeK1fM0xM8To3Tdpd/Fw4v9i8E9fLp27VrpPl7Iw4vMpI+2xgvXCFZe2MWmTLR5kS49iaYPpg9Jx00Y119/fXLFtFOs/LEt9iGd5IUJKx5mJgGUO09rSLMQQsxsyhLMeDQQYTyiZJDkkX4cUCJ0cgx2xTrBCJ3dzz//bG9xZwciOkreNKfTZmAvBt44OnqWPnTu3Nne5OfRdLqjx2tBOvCGRBicePw9q4EN8aiddNJJ9hY4nizeno9wPs+eaRDeiCNEHY+MedS96aabVvJc4dFlkGeZSBywKQcmMRGeGuDhxMOUntiQDh6V40EtJRqrAg8XZRPBW8hj46ZNm5YdLx4sPI9MrtLeLoQK4Ueil5PH2LzJn/4gNgknj3LqWhrKCoGDLUlbGvJM+vDk4a1DgDP5RAywZCNSbt7YMQLhet5559lyDQQ43sAsTDLwSrIrDbtl8Fib5Q0Q22+59YvlBzwm58kSO6EQJ8KQOKoLZc0j9LjMIkJdxIMYz0ewK3lF+DFZwI55lJsn+hy8rLEvws7UR+oMdQ1vLJ5uvPkRrmWiwr142SP0O3j0mfBSpojMYtDesT1hxHj5n34xwhMWvNjUGzyr2fpLOykGy5l4ksYkmbqVvoeJRqzz9N+Ez6QNIUya1l57bTtHf8HyKtLEPekwCLNU3HmQX8KL+SUOPPks60k/6eE8fRNtjPRFeMLEJGDo0KFWRkx6I9Qf7BTDFkKIGUWVgpmBmjWqbDXFNlQMzAwgfHisGgcnOjpEBY+AS4GHCkFA58e61XhvfIzIekvEXinvdXxUj0cEEBWXXnppJTHBOmQGO7yreF2Bv9mibVYCjz3imIEX6PTp/OMyF4Qt+WBgLUcAMFAiXqIHkXB5/M+AH0Ew88MbTHwQBsDkhTXbEcJhSyzC4XF4TB/XMWAxmUl7rasDgo1fXKPcCBchh2BhHWS58WITPKaIbdZ5Yhu884ja9Hpx6hAigLJHcEcIl8lFVTYtp65lYes17qN+cz2DON5RloEgGshjegkD9mBLtUi5eYse+biWmuuyHk3iTf8oCUKDe+JyJ2xJfSH+cuoX9ZE8xPrFsgqEP/mpLkx+WOeM55A+hTIhDWxtRr+wyy67mGhjyzAmLtFe5IE0lFqviv0IGyEe234etEF+MIm+DNsgxLAzS5koK/7HWcCkKQo7yuzMM8+0yT9PB2i3CPlYX0kreSEdxUBkkzeeWCCSuR5PLm01Qj7w+JJ/RG3MP2lkopQW8GnwCrP85tprr63khScPTLJiGqk/CGAmTwh8BHT0liNmWXbDpI00xXuAsk9P5MqBOoYtyUsMi/wxoacPol+OdROnAfklbSxbYvLJeuqY/9j20vvfs9yE+kJZCiHEDCV0VLnwBjlbDnFp9hM6WXvzGp566il765ktrPLgTXTehA6dpm2jxhvxYQC0t7Ljm9SlCOLFN2/e3LYn4k12/mbXgzp16thWRBA6ZduWjrSQbt6yXmmllfxJJ51k22RF2CopDFy2u0MkCFh765+30SPsIlG7dm0fBpbkSOGt+JYtW1ak9ZprrrGdAT777DP7HmHbsLgrRnyDn3QD4ZIudgUIA4QPEwnfsGHDih0YwiBi2zyFAcyHQda2XgoDiL1JTlxxZ4kI17MLQBicbAu0MAjam/jEyc4UEAZyHyY+Zj/yRJjYnd1BeEP/i9S2csRNWJRRs2bNrLzIcxAjdg1g8yDwbceFPEgbu2SwswDlwTZe/B8GbktzECN2XbnxhkHbdlzhHHUJ2wVBbbt17LfffslVhbrG7gjkFRtTbqShdevWtosCsIUfeWBXiTTl1LVinHvuudYuqHukjXqIfbF9EMFmb3bGYEcVyoZyohzIO5STN67hPvJFOEG4WVmTVnYdgCDC7Hzcso0dDigD6iFgc3YXCILGdsTgGuoz7Rj7s41fGuzFlovYiu0kKRPqNmVJXBDEnMXJzi5VEQSt1VPip4xIA3kmjphG6hX2pv5znL/JK2VTCnYyoV6x60SDBg38O++8U7HbAlstBoFr17FLRhC1tqME/Q9bzJEW7BDDJ8/0E+SZekO5YUfSO2LECLsGm1FO2AH7Ei/9Stw5JAv904UXXmhhUkfY7pKw41aWcbcHwqXeUX+oezvuuKP1J9SfvPpHvPQr5In0xDrP7hn0HxF2xsDepCMI1eRoAeoG6aEe0AaDgLY8Euazzz5r1xTrh7AtdRRbUr4QRK7tREI/Rj2nzgH5Y8tB0kB6ySPthvL9ONl9hP6UPpG+gPpNPvib3Wsi7IhCurStnBBiRlPlD5fgLcGjEWf5afD28CgSLwKeFjxeeK7yPJBEh3cKrx/rbfGyBNFo3hwe0+HhKAX38rgeLxSPbvGE4EVkuQVeh9DB23V4MvAi4p0Inal5IHi7nHuJA/C84jXi8SvpBzwxeFC4By8MkG/yT/jxkWb07OGxxQah87fweBQbwwLuCwOC3Ysd8YIQLt/JC4/8SSPeF7xDeOhJD2ECtsGzzzIFdg8IIsXuI1w8hWGws+si5Aeb4k1i+QAvEmJrvEfxWtKBp4hdCsgbb9Tz6BnbRFsQB14fHsGzZpLreDGRF5DScXIN9sIO0V7FwDPES0VcixcRryFh40kKA6WVG3kuN16uI194yvnBGJae8Oia8uNxLvaN11Eu/FAIHle8vyxRCIO/LX+JZYcni7xTVhHuLaeuZaEdUJ54HUk/66Cp31zPdzyE2B6bsSyD46Q7lnu5eaNusAaVH4fAQ8iTFfJKvSCftAHsiAeResHjdfIePYlAPWbpAPWJdJI/yoo80l6yy1bw2lIuPPUIwtLqI7ajvRMucVLHq+oDIqSLdsqODeSdH4/hZciYRuzFEgyeMPA/Hl3iJezYRrKQfuoXy5PID/miTyGvlG8s91NPPdX179/f6gVpiG2G+pZOO3mi/LEjdsGGPO3AzjEN2I+ywN4si6CuUJ6llu8QJp5s2jZ9Bm2QOGMfwn3UA/JC28fm2D6IRUsf7bVUP8l9tDNe6qP+0G6oP9gCr3dMcywrvsd2n4a4qcfkm+t40ZO4eQ+FuCmbbD9E3NQH2gB9aMwH5Uy752VI+nnqK9DWY/5oh5Qt/QHhkS7uZdkG53lqQB6oI7EMuZ/rWdLFE5a8PkgIIaaVGv3SnxDVIS2YGcjTok2If4MomJlwIFLF7AXDFi8g8mHCVb9+/eSMEELMGMp66U8IIYSYVeDpD+v8eV9AYlkIMTOQYBYzHB7NsrSAR7HZR79C/BuwzIcXz/S0Y/aEZRksP+MlWSGEmBloSYYQQgghhBA5yMMshBBCCCFEDhLMQgghhBBC5CDBLIQQQgghRA4SzEIIIYQQQuQgwSyEEEIIIUQOEsxCCCGEEELkIMEshBBCCCFEDhLMQgghhBBC5CDBLIQQQgghRA4SzEIIIYQQQuQgwSyEEEIIIUQOEsxCCCGEEELkIMEshBBCCCFEDhLMQgghhBBC5CDBLIQQQgghRA4SzEIIIYQQQuQgwSyEEEIIIUQOEsxCCCGEEELkIMEshBBCCCFEDhLMQgghhBBC5CDBLCrx9ddfuwEDBriJEycmR4SYdfnrr7/c0KFD3TvvvJMcEUIIIaY/ZQnmv//+273wwgvuiiuucOecc47r3bu3mzBhQnK2+vzxxx/u6aefdpdffrmF17NnT/fMM8/Y4DejeOKJJ1y9evWSb6IY//zzjzv22GPdlVdeWVZZ/P777+7qq6929957r907p/Ppp5+6Cy64YIaLN++922233Vzr1q2TI7MupPWoo45y66yzTnJk+kGdu+qqq9zhhx/uJk+enBz97/Ltt9+6lVde2V188cXJETEnMyPb1szg1VdftTGZsVmI2YEqBTPCiUbZpk0bd+GFF7prrrnGHXPMMW7TTTd1H3/8sTXa6kCn365dO7fNNtuYuLj++utdjx493FZbbeU6dOjgfvzxx+TK6Qvi7ueff06+iSyUI546JkZ33HGHq1+/fnKmNN9//7279NJL3U033eT+/PPP5Oi/C2VM/ezfv39yZPpTKo7nn3/enXfeee7hhx9Ojsw4fvrppxnWVqY3pHVGtD2ehlx77bXu5JNPduuuu25ydNaASVPHjh2n6+SJCQJ2/OWXX5IjYlro27evO/74492vv/6aHJn9mN5ti4kn4/3MELGMGaR/Tpjsiv8GVQpmvMtLLrmke+SRR9x7773n3n33XXfZZZe5zz77zLyL1RHMDPCIYkQZImv06NFu3LhxbtSoUSaeERp4ixC3YubCYIznn+UYjRs3To7mQ71AZDOJmm+++ZKj/y6IiXvuucfE64yiVBw777yze+6559zBBx+cHBEzEvoTJttHHHGEm2uuWWt12UcffeTuvvtucyqIWZNhw4bZ07HZWTBPbxDf1NsXX3wxOSKEiMx9diD5uyjzzDOPeZcbNmzoFlxwQbfQQgu5lVZayfXr18/VrVvXHg2XO1jdd999tgzj3HPPdUceeaRbZJFFTGgttthibuONN3bjx493AwcOdNtuu61bccUVK5aC0KEhziJffPGFGzFihFtqqaXc/PPPbwKbxzt0frfffrudq1WrlltuueXc3HPPbfeMHTvW3Xnnne6MM86w70C4iPSbb77Zvfzyy/Z4iEF4zJgxbvnll7dr8BAxScDjGsNiVvzss8+6xRdf3OwBTBw++OADi3/QoEHuzTfftPwts8wyFeeZGHz55Zf2NyKTMPCMkYcsI0eOdF999ZVbeumlLS/Ad/KGLRZYYAE79tprr1n6sS2TGNK98MIL25OB4cOH2+ydcophMIC/8cYbFbbBxm+//bbZgbA++eQTu2fZZZetEMGE+8orr1h+8D5TRpwnHQgD6gi2Iw6ENxOhu+66y64jTCAfXFcKlvg89dRT7rbbbjMRTpyEWbt2bTuPN4L8IFbTS2vwMr700ktWP7EtS324f9FFF3VLLLGEhRvzSr4I45ZbbnEPPvig++abb6wOkS+gPjCIYluWVzCpwy7kCbuS/rw4sCV1gDKnrUQodyYi2OTDDz+0ekOZRNuTFvJNfcjaHkjXQw89ZOVMOXDvo48+aseZYEYmTZpk6b311lvd//73P/fdd99Z/qgPpSDtpAGbPv744+Z1Y7DE7rHuAnWWOk3dpg5Qh7Ap5RrbBTDpwjuF7Wi72IjwiIflPhGeTsS2R74p32hjoFxpk9Qx7EaZERcf+gni4H7KiWtpn7Ec0/z2228WPn1Eut5QpvQZ1DPupe5St7AbaeJ/yoI0xbJATJAnypzy5zryt8IKK9h5IFxsQx0h3iZNmli4fKI9+Zt6Rp4IhzaEvSnXCPamrgwePNhsTl0l/ZTP+uuv77bYYgu7rpz2xjWUHfEx0cNm1IvYtrIQ9/vvv2/lTPyUH8ewUwyT74TDNdRt6hD1jHBjX5OG66kD9NE8maEezzvvvFbXGT/oc0kjNuJ4hPKhHpAfyoG80J6wCX0tNqpTp459YryUK3Wfukj6sQtPNhm36GuxP2WDE4jwmzZt6j7//POK8WRG2JS2Trpom/TV1GHKm74AyD/poR+gHdI+sHe6HymnbVFHGSNIO2WDrejPsGu0D/WaOAiHPpd+hHrOuEq9HDJkiNU1bEG9o4wYF3EGkD/SwLJMygObMi6xpJK0P/DAA1afabeUSQR70S5i/hmfKGfqzh577GFlAKSFtsN1hEXeiBM7xfTTlnFW0BawGWVNGqOtsB19AvYpVheFqDGhI6s2oQPxYXDyp556qg8dQXK0ag499FC7L4jQ5EhlwiDlQyPyl156qX0PFd83btzYH3jggfY9EhqTXReEkn2/6qqrfOgU/Morr+x32GEHH8SLnQ+i1IeGatcEUWLXREKj8506dfJhsPehs/ChQ/GhQ/S77LKLb968eXKV9wcffLAPA6IPQik5Ush/6Dj9Y489lhzxPnTAPjRqS8NBBx3kV111VR8mAhYvBEFgYW+22WZ+zTXXtDBXW201HwSWnc/SsmVLHyYqPgz4yRHvwyDhQ6fgQydp30OnYXGuvfbafr/99vONGjWaynaHHXaYD52THcMW5513nuUzdIR2LHT6PggAy/+OO+5o6cYmYWJh5+GGG26wvGyzzTYVebz22mt96EQtD8RN/oD8ho7Sh4mEX2+99ezv0LFWCq8YG264oZUP9uFDGjbaaCMrJwgdoG/QoIHv3LmzfY+EQdOHjtH+DgOED4MvjzzsEzpLK9uY1xNPPNGHQcDysffee/swwPtNN920wsZh0PKhc7ZzhLnKKqv4MKhZWZNfyIsjDIh2XyxzCJ2+hYk91lhjDSs/bA3l2J78k550PQ0Dsw8DlV9nnXWSq7wPEx1LL9cFkWZ1gb8JMww6yVVTQ9vh+jBoWRpXX311K68w4Fl+gHpz/fXXm724hnjJJ9dddNFFdg1QB44//nhre6QxTHot79RD6kxk4sSJvkWLFnZun3328WGCbOVyyCGHVNSjMLm1MKhb1Dlsd8UVV/ggbCzv1MfNN9/c2gn5XGuttXwQRXZvmh9++MGHwbhSXQKOY68OHTr4IER8mARbOiif3XbbzT7kdfvtt/dBhNg92IM0nXLKKRY/4VKn0pB+7qVexPrBp2PHjnaeNOy1115mI/op7E19op4F0WHXQBByZjds3KxZM7M38ZGmM888M7mqvPYWRJGVHf3EAQccYO2oW7duydnKUNZBAFr+CId7CJP0hsmZ2QroX0gX9ZH+eYMNNrBr6ROK8d5771mfF4SN9alB9Fuag2iz80F4Wh0IAsi+A2NLEIJ2T+x/77//fqs3lDf1hbpAmdAnR7baaiu/3XbbmW1JH/FiY8qFtk47p06l2zD2pT3CjLAp7Ye6hV1JF33Kuuuua+ep0+SRfNE3ESfppe5Hym1b3bt3t2toLzvttJOlnT4mTFDsPGPBySefbHlr166db9++vZ0PAtz36tXL2lLaLrSvIGJ9ENLWP1N3GcMJn7LhHO2Q8Lg2TOQsDNIVBLjFCcOHD7d4sBllhy2oA9iBPhJoZ23btrVj2INxkr/Jb5g02TVw3XXXWV1hfKRdkccg1pOz3u+5555Wvm+99VZyRIjpQ1mCmQY/duxYa3T9+/e3xoLA+fjjj5MrymPLLbe0QSLMSJMjlXn77betQR1zzDH2nU65YcOG1iGloXOlQ4nCMcxcTTxGYYh4oTNv3bq1D7NpO0YnmBbMdMw0RjoPOlEGsgsuuMAae1qIMBiQ5qxgJv5HH33UvtOZkTc6Ojo/IExEEIMyAoFrdt55Zwsf4czgzoCAbYvBAE/604KZToGOYsSIERYenRdpjUKAzmvSpEn2d7Qdg0paMJ9zzjm+Xr16FSKStNH5x3gQDltvvbXdSxhAZ08HSlzUA8Ih7QyODOJMPEgP4h8xji0+/fRTu454OE+5PvfccxZeMbAlaQHSi0ClU40iAsGMYNx///3te4RJBGEDaaJOMkgirOmAY76oH3TYV155pQ36pI36g1CJkwwGUgZOyvvee++16xCiDMqIeMiLg/ZBWuIAEMUd98Y6Tz3CnlCO7R9++OGy6umRRx5pA9nQoUMtb3xoJwyep59+enLV1GAPyhYBO3r0aLuP9lS/fn0b/H755Rc7ju123XXXivpFPhAm2OGjjz6yYwgOBAECn3aH/fr27WuDaXpQv+yyy8xOTJCBOBHuiBLsAUyEGLApC4Qq12B77H333XdbfQCOkQfskRZbaRD1pAFRECEejg0ePNjCZhCmviHIIog50hTDpXy5hgGc+sR9sW2loS0gOik36hFpjtcxESBeJq6UJWG8/vrrVuZM3mjDXMtEF0HEpJxrxo0bZ2IKm0TBXG57Q9RTTnHiRLnEtpaFfglBR/9DmEC9pN1RtiNHjrRjTzzxhLWV2D5JM22F8sjCOSZGtAWEM5B3+ibaH/WHtJFGnA3YD7AbdZxJC3X/ww8/tGsYDzgHtEXEKnUugpCinzz//PPtOsLDJqT33XffNTthZ9KEmCaffOf4jLApdZUJLG07TuqYEA0YMMD+Jo30f6QBaDvEl3VslNO2EJaMo5QDaUc0MvnF1kBZIkT33XffCjt/9913FfWOPDM+ILxJV6yjOIToJ6j7lD3HuJ4waB/jx4+3Y3yGDBli7eTGG2+08BknmBwwFtLHcg1tkYk6Ycb+kj6f/ir20YC96XuoA/EYf2+88cYVdYDwY38JRx11lI1LxCXE9KSstRShMroddtjBtWrVygWRYI99WDvII6PqEBqrPTYJg1BypDIcD0LUHstUhzDLd5tsson9zeOmMFC50InaY7jQcdjxLDxeCp2qC7N4+5+4TznlFMtjdeERFEsoWLsaOjV75Bc6ExeEkj1S4nFfJHQ4rk+fPva4iryGATA5Uz24j3Tz6IllAMSHbUPnklxRHjw64/Fu6KjMdoRLurFd6IiSq5ydZ0eTxo0b2zWkPQuPObkvDCb2mJrreOwYBni7n0fopWAZDteGTtEeo1MOxBE68OSKquH6MCmyeKkDYYCreMSKzYMAcWGgsDioY2HgsPyw3CEN5RjEoaU5iHSrW5QjlIqjGKz5p+zDwGzlDmEQrFhGUY7tefRYVT3FXkFY2Yu4vExLOHx4XyCIH3vEmgd1lkfXXMt9tCfC5xFqGLDtMS19AC8DxfpFPqgPpDWWK4+u6RtIKzYiX0Hc2NruCPWUR8UsRdpggw2srVAWLVu2tOtZ/hQJIthdcsklLkxELV3YHnu3b9/ebBcGc7PbWmutZWXBkpRi8MiXtsHaTOoCH5ZTkAfqHWGHQd/q7IYbbmhp4hNEo4XLkp9I6DNtzTTp5T7SmIV7KCvO8z9p5rogLmwpFnXquOOOs7LkGtIfJte2/It4ecRMmVEXYnkGUWSPqcl3pNz2xt+ESz9FGvieDidNEO/2XglL5ggTWOpywgkn2L2xLhEGfWsQZFb/yB/L6Ir1C7QB7EvbI++khbC2224798MPP9jyB5YAUCdYMhX7f/o1Prwkjh05R36DaLTzhEM+ghC1c2lo27zQh+0pD+xIfaEeYyfqA2mOf/Ph7xlhU9oR/cehhx5asUyBJQRBFNvfpJF6SJvBlth18803t7ZEWqCctgUs11ljjTWsjtM2KBPyQZkC+cEeLL2jvXDd4osvXmGPbN8W62i8l5edw2TC/uZ6rqMcw8TW7ECczZo1szrDchdgOWQQ/Fb+LFHiXpZgBkFt4UcefPDBCruQP6AforwZr0kzcI7lI9Qr0h8mQpWWwtDG6HuJS4jpSVmCmcpIR0mlZe1kmMFbJxY70XKh0+P6UiIWIUMDoLFVB+4hfXQeiAYaGYM8g1spaMx0CGmBSWcfG2p1oEOgk2fHCDqC+GHLK9JGRx1hYOAzrdBZde/e3dLP4I04orMnvuqAjbAVnRIDNGGxcwmkw6JjZLDLgw4N+9F5piG/lClr3UrBgEJ9QkAiUPfcc0/rfEvVleqA/SkjOlkGonQZMVgzkUuDbSPUCQRlTdJBfAjElVZaKTlSmXJsX049nThxoglbhFd6AGIQbNq0aa7dIQ6UaZhw0h6xDetEiS9b/g0bNrRyZZ0kMLkhLAbpCINjOq0IFvKE0KKtxnJgRwnKG8EQIS+rrrpq8m0KX375pYkhyhKbIURIa6n2zsQeAcU6S+KgriHgEN5RwJB2jrNbT0zT7rvvbnUnXT/IX/PmzStERHVAYCEAGzVqVKmPozwRxPQh1DNEEkKSNKehDabjLbe9IawQIvSP5Bk7lOonEBpAvUnD/dgqljU2QOSzQwltlndaSoXJel0mgFwTbcuHe8kvQpB88D4MeYpxsCYWMbTTTjvZd84xfjBxS4fDWldsmybdhmGh5F2TqvrHGWHTMWPGWHryBByCcv/997etIqnTvOcDMcxy2hbQfuhDcHDRjzIWsh49hkOfgN2ZGDEhZOIWhW1VUE9xMGRBeDOhQEiTduJm0hfjpB8kraussop9j8RJZYQ8Iu7p79IwkaLdRscTop3waf8HHnig2VeImUFZgpmGstpqq9nslQGFrZz4mxcL0l7IqlhmmWVsICh1Dw2CgY+BOE2e8KVRMlNFdPD3XnvtZZ1AtnFmQciUS178QKdPw8cryUAeP2wxhlcIz11NyYsbO/ECRpcuXaxTZADrn9nqrKq080JNHKhIPy+P0BHVhGjTdCcY4Vh2EIsw2FFuvMSDhw8P3kEHHVRJ/E0L2IC04eVNlw8fdnqhPudRLD/lEO1B+ylGObYvp55yDXUfQZWFuEvZvSrIN/cjUuLfWTgeB+1y0kpZ0F4QZOly6Nq1q73Eg/jIg8EdUcEEGcGNeEJsF8t7hIG5bdu25mVD/PPCFCKNYxHsh7CmDGKa8OSTJurj9IA4yHux8sC2sZ7F66oi2rtY/eRYjAdb8wQMrykeUTyyeOGKUaqsOcYntklEDYKWJzccoxx4koJds5AfwMubLvMzzjjD+ivSQ9j0X3g7eZGOSSBPIjiGMAVsQl3DU5kO56KLLrK0TA9mhE3zwgTqJMIbLzKeZgRhum5CuW2LrV+xCZMbngYzFqafBFOutBc88vQ1jOGM5QjomsAkj76berDOOuu4ww47zJ5OpEVvOXU53TayduJ72vZoECZVcaLC5I0JsBAzmrIEc5Y4A8f7EjvDcmCmSIdaqnHef//9Fh6zVKCB8Ml6ANNeKAT2gAEDzBtD4z/ppJNspo6HLA8en9HYEfAR4s52TOSVY+lGn/YYA7N+rsODQCeV/vA4ODtjLgfCY1adtm82XuCxMp5m3pbGbsz0IXYw2CotmtO2AwQjcfH2erdu3Uyo0gHVBCZEDLjRExDB+0kZZr02ETpvxCPClR+xodOlMyRdETp68pO1QdazBOQ9nWcGdLyj3E/nni4fPEWI9OqSjaMY1DHijMs5spRj+3LqKd5nvOB4qbB/hLLGY1jVkwHykW3HDOJ4owg3tvWsJwqhgP1btGhh36mLtJN0+RN2Oq14DPHWkW8evWbLoqp2y/II0sZSDX7AA+8yoqqYmI9QVkxMKAsmZeyAgQhLe3BJO2HwZCOdJvoSvL81JV1HsCfx4mVO11uu4QkIHkyEPzbHI5r1nGHHdHjVaW+Eedppp9lTKDyLN9xwQ3KmMtifMszGTRx49RBXEdoVZciOC0wumMRED3UabEveSU/atny4Pz49IT94k2kP7B7Ck4T0BIrzwNOYbDgsC6guxdrwjLAp7Y+yY2JcDO4jbPLMMieWhDEZTFNO26J88OLTHtjdg8kfbYolJVl4GsVkkGUQOLBqOuGgLjP24LXmiSqTS/rY9BMr4qd/yeY//VSItke/gJc526ezpIV+Iy4RAsbcXr16uSeffNLKgbwIMaOpUjDTUVx33XU26MfKzTpDZtd0/rFhUNFZm8njsVLgRWPmi2cBkRQHaQZjxAPeWB6xsAYKGDTwonItHTjXM5PkcVV2gCdtcdBkIOdRex6IJARpFOl0POwvzbKTNDRMHiMj6IB80kmmwduAB56OLy0q6BDw/KbFdrnQOTCI8iF9bBWU/oUvbMbyGDo7On5sRccRRSb/41HFa0EZEgbr7+hQ02A3PpwnHNKfV4Z5INiJF+Eb197RibNzIWIF0VIK4sZe/I/Qw/NE+UTIHwMP9Y5HvMD2Q3GCECF+PIrU11hHECGs/WO9N14g4onE5QzVoVgcxaBO4DFjC6woeLmHgQzKsX2sp2zFxHXF6ilLphiwWe9MPYnceeedti42rvksBfUb+zCgkR5szFIRHuki2PkfwcOgFMsEW5511lnWB2y//fZ2jAkxdolrhan3lGM6T/QXeM+olzwdiXA9QrjYBCgN6QPCxma0Awb99EShGCyLwcNJH0O7YVCPyzEAr3Xcri4Nj5OLeU2rgvpKGtMiARvihSWf2DL2C3FrQSYeiGaEA6IQ7xllQZ7ZDpIyStfVctsbdQK7Yi/SRRzcVwzSgGjkqV0MkwkbdY6J/y677GLHEDHYizARznENKfFmQYSzdALbp3/IhbpM/xjLjrAIH3uzvI3+K44FQBjEhe3STpRik7lywBbERf2PzAibslYf0YhNY12iPOM4EvuBWKeJjzaUppy2BTGcGCZ1iPEwQpqZdHIN4yXlRv9I2MD/2JhySovxqoh1mbIkjemnyDztZTyjH6Q9AWnAQZDui1naQ/9Insgj0Kch/pkEMFkhTeiBaCuENOlN2562xKSjJnVCiFxCo8olVGB7CzkMdLYNDJ/QwOyNXd7CDxXbruMt31Bx7Q3VPHg7nTfwQ+dj28vwNnLooO2tZj687R8GhYpw2QWB49zTqlUr20ImDBwWF9vKhYbje/bsadfw1j5vl3Mtb1cTfuigLJyHHnrI3tyNhE7S3rQlHVzLG7vkkzd507sP8HYyW9SQ/9CZWr6D8Lc3d9PbyvH2e2i89mZzECi2tU0Q2/ZGcugA7W1idsdgG6Jy4C178hQEi8UbOmQLk2PskkGYhB06EYuPciGNbA0E2I9tuEJHYlv0cD50jva2exiIKt6+Dp2P5Q9bnXDCCbZNHFsyhUHb3nqH3r1729vYQeTY90joFG3bsvjGNXGygwN2Jt28FU5ZcG+YECV3TU0YkC192PaII46wcgxC0dIZBtnkqoJNCIs6wHn+Z2tD4oqEDth2D6Fc2fmBcOOOCrwVjz3YAuuAAw6weCgz8gdhUmZpYAeDNEcffbS94R8pFQe7OVBOQ4cOteuom2GSY+VCfQkDgqWZLZegHNtTTyn/dD0NEwfbDo1dWSLs+IEdyB/1mmvj37Gsi8Eb6ZQXdSkM6j6IY2tbtIUPki0PyS/tkuPU7zZt2lgag4CyN/UjlCN1nP6BvMQwqZ8xz0DeaGfEyzaQ1B9sSN3GJsD2fYSfrXNhwmo7SlCvjjvuOEsv9sPG7CKTRxjIzSaUBbtOpGHXD3bW4TzlRP0IkxArzyA67Jps+ebBrgGx7pPGTp062XHaDP0YNiI+ypa/sXd6G6xRo0aZrYkPe1O22IiyDxMVu6bc9kadohzYOjCWb7aOR6izF154odmTuoot6GOIg50TgmCx69hijbQFIWPbk1FWm2++ueWvGOyKQHsmTNLBdmBNmza1vj8Im+Qqb1uRkUeGJvpy0pOGPo38YS/KiLgpzyCQkisKuzFRdtTHCH0H+Y71C9gFJYhGq4u0E3aHmRE2xWbscsM12BI7Ef6mm25q58eOHWtxBFHpu3TpYu2anSCIP0wo7Jpy2xbx0FdwLTuOsDsH/R3lCLQ96hVthnZHv0Y4cccpIG7CwCaUL3GHCbTFze41aYIAt3wwttBHcC/pIQ7qSySIXrMhdYDdn+I4Sv8X2xP1gB1aiJv00U6oh7T395LdVRjPCZ+dQahDXI8t77rrLjsP9AtBTFdspSfE9KIW/xSkc3FCB2JeTmZ1oQLaDJK3cFmzhQctenWZ8eOFxSPMpxREx4yXdYTMMpnx8hIMs0seKfNoB68V66x4zBcaqc2S8Y6GwcyWOPCIFA8V3rfQ8MzDEIS4PdLiOy/AMXPGC8Y1oQHaiwksBWH9U4RjzIbDQGhh8pIPXnK8OHHZCOnFW816Oq7n0R8vUpBWvB+hs7HrmPEyK8d7xWPJ0NDNK4DHgheXmA2z7ip0PuYpqQrsjBcDDzjg2cCTjWcHjwUza9ZkYhfC5bEmnj48U9gJmL3jMWPGjacTu+A9In3kgetIN4/UeAyKZ5dHoKSbMPFaBhFjM3XyxnfijTDbpwwJO+6wEI9hB+6jbFmXFwRcSQ8MUCewMY/4iIeywPNGuZBmoC7iVcYmpIu0Ei9llV77SznhfSEPlD+eDOLG60E95jEe3iPCpXx4/El9oWywOWlO12GebvCyT/oxabE4qIfknbym6wXeYMqANsK11CHqeDm2B+IKA761P+zBdbQ76jfXQWxXPIGhjoRBxNpUEFsV3r9i8FiTx8DYhbzH/BNH+j0A6hLeHsoV24VBy/IRBu5K64fjo2XaLB4h6m0QSeZRo84BacWe1E3ipc6QryA8zMNJ2yFv0Q5BmNl9wL14aO+8806r/5Q7nmPaKHUh1pVikDbKJwzcFm7suyJ49lheQHlRF6gDpJn2xj14B7PlWwrSSf0dMGCA1Tu8/HixOU7/Qn8VX9Ilz+Qh/ciZ47wYSbljK8qRdkQ+g7iyMoJy2httin6CPov+kXKjLlNHikHfQ13jHjyC1FVe5GK5UAwTW3GeOkFa6Xe4hrIuBteQDpbD0F4Jh3GE9seuLPTRQJvgPHWePAThZccj5Je0sSsMdYr4wkTC8hPtR39OfKQ3ljFPkgiXsqS/AsYelpHQp5BHXjqmrcwIm9K+eWrDPbQl6hVjKE8TgLTR//Ekin6ceh3TG8Msp21R1+hrqFu0BZ5oUOfIK7vNYF/yRj/BEwLaOOunGctjGdC+eBpA3kkjfTFx87SDskqXCWFzHfUUW1CXSRdhcF26ntKu8B6TBpbeUPaEmR5HaRuULf0CZchYyZhN+TC+AHYhj/R32IH002/SD1F3CZs2g53y+j4hqkuVgnlmQlIYJFlywWBBo2YgnVkQPwNXWjAL8V8mCmbaG4OPEELMjjB+MwnnvQOcKkw2hJieVLmGeWbCDJIZLDNtvAiltuMSQgghhIjgXebFQ57m1PTFdSHymKUEc4RHKzzmio+IZiY8duMRnxBzAg0aNLDlCSyDEEKI2RWWy7AEipfj/w3tIP77zFJLMoQQQgghhJjVmCU9zEIIIYQQQswqSDALIYQQQgiRgwSzEEIIIYQQOUgwCyGEEEIIkYMEsxBCCCGEEDlIMAshhBBCCJGDBLMQQgghhBA5SDALIYQQQgiRgwSzEEIIIYQQOUgwCyGEEEIIkYMEsxBCCCGEEDlIMAshhBBCCJGDBLMQQgghhBA5SDALIYQQQgiRgwSzEEIIIYQQOUgwCyGEEEIIkYMEsxBCCCGEEDlIMAshhBBCCJGDBLMQQgghhBA5SDCXyZ9//ul+/vln988//yRHhCjOX3/9pboixCyI99798ssv7o8//kiOCCFEeUgwl8Hff//tzjvvPNe+fXv3008/JUfF7MqPP/7oDjvsMPfoo48mR6Yf1JUzzzzT7b777haPEGLW4fXXX3dbbLHFDGn7Qoj/NtUWzC+++KLbbbfd3L777us+//zz5Gj5ICiefvppt+eee7qll17azTvvvG6ppZZye+yxh3vmmWfs/KzGu+++6/r162eCedFFF02OlubNN990iy++uDvttNOSI2JWAu/vXXfd5V555ZXkyPSDOnzddde5gw46yOqAmLnQf7z11lvus88+M2+imHZK2fSll15yiy22mLvwwguTI/k89thj1n/ecsstyZGZy2+//ebOOussV7duXbfVVlslR4UQojyqJZh5xHzGGWe4Rx55xN1zzz3u66+/Ts6Uz8CBA13btm3dq6++6i655BI3bNgw1717d/f888/b8QceeCC5ctaATvaoo44ygY8Immuuqk2GUNpggw3cqquumhwRcwrU6QMOOMDtsssuyRExM2EyhHf/0ksvlWCeTpSyab169dwmm2ziVl999eRIPssvv7xd37hx4+TIzOWpp55y77//vuvdu7dbcMEFk6NCCFEetUIHWNaogli+/vrr3eWXX26C4KKLLnLDhw9366yzTnJF1eB53WyzzdyGG27oBgwYYB5mIAkffPCBiYyJEyea52KllVayczUFr8iHH35o69UaNWpknpCawKQAT+SKK67omjZtah7xYuB9+e6779wqq6zi5ptvvuTo1HzzzTdu/PjxbpFFFnENGzZ088wzT3KmNNj+k08+cT/88IOlY4kllkjOFIjnv//+e1e/fn2za61atZKzU8DO3377rT0ZWHnlld1CCy1kx3///Xc3duxYE/rLLbdc0XvLhbRgd8DuTDCIFzt+9dVXrkmTJmUPVjFflCGD7AILLJCcmQLXfPTRR2abFVZYwQbxLMRPvfriiy9cgwYN3K+//urWXHNNd8IJJ9gEMA32+fTTT62+cO3cc8+dnJkC4XENkynyE/NI/kaNGmXCgOOl6kp1wXbUL/KWVz5ffvmlmzRpktXBUnGTTsqftFKPqE/FJoFcg72Ib5lllkmOFieWL/fEMGtSh2iz1EPWl1LesX4Wg/4i2j/d3mgD9Ek77riju/rqq6fKWzn1hXDHjRtn95KOvPYMtB+un3/++Svq/LRAP/Lxxx+72rVrWz9YbnjkbcyYMXY96cj2LZyn3lJHKFPKthhcRznQ3ihLbJVn0yyxPlB/sC99Ujn3xDZKnsl7Fs6n+87q9MWTJ092o0ePNvG/9tprW183Lf2cEGIOJHRUZREGBL/kkkv6Hj16+H79+vkwmPnXX389OVseZ599tg8dmH/66aeTI5W56aabfOhY/c0335wcqcxPP/3kW7Zs6YPI8WFwtWOhc/fXXnutb9asmQ+dpB0LotRvueWWPnT4ftFFF/VLLbWUHzlypJ0jH0Es+r59+9p3IIxTTz3VBzGfHPE+dMy+bdu2PgyCltcw+PgWLVr4CRMm2Hniv+CCC/xWW23l7733Xl+nTh277tFHH/VhsPNhILd0RcKg40866SQfxKLZgHyGQciHTtziLwbHg7Dx7du390G4+TBAWJ569uyZXOH9e++951u1amXpi+EefPDBZiv466+//GGHHebDJMc/9thjPgyUdi02GTFihKV1gw02sLDDAOIvvvjiCtsG4eL3228/365dO/seCcLIr7rqqn7IkCH2Peb31ltv9YcccojlkTj22WcfHwSoD5MjH4SU5SEM0rn1hrDCgGZp23///S1d5CkIXB8G8Qpb8X+YgNm1hEveifO4447zYVC0a+DPP//0V155pZ0nrDAQ+969e/swYPrzzjsvucr7IJL8ZZdd5hdeeGGrM9g5TODM/jFOzlMn7rjjDruOT5jc+TBB8Ntvv73FEesKZRLESdGyfeedd6wOYpf0+SACK9WbMMhbnSHcIOAt7IMOOqiinsMtt9zi11tvPX/bbbdV2H3gwIHJ2SkQD2VBmWBPwsRu1N8gIJOrvA+TCYuTuIgTO3Tv3t3qUTGwNe0Rm/Eh3H333deOY1Pa4e67725/R8jXnnvuWVGvSFuYlPogcCzeIIj8sssu6x988MGKukidow7cf//9vkOHDtYuyQfhB3FmYVD/aIccJ93UuS222MLu53xV9YVr3nrrLYsnlm+Y/PggQu18Fq6n7Js3b25hEt7ee+/tb7zxRr/pppsmV3nr7whn2LBhyZGCnbfbbjvfuXPn5EihDvbq1cvygO3J4zbbbGP5KwVh0i8NHz7c8ka+yD82p7xJIzz//PN+jTXWsPPYmLZAn/Djjz/aeSDtxx57rO/SpYudp43Q35eyKW11tdVW83fffbd9B/LVrVs3uz/amD4B6KuaNm3qn3vuOftOn0g7ueiii/zll19ueeZ6yv+ee+6pSPu09MVhMmNh09/RPsgDfQBtL12nn3jiCX/ppZdW9JtCCJGlLMFMh3T00Uf71Vdf3QRETQXzrrvu6uvWrWtCohiIWjo0xGsxvv/+e9+wYUPrgGNnR6d6zjnn+Hr16plQJq2cb9y4sQ0SCFI69Ndee82uf/vtt20gvOSSS+w7EAaDPCImMnToUH/ggQf6xx9/3L/xxhv+9ttvt454t912MxFGPCeeeKJ17kwk+vTpYwMBgxsDLOLh3HPPtbC49sgjj7RBhAHoxRdftI4dcYQwYCApBsKCgYLOftCgQTYoXnPNNb5169Z2ftKkSTZIrrDCCpbHF154wTp90oTY++WXXyytO++8sw10DRo08IMHD/YPPPCACWcGLz6k89lnn/XbbrutDZLYCBjA27RpY4NTGkQCccRJR8xv/fr1TQQ988wzFiYD24Ybbmj5vO+++yxuBquddtrJ7ivGu+++awPniiuuaOlGEJB3bLzuuuuaCIjXkR/qJPkh7127drVBFVuTb8oVQUmdYhJBfbj++ust7wiAKJgpH/7GRuQJQYvIoQ5hxyj2TjnlFLMPwg7RjM1ID2VPXSHftIk777zTwurUqZNNOrIwiDPBY6KSHqBvuOEGSz9xcw31mPpBXSG/iAjsh8iLMBmgLVJ3aZfci8DIQjoRJ+S9f//+NiFB2GHrzTffvCKPCFLSQFqIkzyRn1KCGXFE2RMmdqO9UC6IL8KkjRAebShCfcGOJ5xwgn2PZUn/gHAeNWqUCUnSGtsG4gybrrTSStZWsT1ppC0zIaS8uYbypi9AjNJmn3rqKbu/nPpCe6O+b7zxxhXpoO598sknFkYW+kLENX0S4h7RhWgj/nRfQny0hYceeig5UphocC8TrQh1k7qKwCO95JH0kqb0JDAN8VL+tBfyQx1nYoc4PPzwwy1fQB5pk/Q9lAXlhsin3CLEg81ps//73/8sP6Qjz6aUPeUA1BEmW/QNpAEb006YUAA2pbywB1AnsRNtm7ZGPUfkIsKZYFCeMC198RdffGFlghOG+Jng0v9kxy+uwX/08ssvJ0eEEKIyVQpmRAedJ6LtySeftGM1FcybbLKJb9SokQm9YjA40ukxABajHMHMII0QQfwhOrKUK5iL0bFjRxOFdPSxk2YgZHAgjEhWMDPwki88N2nh8fDDD5sXJp2WNKQVQXPmmWdafBHCID48M+SFgTUNgyPHiZcBJQpmRBJwL5MSRCPewzioUp4MtHhgobqCeccdd6wQXgxUiD1ECp5hIB4GOcqwFAzChI2IS9cTbIkHnEGT/GNL8sSEKMJxyog8vP/++5aWrbfe2iYF0SuLHam/lFsUzHi68Jgj8qLA5bp0vQIEMzZLe+GLQb2j/uH5ZdJSjCgs8GhGeJJA+2Cgpy0gjin7CPbDK5iupwhm7HLWWWclR4pDXWPCdvXVVydHCvWAuotopI0D4VF34qQpD2xK+R5xxBEVdQioWwhiPOYIeMJHBEYQaaSFsoztiCcPn332WXKFN6834ocygCiYsVGsYwhcPLkIsmjnmCbaQCyjcusL3lbqCjZO56cUjzzyyFQ2xROOyK2uYGbihAeYSUO632JSQxyx7WZBMHOe+hTTjF2YVCNCqdvFwGlB/YqTFqCtUyejBzhSzKaQFcy0V+pvNg/YGUoJZtIZxTEg1KkzOBdKUW5fXAzqOjZDzEdoHxdeeGFJewkhRJWL40Ln684++2wXOmDXqlWr5GjNCB2nrRvLWztW1fmqCALUBYHogrh3Bx98sK2/mxZCh2xbEN1+++22Lo71lWFgSs462+GDNd15aQ4DkOU9CLJKa2LDAGnrNFn3WowwwNh6yu22267SGkDCCAOSC528rcPMlgsv1nAf66UjrFdk7TiQ1iAybM0lL/OEgcaOs14xCHRbP1kTeNGRMCEMpPY2ehAgFS/5EE8QCbaOMA/St9dee1Vaq73RRhvZmkXWNGN/XhoNg3ilte7YJQhksw0v9/A/61WJMwzUdg123GabbSrtdsLaWz7cf+edd9qLqYMHD7byDkLGyi4SBLTbb7/9iq7JZG0oOwEQBmtpqSuhjSVnK0OZ0raoG8C9L7zwgu3EEoSirUVl7Ta2Ij18wgBvtkmXK2BXyjGPkSNH2hrhIDCTIwU7B3Fjdg3i1Y6tu+66dt2BBx5oOyPkQb1l3TS2JG0xneSF+of91lprLVvDGkRKcpdz9957r5Ub9QUbUZZBtNo1MYwwCbQ1tC+//HJyV4GNN964Yl0q+aZeYyfSXIpy6wvx0SbJC31eVfU0TCos3pYtWyZHnK0Npm1VF9YMh4mo1S92cIl2oC1Sh1i7WwryQZ8X2zH2IQ2UA3lLQ3u4//77rZ4C6/nT8KIydaAmsHY4TPZsrKBORUhfHmFiaWUToV7wHgbvsqSZlr6Y6+hPsS07PQH3R8LExXXt2rXG77oIIf77VCmY6WDozBEwvGjz7rvv2gtDYRZvnTlCo1xq165tg1u2E48gTujYGDRqCp1lly5dbC9cBl1EIHvuMnhUBwYvXnJZeeWV3SmnnOKuvfbaosKW+IqJpwiDHXEziJH/NIhLBmmEUzEYFBgEi3XiDNScX3zxxaeKn+uJNy0iSGd6ICHc7MAS80LZ1oR0ePxdbKBMD6R5ZNO2yCKL2DHEK+lDzJDPbN6xMcewKfmnriHo8sqIOkm9YyC94YYbKj6ILPZsjZMAKJav9957zwQwg/7JJ59s99JW8kDQNGnSxHabIW7+ZwBnkkcc5I8yRESm08TLZW3atElCKcD1efkD6gr5wI5p+I5YReADE5Obb77Z4iaNCEpe7uV7FsKkPBAx6TQiPjfffHOb8NSpU8d2mEGs0F9gF3bEOeSQQ6z8KEvsj9C66aabKsLo27evvbiWFvhAXvlEqso3lFtfqJtXXXWVlQHtnclet27dSk66OU47YtI7rdD3Uf7sGpS2Jd+ZENOP5ZG2CX+TV+p/LLcnnnjCXnajTHv06GFlXKzfwRbpsKpDbEdMlKsTRvZa7Eldjemblr6YiRv55SVBtkPlpXUmbOlJsBBClEOVo81DDz1kgymCmQ6Xz+mnn24dUYcOHcwjVi54GhlkSolsdtGgw8UrVQo6xbQQhKzAQwSw3+Y777zjjjnmGNuR4/jjj0/OFsjekxUEV1xxhXmp6VzpnPEEVievEdJLesgXg2IabMgnK6QjeEXp2It5uhgYGFgIM5sXyovz5YrTUpB2PlXZakaQjYN6QzqYYJAmBlQG6GJ551gUQggabJQNL/2dMLkOryqTLERK/ODFZ1JSCsqVnTZef/11E9zUlaefftoEYx6EiTDjntdee83deuut5tnjzX5AxJJPJn7p9PChTlYX6gppxWZp+HEVhMmyyy5r35nY8SSEdN19993Who488sip7gPqNZOHYmlk60lECmXAdozEjdf+wQcfNNvTdwDnKUv6BiYH6TAoCwTStFJufQE81ohmPLo8iWArNdJdDOoN7bOY8ExD/JCOGxuk6yDlTR084ogjKtmAD/UpPh0qB8JlMkP7x77sLsFTEb7z5AKvPeXAZGZ6go2pD8Sdzlt1ob/DprFMpqUvpm2df/759iSFCduIESNsW7n4lEIIIcqlSsHMpvR02OkPj64YLPAI4QkCRCydcfYRXxq8VQhEvBtZ0ct2Qsz+2ZKLreeKQWfMwMKjv+ghIL74WDsLgvPcc8+1R4TRI0G6CSf9iBMBn33898Ybb5hHIz1Q1fSX29Zff33LLwIkPZCwzRHpb9GiRXKkMkxOGETZPzQOtvyPl5/BicfTDAJ479LgESTvPAqfFrATgyoDbsw7du/Xr19uOU8r2Oi+++6rNMFAPJF3hBUDP8KSx8vpyRc25lEzYnS11VazQREb4AGOooYwEHPpSQjX4BWjzKvreeJ6lokQHx5jII6qRBQw6FOfe/XqZY/3d9hhh+SMM7FJ+ot50mpCs2bNzK4Ihgjf8WzzPx68NAitnXbayXXu3NmWXRR7KsTyBWyNzbPtOQ3tiMfs/fv3t+UqpIWlC0BZsgyA9h+93NMC4pS008/EtlZufUnDZIC+j3OUTTHwQBMXoiyCrbLLSKJnmy3dItTJCRMmJN8KWzBiEyYNTC6qA/ngvlgGlBVLcAiP/o404cHHw8pyH6B+ppck5FHMpsWg78ZecQkacD0e4jxwlJC+CG2d7zzdgWnpi+kfsSd7/JMHYOKUzQd9DWWSV4+FEHM2VQpmOirWxKY/iBY6HwTd6smm9Yg0BsK8X7fbdtttzVN944032iNZOnkezyIk6dDoJPv06VOxP3MWRCJxMugz+PKYkTVr6cffLBdhYMAbgZDEQ8iAh2gFlnswOBIngzcDJp7FbEdJPAghxBX346UgrOgtqg6IBR7Zs4fplVdeabYi7uOOO85EFsKkGAgS9j/lESTrKhmI2P+6Y8eOZv+jjz7ahB7eIwRmPD9o0CDXqVOnSus1awKCmb2xGXDZs5hfsePxJuFTFjMS6sWhhx5qcTIxwyvEUgTswSQC7yyDHnnHW0bemcgNHTrUlkUweJNG0s8yBiZOeOvYS5yyTKcfQdOuXTsra8oIwUPdIVwmcQiFUpAW2gjLlkgDAveyyy4zwVIVCBqeprDsiUGdCWWEeoGHk7bCBJPlIYTJ+lOOVReWNhAm9YO6hH155H/BBReYUI/rbilfjjOBJD9MkKMts5B+7IsHll83JI3YjbpIOHFSRV1ljShLNQiX9bYxPOoYHmgEFuKcySECibK65pprbHJYHSgPJnnEQ9rJZ7n1BdHOjxTRJyCC6SMQUtS5YjDRZbJFm2ZZCh/6Iyb0aViqw/IU7Mpaccqb9CDkI7RjjnEe22FH7MkTPp6WVfUuBvZH4CM2L774YnvigVeVCRl9Hu86UL9juOS9XMFczKbFQCxvtdVWFg99FjbmV/2ox3kgqLnvgQcecEOGDLGngUwg+PVXmJa+mKUsTDwpcxwUlBHLbLITY9oB/S3iXQghihIGkWoTxJ69wc42UpEgFGwnDbY1y2Py5Mm2O0HoyG1bozBo2M4DbBnG1m//5LzhzDne7mZLLu7h3vbt29tb92ytNmnSJAuf7bw4FwZli4M30cPAVxEGuzqwU0MMgzfoQwfvg3ixa4CtpPgeBgtLK3u/sl0Rb4ETTxDYtjNBmDzY7h1pwgBg2+fxxnYkiE7bsSHGyf+84c9uEqXyzHF2mEjnl7fSw4BbcT4MkD5MMCrZMkxaKnZ7CAOD2YOtstKEwcd2gMAWkTAoW/7Y0zTC/ez9S1XBFrzZzw4O7CYQhJddUyy/QSxZ/nhjPg27MAQBkXybmvjmPTuHsC82cZKnjTbaqNJ+tOQ9DH62vVTMO+VN2n9PvaHP38ccc4yFQVhcz32ER1oiQRT7IJzsmjDAWliEGQRWxa4M1FvKmzfzI6SDHR3CoG7XU1fIM7tbhImS/6XELhnAvUFEWXzsmxvLLIIN2b0lCANLD9cRB+Ub4f7atWtXKsdiEBd1OkwcLTzCIa9hAluxCwiwlzF5iHGxXVkQSnZ/Maj7QejatTGN/M+WZtFuQJ1hlwraaXbbO8IOQsz6D9LE/fwfJiIV+WIHjSBOK3ZkAOomO+qwn/nPqb2UaafUCcKIO7xwvKr6Qh/BHsOcj2lgL/DYd2QhTGwTJg4V8ZGeIPQq7ZLBdWyNFiZmdt1CCy3kg8A129N/Ragr7DCStiP/s7NMzF+WIAQrtqKjTyYN1HV2Lon2J/4gXs2+hMn1tC+2TGR3jQi73LC9Gn1omlI2pd3T97AHOHAd9YH6H+sY6Q8C184HsWtpjLstxV0y2IqS+sK1xEEZhQmTXQPT0hdTtuwEFPNNWQ0cONDSHftRYP9pwo47+gghRJayf+lvesMjNTwLPD7Eu4I3NHSIydl88FzheWLZAY9Fs56G0HGbRwJvM+vg4mP8NDz+xSuI5wdvRjFvBWkjnjAA2WPj0KEnZ2oGpibPeNLJM57JMEAkZ0uDhxPvHF4RvIR4RNPE86QXjwoe+mL5qSnEy3Ib4sHecceJGQGPRfHI46UNYtHsT9kRbzH783iVtJFGljHER85peHrAUwjqHPaLayOzUG/wMuIhpFzwyvHmfTnEOhkGXasr1JnpAWli+RDpCoO+tRO8fTUFryL1niUp1BPqSzqt1FFeUmX5AjYop7y5J6aRssKjSv2uLiwTIG2UKeVIXrPttlx4FE96qBN4wiNV1ReOU1fYkYH7uKYquJanGLEvwcvMjiccS8OTGvolbJ63XCpeh/3xfOe1ZzzQ7JCCZ5qnFeQNTy/pSPctlBG7q1Cu1GnKqLp9RCmbZsGG5J32ltcfsdYZLz1P/3hqRdopH+ocS2LSTGtfTL7pd2n/lFMa2jvL9vbZZx/z5pfTJwsh5jz+NcEsRDHSgpklGULMTtCd7r///kUF84wgLZinddvPmU1aMLNV3L8BE9JzzjnHlnuw3GRGOgOEELM308cNJoQQQsxmMMFhK0V2qZke2wMKIf67yMMsZil4JMuLWOwAwmNjIWY3eLGOx/y8SDqjYdkZW67xUuW0LNX5N+BFV17e46XE9I+/CCHErIgEsxBCCCGEEDloSYYQQgghhBA5SDALIYQQQgiRgwSzEEIIIYQQOUgwCyGEEEIIkYMEsxBCCCGEEDlIMAshhBBCCJGDBLMQQgghhBA5SDALIYQQQgiRgwSzEEIIIYQQOUgwCyGEEEIIkYMEsxBCCCGEEDlIMAshhBBCCJGDBLMQQgghhBA5SDALIYQQQgiRgwSzEEIIIYQQOUgwCyGEEEIIkYMEsxBCCCGEEDlIMAshhBBCCJGDBLMQQgghhBA5SDCXyccff+wGDx7sJk+enBwRojgTJkxwt99+u/vll1+SI0IIIYSYnalSMHvv3QcffODuv//+/7d3J1C7TfUfwE//0lwaJMpNkoo0KHQVmSW5wuWmqwx1DSWXzC5FCEUhIlJCtRYVSaOiUGmSJpqspEHTbdRqFdX578/P+b2de3qe533ee19Dy/mu9bjvc55z9v7t3/zbe5+tuvjiixf53Hjjjc1dU8Ntt91Wffazn62OO+646tBDD62OPfbY6rLLLovr90Tceuut1dy5c6sPfehDzZXR+O1vf1sdeeSR1ec+97nmSo97En7zm99UT3jCE6qTTjqpuTJ9+NWvflVtvvnm1ac//enqvve9b3P1rsEll1wSNvWXv/yludKjR1V9+ctfrt7whjdUP//5z5sri4cPfOAD1QknnFD97W9/a6706PG/izPPPLN61KMe1Xy798LEzvHHH1997GMfq/797383V+8+TNVf/ehHP6rWWmut6hGPeEQ1e/bs6rrrrqvmzZtX7bvvvtM/npIQj8Q///nP+tWvfnVdgn/98Ic/vF566aUnPkcccUT9r3/9q7lzPJRkpd50003rpZZaql5++eXrFVdcsX7sYx8b7b/oRS+qFy5c2Nx5z4DxnXrqqfXTnva0+he/+EVzdTSuueaaugivnj9/fnOlxz0Jv/zlL+tHPvKR9dFHH91cmT6UQqleeeWVx9aV6QI73XLLLetlllmmvv7665urPXrUdQk+4bsvu+yy5spw8HfnnHNO+K6SGDdX6/r222+v11tvvfDVN998c3O1x52Nr33ta/XOO+9c33LLLc2VHtOFk08+ub7//e/ffLv34sYbb6yXXXbZeptttqlvu+225urdh6n4KyBHOSW/tMkmm9QPechD6lII1aUAaO6YPtzHf5rceSCKA41s/Vvf+lZ17rnnVg94wAOaX6qqMLkqiUfzbXL8+c9/rrbaaqto653vfGe12WabVWVwMSNmCfuQQw6JaxdeeGH1oAc9qHnq7kVJRIKeZz7zmdXqq6/eXB2Nv//979UPf/jDarnllqtKgGmu9rinoASfkOV+++1XHX744c3V6cFHPvKRarXVVqtKgVXd5z73aa7eNSiFQPWnP/2peupTn1rd7373a672uLdj4cKFsU3oKU95SvXgBz+4uToY/P2ee+5Zff7zn6+++c1vViVwNb/csS3N7DL9uqtXT+6teP/731/tscce1TXXXBMxqMf04ZRTTqkOOuig6h//+Edz5d4JNv+DH/wgZmgf97jH3eVxq4up+Cv49a9/HX5ppZVWqv76179WN910U/XQhz60euITn1j93/9N767j+x5p78AIyKdN1QvEEgxJ4DLLLBOfqSa1tnGUaqA65phjwilLlkuFVz3sYQ+rnve850XAv+CCC6qNN944BtuF5JUjx5zHPOYxE4K1NeTrX/96LLNz5O678sorq3e/+92xlcQSvPbQi6G2gyy11FKLJPvf+c53qhtuuCGYDoyoVPfVRRddVH3729+OaX/tZh/4Qsk8Q6jvete74l7BxPfvfve7Ma5c8rE04F7jO++886ovfelLsQVlxowZI5MbyvyVr3yles973hPJmKD16Ec/eoJ2yflVV10VxYwtI0nP8ssvH7+jU+DDW9fPP//8cMKUcsUVV4yx2D6AfveRr/YBzfhKAY07YR+37SbkZ4yWdHx/4AMfGNt3Tj/99JATpUUHhX7ve98be8AVTWRB7oOgrS984QuhX9/73veqs846K/RPn2TT5hU9uOKKK2LsH/7wh0MP9OnZttGj3z0f/OAHY5mHTN73vvdV66yzTvXCF76wueuO+9BIPl/96ldDRx7/+MdPGJ0iiMxdP/XUU6tPfepTEcTwkIwUVopB9+A72Q5LLMgVv88+++yQG74prjit/J0OkZXP9ddfH2NTpA5zaPhMzqmjf/zjH6vLL7885JlFKjn5bYUVVpigjUwuvfTSoAU/yYBuGCewfb+Toa1TZEGu5P2zn/0sltAkVnTLh9OlR/SbbmqXHeK96+5lS2iz3cm4c0zGffXVV8e2JrwHfeDROeecE32BPlIX2ARbZd/0hR3SldTjRNqCbTNoJy9t0jM0pK2izTV6RxeMGQ/wJCcM8IiOe8Y43vGOd8Rz7J9t8THkRi+///3vV0svvfQiPqsL7dN72x7Qhc6043yGjtBj7fJJ+IifQNb8Az+hHXzMgPH73/8+bIM+Jv30m39Mn5K6+pnPfCY+9MjzP/nJT8LX0L2bb765+t3vfhd8QNMw/5c63IZ2PvGJTwQ/8VXRiuf8xyCepI/xW8oF0Ir2Jz/5yfG9rePXXnttddppp4UueIYfwDO00T/6iPZR/jZ9Cl1HJ5vCY3SKHYNo0i5dMPGT8hjXl5Bhyo3OuSf5J0YYm/GsvPLKobdklHr9hz/8ofr4xz8evsy/fkcXXRvEU2ADZJj2zIcZI79ijEB3vvjFL8Z97CzBT6CHPvD9gyBusl9ti/fkjF5jEqvST/LF7uv6SX0aN9nhKXt2nz4zpoHn6KO29PWNb3wjeIv/KV8+M/2n+I5m40wZkAs7tfwPU6Ev/R17RVfKPSF2/vjHPw6dZ7Of/OQng8/kO4x3QC/4JP2jH9/QrD20SSS1kfJl2/iUek12fD3e0z2/0Vv+vj3Z2YYx0j2/81G333575E9kyR7wly5nzsB3QuY09A+P6TN6M/76XQzLnIMf5KONB536wHO+5u1vf3uM9znPeU74wq6/YlvyFHbCH6OLbvqd3+UP8Yydaw+P2sm/MfJBbA29fCS+ZBwbG6WhkSjE1Lvssks9c+bMRZboFge77bZbXRxvXRjXXFkUxRnFEsnxxx/fXFkUhZGx3L377rsHXVCEUh911FGxpFAEGtdKcK2LYOp11103aC+Mq4vQ4reiGEHDCSecEN9BG5a9ihNurtzRRhFGXQJvvfXWW9clCYltJGeccUb8XgReH3DAAfUqq6xSP/e5z42lylIR1SXY1CW5jiWF9pK/5YXikIIu9xfHFttQXvGKV9RFMZu7FgW6bAfBE1tgnv70p9fFKOqSpDV31PX+++8f7Rj/s5/97KCxGGRdAnX8bikV/SUxjN+LYddPetKT6qJI9etf//r6wAMPDLpWXXXVujiSaDvlXJQ5ljhKMRPfE0XxYnzFkOJ7jnf77beP8WkLDUUR62K0dVH8+BQljn4tuQxDMbq6GG3Qpg0yKQYY4z7ssMOCJ0D+uVWoKH29xhprBJ/wtSRVcQ9YpilGHmNbbbXVgj4y829bPsXgQob4M2/evHrttdcO+Zckc6LPgw8+uH7Ws55Vb7TRRnEf2orTrU866aTgu++zZs2KcaLLUlE+2wVdxx90G0dJTupDDjmk+bWuSyALPUXza1/72tB7YysFTHPHfwN9dL0km/G9JKvRx0477VSXpCZkS06ulQAb94D28W7bbbeNZTm8yX7o5kte8pKQG73BS2M79NBD4/eSjIT+4ElxlsEDPCMf48FDOsS+9I33JbAHX9Zaa62gqQTiaAtSt3I7ky1cJQmLtvGJHuN120eccsopIY/NNtss7qNrxUE3v/4HbVvQZgnCwV+64XtJvuK+6667LuyNTRn7M57xjBj/3Llzow2gp/SSDzB+48BntsPvGHcpyOoXv/jFwU/3lKAdz3ahzV133TVkUAJG9En3yawElbinJH5BD/7jw5prrlm/9KUvjd/4oh122CGenzNnTr3VVluFHuTWCTLSVknC4zu9QA/d0y/destb3lKXgiZ0TFjwMWZ2Rxfhla98ZfhDfniU/+uiJBnhP9FAFzbYYINoF59K4dHctSgsE9N/vr2NElhDbonUcX4Uz9in73jFh6edkhW9KcGyeXIw9tlnn7iP3LSJZnLkC0tyEvy3/Jt6ALZA0Vn+CabiS2yjIgv6h998fEmE456NN954QhYpj2OPPTZ+o6voSrtM/22so7ZvkB15sWHbDN2vbf+SP5REol599dWDtjZsNaTLJdlurvw3jjvuuJCt8RuLfsgcxvGTJcEM2eEbORqX9th16i+U5DN0T3viWknKg7aSzMbvJeEPXaav8gW0aO+SSy6J36G7JWMq9NEN+sl22rlEggz1zY/YaiqG4rO/h217YCfigH7ZODnhHVsrBWS94YYbhu/yd6Ik/DEuPhXSd9E9fiD1oh1buiBvep0+F+14wL8YK9v1oWt77rln3AP0Ht/JYY899gidEUNyfGIjGbBLvga/fC9FwUQffB3b4Tv4NLGg66+AbzUOPMUjf/MF4/hO0GcpGib0hX80ni222GIRfk6GsRNmDme77bYLx7zffvtFwCfIqYADQHQG9C4kswa79957N1cWBWPHMIl3O2F+05veFEmWhFmAp1QULQVXqpN4FrKPt771rfEdtCEYUP6EwF0quok2OChKTwEpmLFLVglu/fXXDyelHdclkJxgOnuOljIJqqXqjGvawEcGedFFF8W1LiQLxsvIMpjr54ILLoi/S/UY/XDyt956a/QvSKJT0mAfLYViOJyOxEg77tUmJePMFTD4qRhw7WPN3h9BQiIksWkDbyh/qfbie45Xn6WSjj7tvXON8eKDPjkEQcJnGNBCPp6T9BsTmim26+TnmsDHKDhoSYprpZqNwENGdMGYXvOa10SAxSv3cCwcAeeVCbNxCpAMKYONawoA7WVCd9BBB4W8N99886CJrLNfupI6qW9j7Dq3Nsheop97nekZPQHORJLG+POa/l7wgheEbOnOIKCPo0z74jCM0xj8jV5Jm+BjbCBhoffoyfEIRuj2tyCPz2effXbI1T2CEn4CndEHZyWp84x7brjhhvAZhx9++ERywWkZs2IIrxYsWBAyvfbaa+N3IFc6qMBEgwReUvvTn/40ficXwYSDzwJZQGNHdJWO6d+ni7QFjpIDZl/ouPDCCyPYKh49p139J5/5FD4HH9J+6SkbQP9HP/rRGLe29CGoJr2gLUHtxBNPbK4sCn1effXV0aZ2QEIu6cjJAbbWLmTcl3KWXApEWcz7jQyT7657Fp9de9nLXhYBLAt19pNJGn0QgCRhbCVtCyQJ+J4J8zD/1wU5SrrTjoxH0cw/0JNBMCb85tvbeNvb3ha+IZE6LvmTJOlfUoQudn/66aeHbZGHRISODIPk2zOnnXZaPGM8+E2PFRQgNqFLspA488wzIxCjZSq+hB4qwsgR3WeddVbo/rnnnhv3oMGkhP74U7LBOx82hA8XX3xxfPe8Iti1HXfccUL2bbhPUpTPecY1+mrcr3rVq+I5ei/B5HPbkDBL/DM+dCH2sO/Zs2eHv8I/fM8kdRw/aQx4+fznPz9sAPKdIPoGaMychMz0gzfokvTjpxiAfrEf9CWO0dVEN2Eelz7PiOfp7/L+NshcMpt5B5q985V2OAjkb0xZ6Hom44P+0e49gqQF+Bb0ZMKMZjzRP2Ssl2QmLV2Qt4T4da97XXznC8QE9olHfEC2w4YS/ArdxDdAL7+DJ9rAI3YgX3BNLDNxicbsgz6Jw+jFR/e1/RXgOT97zDHHxH36EX8uv/zy0OHJfCcdUFxK0BUU7sNDvkT/Jlzy2ckw6QaPYtRVqXSqMvD42/YGyxCFefHGdCG4uXNyFKbH9HcxiObKoiiCj+WSIqDmytTh+SLEWBIrggr6iuBjmWoqKIlqbBPRXlGo+LckvLEk06ZP20XAMbWPP+7rwvJWEWJVnP/EUmJRgNgbXhQjlgcGwdKK5YUSrCeW6fQzZ86cGJelxlKdRbsleEf/RfHjRA9yKoYXz0Bx1rGNQDvu9TYpWr0pbL9tSTiqkkjGb8UAmqemhuJwqxIsYmnI/iNLIqVqjCUv7RZnUG2wwQbBw1FA1xvf+Mag0ZjQXIJ1LN9YWisGE0srxXirUgQED91XDLQqyVTwuhhQ3G8JvySf1cyZM+OeklDG3jV8SxTnHsu5m266aehOCWrxbKnog//+ThQDq9785jcHTejMfukKFMc9IQftDrMPdkCvbPUpgTFsoiQ98ZulN9eNjVzQo030WXpC07jwPF4Wpx/0lkAYy16WC/N3dkfX6AwUZxP04bOlxJIkhc6RqzZKMAs5JtBuZ1dJsoJO91jONq6SnAVPjKEE5dB/S8zadpoI3rb13xIpGZVAFUuYlhRL8Rv8TrmgpQTFeBs6UXxZ7EekY/r3GQa2YGlv2WWXjfFvu+22QZclP7ZtCRmv6ZXv+kSPf0vQaVq5o89SaFezZs2KcWsLj0qgDvkbP5/HDvAYzYOA1nXXXTfoKg4+9IK/MhbPFGc+sfTINtP/WD4F/NevJeYSiIIWMnStC7/xPWTNRsjBOMkG9GMc7mMLaVvDMI7/o0tk7d4SqEIfxJOSsMeS8pICvXxMKSij/7XXXjv0hVxKwRz8ocP01vaeQcBjW1Q8R7/w2DLwKqusEtshbF0APpIcUmfZt60ofCi7moovIT9L0f5Ft7b1n7aJbh8gF+0ZKx6WRClOBuBvXfN8KbCj35JgDNQ11zJ2b7311vGMZ22BRLt90tpeXNh+YLxkYRz0Ad+9twTj+kl08bHsAfhv9/EHYBxOBDLekkBO6Cp523qAf2L/lltuGXJFE1swblsIhmFc+th9KVgiR3APHnZBXvyWOIOn9MkWQO0M8wPG4D527Bk0i3FTAd+FJ/TGGIyf3hsDfZ4K8GufffYJHyB+i8Ft/2eM/IftHGwZvfwOnuCzj3icfBLftIHGhNzSSWltv9MGW7NFhY049cJ9+hF/SvEbujKZ77TVA0+9C5B5LJ8k/5oxY0b4feMYB5MmzAgqlUcEMnt77GEqVXckQvaqTkUIyWADGwQBxgAJZ3GBmY7W0hZGCtj2A04VFNs+IEZI4RiSJI2x+CTQKsCPgsBEQJksJzgVRnLLLbc0VxYFw6dE3eeAgkqqBKpuMcDI0Z+BFdKpJiit7/iVQKPAzsEsDtqOg8Fqr+tM9DuOcnZ1gGKjlb7RHzyT8KC3DfsujatU3NEPA+e02+NEW5sujphzOe+88yKxzg+nrS86mcBrtLThd7rBwXCK9EVAbetJF7vssks492222SYCCrvKfuxjo7/srk2PxITc20F3HLTl7m9OPG2QTXL+9uuh298LFy6M39yDN/S7y+c28Lbr2CUN9E8ymvRz5GxRMDDWNdZYI4KUfb7GRVaKS8Gcw+PkXbd/rs0H7z+43vY9aMDPcWAsbX2gC2Sqf7SRG/pf/vKXB0/0SRfQ3JYpXhpDm7+gjaOOOiqKFM9KhDjyUfpgPAo5iZVn1l9//djHl89Iwn322muvCBT24dERMG5Bxx4+z/o7ZdiFsSqg8Bd9eG3PblvHp4Jx/B+YwBA86QAa6Rm0E5ElQVsGdDoDaxt8Dz4Pguv8Lb+ScsuPhEDhA5I3PlfCCopzBS6dxIup+BI0t+lGr0/a5jCQu8KIn++OUeKAVr93QSfo+KqrrtpcuQPaoEN+GzdxGARFN9+CrkEw9nH8pISmPS48Is/knSKL7StSBsE+XzzE87YMvEsxTP4wLn1syIRQN7lrwzN0wySSQk7/dAR/h+m8WKB4UYT7V3EzmS50oV+TDCab0nfJ02CqNt6N3e1JJuCP5EUST8UBP559sCNykyyPAr/b7acNuq74Memg0B+EyXynd2fQovBtQx6QifW4fmhRTz8GKAnjkuFT3KkYGEcjGRuWZKvAMag7sC66CtyF2SCB18ysGTlVtxmvqcBLRgImUIgFCxbEzMVUgVZKj29t59hG1+klRhmLdinnKKNdnN9GPTNVDGprSdo35uShsQ/jJyRPPeMzqt+8h54cdthhEx9nU0pCcuZ3ENAhkd1pp50iYKaudINSF2auBFr9MFgzcCeffHL8xngldfS3Tc+JJ54YLzXkzMt0Ac1o4XAkp4phVTlM1ckm6C5+eFE46XciiVURKx2KKb/vvvvusWpgtthsNt9g3GRLJsDXtPkgGfXyLHlNF/SlTx8vEAkAkjw+wOk9kt5xdFeyIlh5wZK/MCsyf/78GO8w8KHuk8hKAhRKBx988CKJqBlgExb4p8jGN/cBmvfee+94Ic2so3ucNjRsNlUBaQJEH5ILBZsXe+4sCFiCq6LMjKh+d9xxx+bX6Qc5TdX3kD+7w/O2rvngpw9IuukCe5EUmOkkWxMrsCS+ZBjdXWQfw/xf6nEXxjfZc+P0PwjapcfDnl9cPzkIOY5RfYGVgrYMrIiTwSBMJ31AN+gEPVGUWv3addddh8Z6YNf8L98hmUMDv9CeIDHuUdDfdtttF8WRxDtPHrszYDaZz7FKgi6zxwcccEDoQeY8Swrtks2wtsbxnZkMD2tjVMLexfCMYwQMIpcMpsIUyz5mWlSig2BGF3NURoOgL4OjQG3F6c64uU+Vq8IUiFU5Rx99dPzmeb+3n9Fntw3LABJ8VZ6AR/lUlVOFvsx64lcutSVU9GbhBLBBUH1RvPbWigSDMqtnJrU7I+x+srEEuiRAu366vMkZwjsT3WJBlemagEWGKkOzOTnLlpDk0I2ckVaVcl7t9vzdpl+blp3w03YWhp8fVf+o2VXVLSdspjR1RRvDZlnaULFzMGYEzGiYAQH6ij6Ja5sWH8mN2ZbpBDmzTf0rLG2ZMYOGzwK871MpjMHWD3yWOHTHwL4zaEs+yEig0L9i17OAP/TP7EK3DUFhcfW7q7vodPqCFQt64AQBs4S2bXC+gqiZC3yaDPT0yiuvDMdt1kPyL2CO0iF9KRbwQmJmJmqHHXaIFag2tIEWS4hmaCXQCbIye2tm0+9mWOjjMBirmWjL8J474ogjml/+g7aPXRIo8iTvZKzY2XnnnWOWfBSMh47wNW3kTO90A2/5DH0qeLr6xhYBXZZ2+W38daKIrXr4CUviSwYhda4tCzZB9/n5tl8Dq1NsNrfrtKHoYmvdbQnaUNTwqejDA76zvUIJvg/TCXSKj2KRmNTFkvjJLtiFcTgBZRAkcuTkeM82/31s4xiE6aQPFKR03ikftqhYUZS4pt8bBuMyKy0RZeP8AZniL5mId20ZdO3DKTHig9ne/fffP/yFbQh3FvTFx6HX5ILjgdkoe5CoKsiXBHRdHkanBq0OjOM7k5auvohpCgu2irfjYNKE2YzPVVddNZGYCDaqGPukVF8EDAIOQdvPNQyWZzkUlZs2M3BhhCrl/PPPj5kTy16DgHkGbwZIEPd8Ho+TwEDXKBIl4wAINWd4LKlzNnl8FkYKjPZftUGx/caZUFBK295rORVYImDEknaOCTgfyk1oZl0GwQwVJ2afcQYKCaFqNYMngSsM0nDIwTE2ufduSYDfZKFPDgAfbC9hGF1nOp0gVxUjOYIxSqYEAokdunIGjezwEG0KMQ7KkirdJHfOwiqDWUywd5NRtYsMwcX9dDrlA2lk/h0GOubTvsczk+0DtwJC/zyLTkHWvyChZMS2FrX3uylc6OGwoLU4wFv2DHQeHRkw8dnsrvFYqjRGH3/nMt8wcGDacV872bZUzInmGOi3bQ2SP/vM2AKeAEfpN7ZpebMNet5NfMcFHbY9IPcm0iE6ztHm+NGQdFtJM5M4Tn9JO3/pb+Pka8axlwyGPo6uagcbPk/hB2RjFiydvCQd79AnUeCTjcGMVRd8LT2n/+gjY2NO/+iatvl9/JkOoMWY6K/20WByZBQkd+QvGObeVQmNVZY7A3gpkWdvVnoy3oFr7fcuzGTZe8l/8y3iWibCS+JLBiG3T5Fx2gx5WQqnE7llgOzFXoWumUxxtguFp+0GCiofz/iwL1uQ2B498FG0Ghu9Sn0U39t86SILQ0WReOU5K1W+k7tPe/zj+MlBMA4+nk0q+PSjP//nVn7eCpx4q0Br6zA+Dpp8gumkD9KHZB7CnkzCtX1hG+Qg6bTK7n52yX7TD/tX8o4m/guMVdHbhn6NIf0PHZzM1hYX4gbfmPTSS3T6rvAgJ+8F5EqXpFfuQpfHBX3afvvtgy9pl3ilb/xKjPKdClrv16BFHHEPH+QoUD7Vtt30pZOiPDwS3lYuyhfHizjlojAi3kBeYYUV4u3EhOOESsCfeNNyGLzBWQQfpzZoqwTkaL8YaZxe8NchJwBAYVRdBhn9FGcab+aXJCre6kZfCf7xf3EryUa85T1nzpx4e7o4nYlj1orRxNvwRcDxxre3gdFTkqh4izJRnHO8qVmSl3qvvfaKNzqT1uJA4+1Mxyrhgzc+23BqhD7bx5YVY4m3TtG70UYbxbEmJbDFW+DaGgS0FoOI8bp/vfXWC5o8D54ryWvwEu1+x0c0FYWKe4qBxlFa3vZtw1vS+nfqRKI4l+infQRNUe5oDw3rrLNOHCPj5AnXjAkGjbckgyEfJ0q0UZL7kNUwFGcQpw84UqcUN3EqxHLLLRe0FoVv7rrjzd7i/EMXi4OMN5mLg4kjbtCTKEElnkc/WZbKM/TYfWhJFOMLuvTtaBy6483iknDHG8KAL/hD/gky8CZxysUJDniDfqeiDNPnLbbYIng5e/bs4Cv68sgocCwantLluXPnhgzpvD6KsTd3LYoufWyNbuSpKgl9lkIo/i5FRrwhj15j1gc+uA7FIYYM8BkvyJQs8pSZUtUH39tHAEFxYHHUEH3EB2/uO/bNmJyckTrPps8444xo373Zb4I+rLTSSsFfJ1w44YHs2DUdA28541/75IJBYAvawHf2zO7XXHPN6Nsb6CW4xX1OJHCPPpxA45QOJ5TwGXlKRXG8MRZvtrdBV+gXW+eXZs2aFW/s00EnIwwCXs2bNy/GaHw+M2bMiKOWyN3vfI3f6Q0+lkASJ32AU3bIAI1ky27YRAmW8XtbRmycL6An5E2e2nUyRIJvwE967DSNkvzFdf2RxZ+aUzKG+b8uSvAK/4SndIK+b7jhhnEigJMlhgHd6EAr/aSbdLztPwbpuDGiC0/b4Mf5/FFw/CHe0gsnJ7E3suzKmf6XxCBoM742FteX4CO6FyxY0Fyp45QJ4xY3+K88rUNcph90lwydAIFXYgD5DIP26IYxzpw5M3ShFFkxTnxLsAF98pfaJDsnhPAVqQ+DsO+++4Y86Al9ZNPGP66fdGIHXXXiSaIUm+GD+MEEW2cj2hOX8Zc+8fdAH9CKbvbktB2x28lDifQbsCT0DUJJxMJPkTG+OY2Kj+EzShHY3PUf8E3Gh2Y+ig9BGx1k/8BWyEP/+EEv5S3GXZLRuMeJIuQmr5k/f374Lj6IPpZiIe7pwtjYBV8H9JC9yi3auPTSS0OnE+wLDejdZJNNgne77bbbBL1yLuNFM56iQV520003De0DujFFvOPz6Lq4RWfpL3mN4zvhiiuuiJPUxC5y4P+14eQweda4mPT/9KcqU8mYEVbZFMKiulXhmQVLmC0zw6cKsrQ1DLpT9ahcVQlmXtxv/6Tl2MKo5s7BKAyIJU8VvFkIS7NFELEEaf+eGRZVhJkJWyBUmpaxi1OJ6gtUF956Nmuqb23oVxWjjbwHfZaoiwOIKqQof8xsFSOKa/42Y2m5zveEqlLFbqtF8kJlqdpW2asS/WbfqhnQ9rNdoMNJD8bjb7PVZv2KI4jfVa6qbNUWGWjPMrhlfcBvckMTuhNFYWNpDl+S52Rt1qI46EW2iXjpxZ5RfVnSInuzD/rA+0HjLQ4o9EblqdpMqPzI3xaEQSA7M+slIMUsh9nM4nRjPxi9a/PKlhb7Im1pMHtl2ZweFUcXVS4Yv1lZe9LNFOGf/alkQDfcm/epfC2xmlVAN330woalRrpD3ma78NHvCXJBB12xglECRKxiqL7Jg052YaaDLtgy5BmzO+g3ViALvECPf4vjCT3DN3zO8bXRpY+8tI+PZnIT2qMr7iMnek6/zDZbxsRrss0+8I29ON2CzXn7nN4UhxP9sTMzwWYm2yATzxiDGTqzb17EZWP0N9s3O8R3aE+7bd6CGQr6TTfJgT6Ri3+1YZaAPI1nlP/AU8vt+IT3ZrXpBnrssaUPgCdsg87QMf7D+FzLcdJ5LzAWpz/xXCJnpPk48vc8PpVANmGXXZjxxSez0do0q0JGYMaSbPxm9sSY6Tk/YOkRn/kAY9KOGRUyTFtsy6gEjJhNdy8bRpOx073kO19lppKPZd/2R9MfvNI+Pqc9DPJ/g0A+lmvNMqG9BNBoj77R7UFAB7mj1TjZFR9Mf9N/DNJxcuaPjM1KWwINZDPqXZSSPITOig3u5QvpLP6w6QT/yU+gyypcxhZYXF+S/tf+S9v4wGwa/88Patfyt7ECXqITvdqgD2g17kH+AbTBB+f/EEU8Jwu0GUtCv2gxay3mshu2idf0kR8YBDpLR42dHYlFVszcP46fNCMsTuJX8hstdBWtZvfzGnnSUfGNHvGhbEc7xuk63aFn9B6v0ZI2mH7DliRYXPoGQf9yEj4Ev62Iijv0wRgG8Y+fJU/84wvJxct/aAdjxn9t0hWreGwdPWzQM3hO98mNXyA39+AF+y9JeLTVhnYd5MDW8UbbfBu7TH5Djp2OAdsnZ36O/Vu9kBtkHEALv26lmK6L3/RB3ui3QX3AoJgifohRtjAaz4EHHhiy9PxkvpMtGKNDEugDP85no5dO0KtxMWnC3KPHXYlMmC292p7To8d0oZ0wC8A9evTo0eN/A/y3bUEKCxMSg5L/OxuT7mHu0aNHjx49evTo0ePugNUASbIVPxMeVj3uDvQJc497FCxzWSJrbwnp0WM6YGnO0uqoJfkePXr06HHPgu0tXui3bcahEZNt3b2z0G/J6NGjR48ePXr06NFjBPoZ5h49evTo0aNHjx49RqBPmHv06NGjR48ePXr0GIE+Ye7Ro0ePHj169OjRYwT6hLlHjx49evTo0aNHjxHoE+YePXr06NGjR48ePUagT5h79OjRo0ePHj169BiBPmHu0aNHjx49evTo0WMoqur/AY1tsdRL7c79AAAAAElFTkSuQmCC;" parent="1" vertex="1">
          <mxGeometry x="40" y="40" width="374.87" height="200" as="geometry" />
        </mxCell>
        <mxCell id="nO0XkZ6iR2E-LEG_lxri-11" value="" style="edgeStyle=orthogonalEdgeStyle;rounded=0;orthogonalLoop=1;jettySize=auto;html=1;endArrow=none;endFill=0;" parent="1" source="nO0XkZ6iR2E-LEG_lxri-3" target="nO0XkZ6iR2E-LEG_lxri-10" edge="1">
          <mxGeometry relative="1" as="geometry" />
        </mxCell>
        <mxCell id="nO0XkZ6iR2E-LEG_lxri-16" value="" style="edgeStyle=orthogonalEdgeStyle;rounded=0;orthogonalLoop=1;jettySize=auto;html=1;endArrow=none;endFill=0;" parent="1" source="nO0XkZ6iR2E-LEG_lxri-3" target="nO0XkZ6iR2E-LEG_lxri-13" edge="1">
          <mxGeometry relative="1" as="geometry" />
        </mxCell>
        <mxCell id="nO0XkZ6iR2E-LEG_lxri-26" value="" style="edgeStyle=orthogonalEdgeStyle;rounded=0;orthogonalLoop=1;jettySize=auto;html=1;endArrow=none;endFill=0;" parent="1" source="nO0XkZ6iR2E-LEG_lxri-3" target="nO0XkZ6iR2E-LEG_lxri-23" edge="1">
          <mxGeometry relative="1" as="geometry" />
        </mxCell>
        <mxCell id="nO0XkZ6iR2E-LEG_lxri-3" value="Usuário" style="rounded=0;whiteSpace=wrap;html=1;" parent="1" vertex="1">
          <mxGeometry x="629.9999999999999" y="40" width="120" height="60" as="geometry" />
        </mxCell>
        <mxCell id="nO0XkZ6iR2E-LEG_lxri-4" value="TiposDeUsuário" style="rounded=0;whiteSpace=wrap;html=1;" parent="1" vertex="1">
          <mxGeometry x="1034" y="40" width="120" height="60" as="geometry" />
        </mxCell>
        <mxCell id="nO0XkZ6iR2E-LEG_lxri-30" value="" style="edgeStyle=orthogonalEdgeStyle;rounded=0;orthogonalLoop=1;jettySize=auto;html=1;endArrow=none;endFill=0;" parent="1" source="nO0XkZ6iR2E-LEG_lxri-5" target="nO0XkZ6iR2E-LEG_lxri-29" edge="1">
          <mxGeometry relative="1" as="geometry" />
        </mxCell>
        <mxCell id="nO0XkZ6iR2E-LEG_lxri-5" value="Evento" style="rounded=0;whiteSpace=wrap;html=1;" parent="1" vertex="1">
          <mxGeometry x="630" y="490" width="120" height="60" as="geometry" />
        </mxCell>
        <mxCell id="nO0XkZ6iR2E-LEG_lxri-6" value="TiposDeEvento" style="rounded=0;whiteSpace=wrap;html=1;" parent="1" vertex="1">
          <mxGeometry x="1034" y="490" width="120" height="60" as="geometry" />
        </mxCell>
        <mxCell id="nO0XkZ6iR2E-LEG_lxri-18" value="" style="edgeStyle=orthogonalEdgeStyle;rounded=0;orthogonalLoop=1;jettySize=auto;html=1;endArrow=none;endFill=0;" parent="1" source="nO0XkZ6iR2E-LEG_lxri-7" target="nO0XkZ6iR2E-LEG_lxri-14" edge="1">
          <mxGeometry relative="1" as="geometry" />
        </mxCell>
        <mxCell id="nO0XkZ6iR2E-LEG_lxri-7" value="PresencasEvento" style="rounded=0;whiteSpace=wrap;html=1;" parent="1" vertex="1">
          <mxGeometry x="430" y="264" width="120" height="60" as="geometry" />
        </mxCell>
        <mxCell id="nO0XkZ6iR2E-LEG_lxri-28" value="" style="edgeStyle=orthogonalEdgeStyle;rounded=0;orthogonalLoop=1;jettySize=auto;html=1;endArrow=none;endFill=0;" parent="1" source="nO0XkZ6iR2E-LEG_lxri-8" target="nO0XkZ6iR2E-LEG_lxri-24" edge="1">
          <mxGeometry relative="1" as="geometry" />
        </mxCell>
        <mxCell id="nO0XkZ6iR2E-LEG_lxri-8" value="Comentario" style="rounded=0;whiteSpace=wrap;html=1;" parent="1" vertex="1">
          <mxGeometry x="630" y="263.5" width="120" height="60" as="geometry" />
        </mxCell>
        <mxCell id="nO0XkZ6iR2E-LEG_lxri-9" value="Instituicao" style="rounded=0;whiteSpace=wrap;html=1;" parent="1" vertex="1">
          <mxGeometry x="630" y="710" width="120" height="60" as="geometry" />
        </mxCell>
        <mxCell id="nO0XkZ6iR2E-LEG_lxri-12" value="" style="edgeStyle=orthogonalEdgeStyle;rounded=0;orthogonalLoop=1;jettySize=auto;html=1;endArrow=none;endFill=0;" parent="1" source="nO0XkZ6iR2E-LEG_lxri-10" target="nO0XkZ6iR2E-LEG_lxri-4" edge="1">
          <mxGeometry relative="1" as="geometry" />
        </mxCell>
        <mxCell id="nO0XkZ6iR2E-LEG_lxri-10" value="possui" style="rhombus;whiteSpace=wrap;html=1;" parent="1" vertex="1">
          <mxGeometry x="849.9999999999999" y="40" width="80" height="60" as="geometry" />
        </mxCell>
        <mxCell id="nO0XkZ6iR2E-LEG_lxri-17" value="" style="edgeStyle=orthogonalEdgeStyle;rounded=0;orthogonalLoop=1;jettySize=auto;html=1;endArrow=none;endFill=0;" parent="1" source="nO0XkZ6iR2E-LEG_lxri-13" target="nO0XkZ6iR2E-LEG_lxri-7" edge="1">
          <mxGeometry relative="1" as="geometry" />
        </mxCell>
        <mxCell id="nO0XkZ6iR2E-LEG_lxri-13" value="possui" style="rhombus;whiteSpace=wrap;html=1;" parent="1" vertex="1">
          <mxGeometry x="449.9999999999999" y="40" width="80" height="60" as="geometry" />
        </mxCell>
        <mxCell id="nO0XkZ6iR2E-LEG_lxri-19" value="" style="edgeStyle=orthogonalEdgeStyle;rounded=0;orthogonalLoop=1;jettySize=auto;html=1;endArrow=none;endFill=0;" parent="1" source="nO0XkZ6iR2E-LEG_lxri-14" target="nO0XkZ6iR2E-LEG_lxri-5" edge="1">
          <mxGeometry relative="1" as="geometry" />
        </mxCell>
        <mxCell id="nO0XkZ6iR2E-LEG_lxri-14" value="possui" style="rhombus;whiteSpace=wrap;html=1;" parent="1" vertex="1">
          <mxGeometry x="450" y="490" width="80" height="60" as="geometry" />
        </mxCell>
        <mxCell id="nO0XkZ6iR2E-LEG_lxri-21" value="" style="edgeStyle=orthogonalEdgeStyle;rounded=0;orthogonalLoop=1;jettySize=auto;html=1;endArrow=none;endFill=0;" parent="1" source="nO0XkZ6iR2E-LEG_lxri-20" target="nO0XkZ6iR2E-LEG_lxri-5" edge="1">
          <mxGeometry relative="1" as="geometry" />
        </mxCell>
        <mxCell id="nO0XkZ6iR2E-LEG_lxri-22" value="" style="edgeStyle=orthogonalEdgeStyle;rounded=0;orthogonalLoop=1;jettySize=auto;html=1;endArrow=none;endFill=0;" parent="1" source="nO0XkZ6iR2E-LEG_lxri-20" target="nO0XkZ6iR2E-LEG_lxri-6" edge="1">
          <mxGeometry relative="1" as="geometry" />
        </mxCell>
        <mxCell id="nO0XkZ6iR2E-LEG_lxri-20" value="possui" style="rhombus;whiteSpace=wrap;html=1;" parent="1" vertex="1">
          <mxGeometry x="849.9999999999999" y="490" width="80" height="60" as="geometry" />
        </mxCell>
        <mxCell id="nO0XkZ6iR2E-LEG_lxri-27" value="" style="edgeStyle=orthogonalEdgeStyle;rounded=0;orthogonalLoop=1;jettySize=auto;html=1;endArrow=none;endFill=0;" parent="1" source="nO0XkZ6iR2E-LEG_lxri-23" target="nO0XkZ6iR2E-LEG_lxri-8" edge="1">
          <mxGeometry relative="1" as="geometry" />
        </mxCell>
        <mxCell id="nO0XkZ6iR2E-LEG_lxri-23" value="possui" style="rhombus;whiteSpace=wrap;html=1;" parent="1" vertex="1">
          <mxGeometry x="649.9999999999999" y="150" width="80" height="60" as="geometry" />
        </mxCell>
        <mxCell id="nO0XkZ6iR2E-LEG_lxri-25" value="" style="edgeStyle=orthogonalEdgeStyle;rounded=0;orthogonalLoop=1;jettySize=auto;html=1;endArrow=none;endFill=0;" parent="1" source="nO0XkZ6iR2E-LEG_lxri-24" target="nO0XkZ6iR2E-LEG_lxri-5" edge="1">
          <mxGeometry relative="1" as="geometry" />
        </mxCell>
        <mxCell id="nO0XkZ6iR2E-LEG_lxri-24" value="possui" style="rhombus;whiteSpace=wrap;html=1;" parent="1" vertex="1">
          <mxGeometry x="649.9999999999999" y="380" width="80" height="60" as="geometry" />
        </mxCell>
        <mxCell id="nO0XkZ6iR2E-LEG_lxri-31" value="" style="edgeStyle=orthogonalEdgeStyle;rounded=0;orthogonalLoop=1;jettySize=auto;html=1;endArrow=none;endFill=0;" parent="1" source="nO0XkZ6iR2E-LEG_lxri-29" target="nO0XkZ6iR2E-LEG_lxri-9" edge="1">
          <mxGeometry relative="1" as="geometry" />
        </mxCell>
        <mxCell id="nO0XkZ6iR2E-LEG_lxri-29" value="possui" style="rhombus;whiteSpace=wrap;html=1;" parent="1" vertex="1">
          <mxGeometry x="649.9999999999999" y="600" width="80" height="60" as="geometry" />
        </mxCell>
        <mxCell id="nO0XkZ6iR2E-LEG_lxri-32" value="N" style="text;html=1;strokeColor=none;fillColor=none;align=center;verticalAlign=middle;whiteSpace=wrap;rounded=0;fontSize=10;" parent="1" vertex="1">
          <mxGeometry x="750" y="40" width="30" height="30" as="geometry" />
        </mxCell>
        <mxCell id="nO0XkZ6iR2E-LEG_lxri-34" value="1" style="text;html=1;strokeColor=none;fillColor=none;align=center;verticalAlign=middle;whiteSpace=wrap;rounded=0;fontSize=10;" parent="1" vertex="1">
          <mxGeometry x="1004" y="40" width="30" height="30" as="geometry" />
        </mxCell>
        <mxCell id="nO0XkZ6iR2E-LEG_lxri-36" value="1" style="text;html=1;strokeColor=none;fillColor=none;align=center;verticalAlign=middle;whiteSpace=wrap;rounded=0;fontSize=10;" parent="1" vertex="1">
          <mxGeometry x="600" y="40" width="30" height="30" as="geometry" />
        </mxCell>
        <mxCell id="nO0XkZ6iR2E-LEG_lxri-38" value="N" style="text;html=1;strokeColor=none;fillColor=none;align=center;verticalAlign=middle;whiteSpace=wrap;rounded=0;fontSize=10;" parent="1" vertex="1">
          <mxGeometry x="490" y="233.5" width="30" height="30" as="geometry" />
        </mxCell>
        <mxCell id="nO0XkZ6iR2E-LEG_lxri-39" value="N" style="text;html=1;strokeColor=none;fillColor=none;align=center;verticalAlign=middle;whiteSpace=wrap;rounded=0;fontSize=10;" parent="1" vertex="1">
          <mxGeometry x="490" y="324" width="30" height="30" as="geometry" />
        </mxCell>
        <mxCell id="nO0XkZ6iR2E-LEG_lxri-42" value="1" style="text;html=1;strokeColor=none;fillColor=none;align=center;verticalAlign=middle;whiteSpace=wrap;rounded=0;fontSize=10;" parent="1" vertex="1">
          <mxGeometry x="600" y="490" width="30" height="30" as="geometry" />
        </mxCell>
        <mxCell id="nO0XkZ6iR2E-LEG_lxri-43" value="N" style="text;html=1;strokeColor=none;fillColor=none;align=center;verticalAlign=middle;whiteSpace=wrap;rounded=0;fontSize=10;" parent="1" vertex="1">
          <mxGeometry x="690" y="550" width="30" height="30" as="geometry" />
        </mxCell>
        <mxCell id="nO0XkZ6iR2E-LEG_lxri-44" value="1" style="text;html=1;strokeColor=none;fillColor=none;align=center;verticalAlign=middle;whiteSpace=wrap;rounded=0;fontSize=10;" parent="1" vertex="1">
          <mxGeometry x="680" y="690" width="30" height="30" as="geometry" />
        </mxCell>
        <mxCell id="nO0XkZ6iR2E-LEG_lxri-45" value="N" style="text;html=1;strokeColor=none;fillColor=none;align=center;verticalAlign=middle;whiteSpace=wrap;rounded=0;fontSize=10;" parent="1" vertex="1">
          <mxGeometry x="690" y="234" width="30" height="30" as="geometry" />
        </mxCell>
        <mxCell id="nO0XkZ6iR2E-LEG_lxri-46" value="1" style="text;html=1;strokeColor=none;fillColor=none;align=center;verticalAlign=middle;whiteSpace=wrap;rounded=0;fontSize=10;" parent="1" vertex="1">
          <mxGeometry x="690" y="100" width="30" height="30" as="geometry" />
        </mxCell>
        <mxCell id="nO0XkZ6iR2E-LEG_lxri-47" value="N" style="text;html=1;strokeColor=none;fillColor=none;align=center;verticalAlign=middle;whiteSpace=wrap;rounded=0;fontSize=10;" parent="1" vertex="1">
          <mxGeometry x="690" y="324" width="30" height="30" as="geometry" />
        </mxCell>
        <mxCell id="nO0XkZ6iR2E-LEG_lxri-48" value="1" style="text;html=1;strokeColor=none;fillColor=none;align=center;verticalAlign=middle;whiteSpace=wrap;rounded=0;fontSize=10;" parent="1" vertex="1">
          <mxGeometry x="690" y="460" width="30" height="30" as="geometry" />
        </mxCell>
        <mxCell id="nO0XkZ6iR2E-LEG_lxri-49" value="N" style="text;html=1;strokeColor=none;fillColor=none;align=center;verticalAlign=middle;whiteSpace=wrap;rounded=0;fontSize=10;" parent="1" vertex="1">
          <mxGeometry x="750" y="490" width="30" height="30" as="geometry" />
        </mxCell>
        <mxCell id="nO0XkZ6iR2E-LEG_lxri-50" value="1" style="text;html=1;strokeColor=none;fillColor=none;align=center;verticalAlign=middle;whiteSpace=wrap;rounded=0;fontSize=10;" parent="1" vertex="1">
          <mxGeometry x="1004" y="490" width="30" height="30" as="geometry" />
        </mxCell>
      </root>
    </mxGraphModel>
  </diagram>
  <diagram id="zfTq1ecGWFBChho6pUb5" name="logico">
    <mxGraphModel dx="1050" dy="574" grid="1" gridSize="10" guides="1" tooltips="1" connect="1" arrows="1" fold="1" page="1" pageScale="1" pageWidth="1169" pageHeight="827" math="0" shadow="0">
      <root>
        <mxCell id="0" />
        <mxCell id="1" parent="0" />
        <mxCell id="hPGfK_wV92hM9tZzi88i-1" value="TiposDeUsuario" style="shape=table;startSize=30;container=1;collapsible=1;childLayout=tableLayout;fixedRows=1;rowLines=0;fontStyle=1;align=center;resizeLast=1;html=1;" parent="1" vertex="1">
          <mxGeometry x="975" y="204" width="180" height="90" as="geometry" />
        </mxCell>
        <mxCell id="hPGfK_wV92hM9tZzi88i-2" value="" style="shape=tableRow;horizontal=0;startSize=0;swimlaneHead=0;swimlaneBody=0;fillColor=none;collapsible=0;dropTarget=0;points=[[0,0.5],[1,0.5]];portConstraint=eastwest;top=0;left=0;right=0;bottom=1;" parent="hPGfK_wV92hM9tZzi88i-1" vertex="1">
          <mxGeometry y="30" width="180" height="30" as="geometry" />
        </mxCell>
        <mxCell id="hPGfK_wV92hM9tZzi88i-3" value="PK" style="shape=partialRectangle;connectable=0;fillColor=none;top=0;left=0;bottom=0;right=0;fontStyle=1;overflow=hidden;whiteSpace=wrap;html=1;" parent="hPGfK_wV92hM9tZzi88i-2" vertex="1">
          <mxGeometry width="30" height="30" as="geometry">
            <mxRectangle width="30" height="30" as="alternateBounds" />
          </mxGeometry>
        </mxCell>
        <mxCell id="hPGfK_wV92hM9tZzi88i-4" value="IdTipoUsuario" style="shape=partialRectangle;connectable=0;fillColor=none;top=0;left=0;bottom=0;right=0;align=left;spacingLeft=6;fontStyle=5;overflow=hidden;whiteSpace=wrap;html=1;" parent="hPGfK_wV92hM9tZzi88i-2" vertex="1">
          <mxGeometry x="30" width="150" height="30" as="geometry">
            <mxRectangle width="150" height="30" as="alternateBounds" />
          </mxGeometry>
        </mxCell>
        <mxCell id="hPGfK_wV92hM9tZzi88i-5" value="" style="shape=tableRow;horizontal=0;startSize=0;swimlaneHead=0;swimlaneBody=0;fillColor=none;collapsible=0;dropTarget=0;points=[[0,0.5],[1,0.5]];portConstraint=eastwest;top=0;left=0;right=0;bottom=0;" parent="hPGfK_wV92hM9tZzi88i-1" vertex="1">
          <mxGeometry y="60" width="180" height="30" as="geometry" />
        </mxCell>
        <mxCell id="hPGfK_wV92hM9tZzi88i-6" value="" style="shape=partialRectangle;connectable=0;fillColor=none;top=0;left=0;bottom=0;right=0;editable=1;overflow=hidden;whiteSpace=wrap;html=1;" parent="hPGfK_wV92hM9tZzi88i-5" vertex="1">
          <mxGeometry width="30" height="30" as="geometry">
            <mxRectangle width="30" height="30" as="alternateBounds" />
          </mxGeometry>
        </mxCell>
        <mxCell id="hPGfK_wV92hM9tZzi88i-7" value="TituloTipoUsuario" style="shape=partialRectangle;connectable=0;fillColor=none;top=0;left=0;bottom=0;right=0;align=left;spacingLeft=6;overflow=hidden;whiteSpace=wrap;html=1;" parent="hPGfK_wV92hM9tZzi88i-5" vertex="1">
          <mxGeometry x="30" width="150" height="30" as="geometry">
            <mxRectangle width="150" height="30" as="alternateBounds" />
          </mxGeometry>
        </mxCell>
        <mxCell id="xqbkVaiGyp1VWLEOoLGr-4" value="TiposDeEvento" style="shape=table;startSize=30;container=1;collapsible=1;childLayout=tableLayout;fixedRows=1;rowLines=0;fontStyle=1;align=center;resizeLast=1;html=1;" parent="1" vertex="1">
          <mxGeometry x="15" y="374" width="180" height="90" as="geometry" />
        </mxCell>
        <mxCell id="xqbkVaiGyp1VWLEOoLGr-5" value="" style="shape=tableRow;horizontal=0;startSize=0;swimlaneHead=0;swimlaneBody=0;fillColor=none;collapsible=0;dropTarget=0;points=[[0,0.5],[1,0.5]];portConstraint=eastwest;top=0;left=0;right=0;bottom=1;" parent="xqbkVaiGyp1VWLEOoLGr-4" vertex="1">
          <mxGeometry y="30" width="180" height="30" as="geometry" />
        </mxCell>
        <mxCell id="xqbkVaiGyp1VWLEOoLGr-6" value="PK" style="shape=partialRectangle;connectable=0;fillColor=none;top=0;left=0;bottom=0;right=0;fontStyle=1;overflow=hidden;whiteSpace=wrap;html=1;" parent="xqbkVaiGyp1VWLEOoLGr-5" vertex="1">
          <mxGeometry width="30" height="30" as="geometry">
            <mxRectangle width="30" height="30" as="alternateBounds" />
          </mxGeometry>
        </mxCell>
        <mxCell id="xqbkVaiGyp1VWLEOoLGr-7" value="IdTipoEvento" style="shape=partialRectangle;connectable=0;fillColor=none;top=0;left=0;bottom=0;right=0;align=left;spacingLeft=6;fontStyle=5;overflow=hidden;whiteSpace=wrap;html=1;" parent="xqbkVaiGyp1VWLEOoLGr-5" vertex="1">
          <mxGeometry x="30" width="150" height="30" as="geometry">
            <mxRectangle width="150" height="30" as="alternateBounds" />
          </mxGeometry>
        </mxCell>
        <mxCell id="xqbkVaiGyp1VWLEOoLGr-8" value="" style="shape=tableRow;horizontal=0;startSize=0;swimlaneHead=0;swimlaneBody=0;fillColor=none;collapsible=0;dropTarget=0;points=[[0,0.5],[1,0.5]];portConstraint=eastwest;top=0;left=0;right=0;bottom=0;" parent="xqbkVaiGyp1VWLEOoLGr-4" vertex="1">
          <mxGeometry y="60" width="180" height="30" as="geometry" />
        </mxCell>
        <mxCell id="xqbkVaiGyp1VWLEOoLGr-9" value="" style="shape=partialRectangle;connectable=0;fillColor=none;top=0;left=0;bottom=0;right=0;editable=1;overflow=hidden;whiteSpace=wrap;html=1;" parent="xqbkVaiGyp1VWLEOoLGr-8" vertex="1">
          <mxGeometry width="30" height="30" as="geometry">
            <mxRectangle width="30" height="30" as="alternateBounds" />
          </mxGeometry>
        </mxCell>
        <mxCell id="xqbkVaiGyp1VWLEOoLGr-10" value="TituloTipoEvento" style="shape=partialRectangle;connectable=0;fillColor=none;top=0;left=0;bottom=0;right=0;align=left;spacingLeft=6;overflow=hidden;whiteSpace=wrap;html=1;" parent="xqbkVaiGyp1VWLEOoLGr-8" vertex="1">
          <mxGeometry x="30" width="150" height="30" as="geometry">
            <mxRectangle width="150" height="30" as="alternateBounds" />
          </mxGeometry>
        </mxCell>
        <mxCell id="xqbkVaiGyp1VWLEOoLGr-11" value="Instituicao" style="shape=table;startSize=30;container=1;collapsible=1;childLayout=tableLayout;fixedRows=1;rowLines=0;fontStyle=1;align=center;resizeLast=1;html=1;" parent="1" vertex="1">
          <mxGeometry x="15" y="204" width="180" height="150" as="geometry" />
        </mxCell>
        <mxCell id="xqbkVaiGyp1VWLEOoLGr-12" value="" style="shape=tableRow;horizontal=0;startSize=0;swimlaneHead=0;swimlaneBody=0;fillColor=none;collapsible=0;dropTarget=0;points=[[0,0.5],[1,0.5]];portConstraint=eastwest;top=0;left=0;right=0;bottom=1;" parent="xqbkVaiGyp1VWLEOoLGr-11" vertex="1">
          <mxGeometry y="30" width="180" height="30" as="geometry" />
        </mxCell>
        <mxCell id="xqbkVaiGyp1VWLEOoLGr-13" value="PK" style="shape=partialRectangle;connectable=0;fillColor=none;top=0;left=0;bottom=0;right=0;fontStyle=1;overflow=hidden;whiteSpace=wrap;html=1;" parent="xqbkVaiGyp1VWLEOoLGr-12" vertex="1">
          <mxGeometry width="30" height="30" as="geometry">
            <mxRectangle width="30" height="30" as="alternateBounds" />
          </mxGeometry>
        </mxCell>
        <mxCell id="xqbkVaiGyp1VWLEOoLGr-14" value="IdInstituicao" style="shape=partialRectangle;connectable=0;fillColor=none;top=0;left=0;bottom=0;right=0;align=left;spacingLeft=6;fontStyle=5;overflow=hidden;whiteSpace=wrap;html=1;" parent="xqbkVaiGyp1VWLEOoLGr-12" vertex="1">
          <mxGeometry x="30" width="150" height="30" as="geometry">
            <mxRectangle width="150" height="30" as="alternateBounds" />
          </mxGeometry>
        </mxCell>
        <mxCell id="xqbkVaiGyp1VWLEOoLGr-15" value="" style="shape=tableRow;horizontal=0;startSize=0;swimlaneHead=0;swimlaneBody=0;fillColor=none;collapsible=0;dropTarget=0;points=[[0,0.5],[1,0.5]];portConstraint=eastwest;top=0;left=0;right=0;bottom=0;" parent="xqbkVaiGyp1VWLEOoLGr-11" vertex="1">
          <mxGeometry y="60" width="180" height="30" as="geometry" />
        </mxCell>
        <mxCell id="xqbkVaiGyp1VWLEOoLGr-16" value="" style="shape=partialRectangle;connectable=0;fillColor=none;top=0;left=0;bottom=0;right=0;editable=1;overflow=hidden;whiteSpace=wrap;html=1;" parent="xqbkVaiGyp1VWLEOoLGr-15" vertex="1">
          <mxGeometry width="30" height="30" as="geometry">
            <mxRectangle width="30" height="30" as="alternateBounds" />
          </mxGeometry>
        </mxCell>
        <mxCell id="xqbkVaiGyp1VWLEOoLGr-17" value="CNPJ" style="shape=partialRectangle;connectable=0;fillColor=none;top=0;left=0;bottom=0;right=0;align=left;spacingLeft=6;overflow=hidden;whiteSpace=wrap;html=1;" parent="xqbkVaiGyp1VWLEOoLGr-15" vertex="1">
          <mxGeometry x="30" width="150" height="30" as="geometry">
            <mxRectangle width="150" height="30" as="alternateBounds" />
          </mxGeometry>
        </mxCell>
        <mxCell id="xqbkVaiGyp1VWLEOoLGr-18" style="shape=tableRow;horizontal=0;startSize=0;swimlaneHead=0;swimlaneBody=0;fillColor=none;collapsible=0;dropTarget=0;points=[[0,0.5],[1,0.5]];portConstraint=eastwest;top=0;left=0;right=0;bottom=0;" parent="xqbkVaiGyp1VWLEOoLGr-11" vertex="1">
          <mxGeometry y="90" width="180" height="30" as="geometry" />
        </mxCell>
        <mxCell id="xqbkVaiGyp1VWLEOoLGr-19" style="shape=partialRectangle;connectable=0;fillColor=none;top=0;left=0;bottom=0;right=0;editable=1;overflow=hidden;whiteSpace=wrap;html=1;" parent="xqbkVaiGyp1VWLEOoLGr-18" vertex="1">
          <mxGeometry width="30" height="30" as="geometry">
            <mxRectangle width="30" height="30" as="alternateBounds" />
          </mxGeometry>
        </mxCell>
        <mxCell id="xqbkVaiGyp1VWLEOoLGr-20" value="NomeFantasia" style="shape=partialRectangle;connectable=0;fillColor=none;top=0;left=0;bottom=0;right=0;align=left;spacingLeft=6;overflow=hidden;whiteSpace=wrap;html=1;" parent="xqbkVaiGyp1VWLEOoLGr-18" vertex="1">
          <mxGeometry x="30" width="150" height="30" as="geometry">
            <mxRectangle width="150" height="30" as="alternateBounds" />
          </mxGeometry>
        </mxCell>
        <mxCell id="xqbkVaiGyp1VWLEOoLGr-21" style="shape=tableRow;horizontal=0;startSize=0;swimlaneHead=0;swimlaneBody=0;fillColor=none;collapsible=0;dropTarget=0;points=[[0,0.5],[1,0.5]];portConstraint=eastwest;top=0;left=0;right=0;bottom=0;" parent="xqbkVaiGyp1VWLEOoLGr-11" vertex="1">
          <mxGeometry y="120" width="180" height="30" as="geometry" />
        </mxCell>
        <mxCell id="xqbkVaiGyp1VWLEOoLGr-22" style="shape=partialRectangle;connectable=0;fillColor=none;top=0;left=0;bottom=0;right=0;editable=1;overflow=hidden;whiteSpace=wrap;html=1;" parent="xqbkVaiGyp1VWLEOoLGr-21" vertex="1">
          <mxGeometry width="30" height="30" as="geometry">
            <mxRectangle width="30" height="30" as="alternateBounds" />
          </mxGeometry>
        </mxCell>
        <mxCell id="xqbkVaiGyp1VWLEOoLGr-23" value="Endereco" style="shape=partialRectangle;connectable=0;fillColor=none;top=0;left=0;bottom=0;right=0;align=left;spacingLeft=6;overflow=hidden;whiteSpace=wrap;html=1;" parent="xqbkVaiGyp1VWLEOoLGr-21" vertex="1">
          <mxGeometry x="30" width="150" height="30" as="geometry">
            <mxRectangle width="150" height="30" as="alternateBounds" />
          </mxGeometry>
        </mxCell>
        <mxCell id="xqbkVaiGyp1VWLEOoLGr-24" value="Usuario" style="shape=table;startSize=30;container=1;collapsible=1;childLayout=tableLayout;fixedRows=1;rowLines=0;fontStyle=1;align=center;resizeLast=1;html=1;whiteSpace=wrap;" parent="1" vertex="1">
          <mxGeometry x="735" y="204" width="180" height="180" as="geometry" />
        </mxCell>
        <mxCell id="xqbkVaiGyp1VWLEOoLGr-25" value="" style="shape=tableRow;horizontal=0;startSize=0;swimlaneHead=0;swimlaneBody=0;fillColor=none;collapsible=0;dropTarget=0;points=[[0,0.5],[1,0.5]];portConstraint=eastwest;top=0;left=0;right=0;bottom=0;html=1;" parent="xqbkVaiGyp1VWLEOoLGr-24" vertex="1">
          <mxGeometry y="30" width="180" height="30" as="geometry" />
        </mxCell>
        <mxCell id="xqbkVaiGyp1VWLEOoLGr-26" value="PK" style="shape=partialRectangle;connectable=0;fillColor=none;top=0;left=0;bottom=0;right=0;fontStyle=1;overflow=hidden;html=1;whiteSpace=wrap;" parent="xqbkVaiGyp1VWLEOoLGr-25" vertex="1">
          <mxGeometry width="60" height="30" as="geometry">
            <mxRectangle width="60" height="30" as="alternateBounds" />
          </mxGeometry>
        </mxCell>
        <mxCell id="xqbkVaiGyp1VWLEOoLGr-27" value="IdUsuario" style="shape=partialRectangle;connectable=0;fillColor=none;top=0;left=0;bottom=0;right=0;align=left;spacingLeft=6;fontStyle=5;overflow=hidden;html=1;whiteSpace=wrap;" parent="xqbkVaiGyp1VWLEOoLGr-25" vertex="1">
          <mxGeometry x="60" width="120" height="30" as="geometry">
            <mxRectangle width="120" height="30" as="alternateBounds" />
          </mxGeometry>
        </mxCell>
        <mxCell id="xqbkVaiGyp1VWLEOoLGr-28" value="" style="shape=tableRow;horizontal=0;startSize=0;swimlaneHead=0;swimlaneBody=0;fillColor=none;collapsible=0;dropTarget=0;points=[[0,0.5],[1,0.5]];portConstraint=eastwest;top=0;left=0;right=0;bottom=1;html=1;" parent="xqbkVaiGyp1VWLEOoLGr-24" vertex="1">
          <mxGeometry y="60" width="180" height="30" as="geometry" />
        </mxCell>
        <mxCell id="xqbkVaiGyp1VWLEOoLGr-29" value="FK" style="shape=partialRectangle;connectable=0;fillColor=none;top=0;left=0;bottom=0;right=0;fontStyle=1;overflow=hidden;html=1;whiteSpace=wrap;" parent="xqbkVaiGyp1VWLEOoLGr-28" vertex="1">
          <mxGeometry width="60" height="30" as="geometry">
            <mxRectangle width="60" height="30" as="alternateBounds" />
          </mxGeometry>
        </mxCell>
        <mxCell id="xqbkVaiGyp1VWLEOoLGr-30" value="IdTipoUsuario" style="shape=partialRectangle;connectable=0;fillColor=none;top=0;left=0;bottom=0;right=0;align=left;spacingLeft=6;fontStyle=5;overflow=hidden;html=1;whiteSpace=wrap;" parent="xqbkVaiGyp1VWLEOoLGr-28" vertex="1">
          <mxGeometry x="60" width="120" height="30" as="geometry">
            <mxRectangle width="120" height="30" as="alternateBounds" />
          </mxGeometry>
        </mxCell>
        <mxCell id="xqbkVaiGyp1VWLEOoLGr-31" value="" style="shape=tableRow;horizontal=0;startSize=0;swimlaneHead=0;swimlaneBody=0;fillColor=none;collapsible=0;dropTarget=0;points=[[0,0.5],[1,0.5]];portConstraint=eastwest;top=0;left=0;right=0;bottom=0;html=1;" parent="xqbkVaiGyp1VWLEOoLGr-24" vertex="1">
          <mxGeometry y="90" width="180" height="30" as="geometry" />
        </mxCell>
        <mxCell id="xqbkVaiGyp1VWLEOoLGr-32" value="" style="shape=partialRectangle;connectable=0;fillColor=none;top=0;left=0;bottom=0;right=0;editable=1;overflow=hidden;html=1;whiteSpace=wrap;" parent="xqbkVaiGyp1VWLEOoLGr-31" vertex="1">
          <mxGeometry width="60" height="30" as="geometry">
            <mxRectangle width="60" height="30" as="alternateBounds" />
          </mxGeometry>
        </mxCell>
        <mxCell id="xqbkVaiGyp1VWLEOoLGr-33" value="Nome" style="shape=partialRectangle;connectable=0;fillColor=none;top=0;left=0;bottom=0;right=0;align=left;spacingLeft=6;overflow=hidden;html=1;whiteSpace=wrap;" parent="xqbkVaiGyp1VWLEOoLGr-31" vertex="1">
          <mxGeometry x="60" width="120" height="30" as="geometry">
            <mxRectangle width="120" height="30" as="alternateBounds" />
          </mxGeometry>
        </mxCell>
        <mxCell id="xqbkVaiGyp1VWLEOoLGr-34" value="" style="shape=tableRow;horizontal=0;startSize=0;swimlaneHead=0;swimlaneBody=0;fillColor=none;collapsible=0;dropTarget=0;points=[[0,0.5],[1,0.5]];portConstraint=eastwest;top=0;left=0;right=0;bottom=0;html=1;" parent="xqbkVaiGyp1VWLEOoLGr-24" vertex="1">
          <mxGeometry y="120" width="180" height="30" as="geometry" />
        </mxCell>
        <mxCell id="xqbkVaiGyp1VWLEOoLGr-35" value="" style="shape=partialRectangle;connectable=0;fillColor=none;top=0;left=0;bottom=0;right=0;editable=1;overflow=hidden;html=1;whiteSpace=wrap;" parent="xqbkVaiGyp1VWLEOoLGr-34" vertex="1">
          <mxGeometry width="60" height="30" as="geometry">
            <mxRectangle width="60" height="30" as="alternateBounds" />
          </mxGeometry>
        </mxCell>
        <mxCell id="xqbkVaiGyp1VWLEOoLGr-36" value="Email" style="shape=partialRectangle;connectable=0;fillColor=none;top=0;left=0;bottom=0;right=0;align=left;spacingLeft=6;overflow=hidden;html=1;whiteSpace=wrap;" parent="xqbkVaiGyp1VWLEOoLGr-34" vertex="1">
          <mxGeometry x="60" width="120" height="30" as="geometry">
            <mxRectangle width="120" height="30" as="alternateBounds" />
          </mxGeometry>
        </mxCell>
        <mxCell id="xqbkVaiGyp1VWLEOoLGr-37" style="shape=tableRow;horizontal=0;startSize=0;swimlaneHead=0;swimlaneBody=0;fillColor=none;collapsible=0;dropTarget=0;points=[[0,0.5],[1,0.5]];portConstraint=eastwest;top=0;left=0;right=0;bottom=0;html=1;" parent="xqbkVaiGyp1VWLEOoLGr-24" vertex="1">
          <mxGeometry y="150" width="180" height="30" as="geometry" />
        </mxCell>
        <mxCell id="xqbkVaiGyp1VWLEOoLGr-38" style="shape=partialRectangle;connectable=0;fillColor=none;top=0;left=0;bottom=0;right=0;editable=1;overflow=hidden;html=1;whiteSpace=wrap;" parent="xqbkVaiGyp1VWLEOoLGr-37" vertex="1">
          <mxGeometry width="60" height="30" as="geometry">
            <mxRectangle width="60" height="30" as="alternateBounds" />
          </mxGeometry>
        </mxCell>
        <mxCell id="xqbkVaiGyp1VWLEOoLGr-39" value="Senha" style="shape=partialRectangle;connectable=0;fillColor=none;top=0;left=0;bottom=0;right=0;align=left;spacingLeft=6;overflow=hidden;html=1;whiteSpace=wrap;" parent="xqbkVaiGyp1VWLEOoLGr-37" vertex="1">
          <mxGeometry x="60" width="120" height="30" as="geometry">
            <mxRectangle width="120" height="30" as="alternateBounds" />
          </mxGeometry>
        </mxCell>
        <mxCell id="rDBvauipaGxmnxQRqZRf-2" style="edgeStyle=orthogonalEdgeStyle;rounded=0;orthogonalLoop=1;jettySize=auto;html=1;exitX=0;exitY=0.5;exitDx=0;exitDy=0;entryX=1;entryY=0.5;entryDx=0;entryDy=0;endArrow=ERoneToMany;endFill=0;" parent="1" source="hPGfK_wV92hM9tZzi88i-2" target="xqbkVaiGyp1VWLEOoLGr-28" edge="1">
          <mxGeometry relative="1" as="geometry" />
        </mxCell>
        <mxCell id="rDBvauipaGxmnxQRqZRf-3" value="PresencasEvento" style="shape=table;startSize=30;container=1;collapsible=1;childLayout=tableLayout;fixedRows=1;rowLines=0;fontStyle=1;align=center;resizeLast=1;html=1;whiteSpace=wrap;" parent="1" vertex="1">
          <mxGeometry x="475" y="204" width="180" height="150" as="geometry" />
        </mxCell>
        <mxCell id="rDBvauipaGxmnxQRqZRf-4" value="" style="shape=tableRow;horizontal=0;startSize=0;swimlaneHead=0;swimlaneBody=0;fillColor=none;collapsible=0;dropTarget=0;points=[[0,0.5],[1,0.5]];portConstraint=eastwest;top=0;left=0;right=0;bottom=0;html=1;" parent="rDBvauipaGxmnxQRqZRf-3" vertex="1">
          <mxGeometry y="30" width="180" height="30" as="geometry" />
        </mxCell>
        <mxCell id="rDBvauipaGxmnxQRqZRf-5" value="PK" style="shape=partialRectangle;connectable=0;fillColor=none;top=0;left=0;bottom=0;right=0;fontStyle=1;overflow=hidden;html=1;whiteSpace=wrap;" parent="rDBvauipaGxmnxQRqZRf-4" vertex="1">
          <mxGeometry width="60" height="30" as="geometry">
            <mxRectangle width="60" height="30" as="alternateBounds" />
          </mxGeometry>
        </mxCell>
        <mxCell id="rDBvauipaGxmnxQRqZRf-6" value="IdPresencaEvento" style="shape=partialRectangle;connectable=0;fillColor=none;top=0;left=0;bottom=0;right=0;align=left;spacingLeft=6;fontStyle=5;overflow=hidden;html=1;whiteSpace=wrap;" parent="rDBvauipaGxmnxQRqZRf-4" vertex="1">
          <mxGeometry x="60" width="120" height="30" as="geometry">
            <mxRectangle width="120" height="30" as="alternateBounds" />
          </mxGeometry>
        </mxCell>
        <mxCell id="rDBvauipaGxmnxQRqZRf-25" style="shape=tableRow;horizontal=0;startSize=0;swimlaneHead=0;swimlaneBody=0;fillColor=none;collapsible=0;dropTarget=0;points=[[0,0.5],[1,0.5]];portConstraint=eastwest;top=0;left=0;right=0;bottom=0;html=1;" parent="rDBvauipaGxmnxQRqZRf-3" vertex="1">
          <mxGeometry y="60" width="180" height="30" as="geometry" />
        </mxCell>
        <mxCell id="rDBvauipaGxmnxQRqZRf-26" value="FK1" style="shape=partialRectangle;connectable=0;fillColor=none;top=0;left=0;bottom=0;right=0;fontStyle=1;overflow=hidden;html=1;whiteSpace=wrap;" parent="rDBvauipaGxmnxQRqZRf-25" vertex="1">
          <mxGeometry width="60" height="30" as="geometry">
            <mxRectangle width="60" height="30" as="alternateBounds" />
          </mxGeometry>
        </mxCell>
        <mxCell id="rDBvauipaGxmnxQRqZRf-27" value="IdUsuario" style="shape=partialRectangle;connectable=0;fillColor=none;top=0;left=0;bottom=0;right=0;align=left;spacingLeft=6;fontStyle=5;overflow=hidden;html=1;whiteSpace=wrap;" parent="rDBvauipaGxmnxQRqZRf-25" vertex="1">
          <mxGeometry x="60" width="120" height="30" as="geometry">
            <mxRectangle width="120" height="30" as="alternateBounds" />
          </mxGeometry>
        </mxCell>
        <mxCell id="rDBvauipaGxmnxQRqZRf-7" value="" style="shape=tableRow;horizontal=0;startSize=0;swimlaneHead=0;swimlaneBody=0;fillColor=none;collapsible=0;dropTarget=0;points=[[0,0.5],[1,0.5]];portConstraint=eastwest;top=0;left=0;right=0;bottom=1;html=1;" parent="rDBvauipaGxmnxQRqZRf-3" vertex="1">
          <mxGeometry y="90" width="180" height="30" as="geometry" />
        </mxCell>
        <mxCell id="rDBvauipaGxmnxQRqZRf-8" value="FK2" style="shape=partialRectangle;connectable=0;fillColor=none;top=0;left=0;bottom=0;right=0;fontStyle=1;overflow=hidden;html=1;whiteSpace=wrap;" parent="rDBvauipaGxmnxQRqZRf-7" vertex="1">
          <mxGeometry width="60" height="30" as="geometry">
            <mxRectangle width="60" height="30" as="alternateBounds" />
          </mxGeometry>
        </mxCell>
        <mxCell id="rDBvauipaGxmnxQRqZRf-9" value="IdEvento" style="shape=partialRectangle;connectable=0;fillColor=none;top=0;left=0;bottom=0;right=0;align=left;spacingLeft=6;fontStyle=5;overflow=hidden;html=1;whiteSpace=wrap;" parent="rDBvauipaGxmnxQRqZRf-7" vertex="1">
          <mxGeometry x="60" width="120" height="30" as="geometry">
            <mxRectangle width="120" height="30" as="alternateBounds" />
          </mxGeometry>
        </mxCell>
        <mxCell id="rDBvauipaGxmnxQRqZRf-22" style="shape=tableRow;horizontal=0;startSize=0;swimlaneHead=0;swimlaneBody=0;fillColor=none;collapsible=0;dropTarget=0;points=[[0,0.5],[1,0.5]];portConstraint=eastwest;top=0;left=0;right=0;bottom=1;html=1;" parent="rDBvauipaGxmnxQRqZRf-3" vertex="1">
          <mxGeometry y="120" width="180" height="30" as="geometry" />
        </mxCell>
        <mxCell id="rDBvauipaGxmnxQRqZRf-23" style="shape=partialRectangle;connectable=0;fillColor=none;top=0;left=0;bottom=0;right=0;fontStyle=1;overflow=hidden;html=1;whiteSpace=wrap;" parent="rDBvauipaGxmnxQRqZRf-22" vertex="1">
          <mxGeometry width="60" height="30" as="geometry">
            <mxRectangle width="60" height="30" as="alternateBounds" />
          </mxGeometry>
        </mxCell>
        <mxCell id="rDBvauipaGxmnxQRqZRf-24" value="&lt;span style=&quot;&quot;&gt;Situacao&lt;/span&gt;" style="shape=partialRectangle;connectable=0;fillColor=none;top=0;left=0;bottom=0;right=0;align=left;spacingLeft=6;fontStyle=0;overflow=hidden;html=1;whiteSpace=wrap;" parent="rDBvauipaGxmnxQRqZRf-22" vertex="1">
          <mxGeometry x="60" width="120" height="30" as="geometry">
            <mxRectangle width="120" height="30" as="alternateBounds" />
          </mxGeometry>
        </mxCell>
        <mxCell id="s-ch1ZFBF_oa3OEAjtPF-5" style="edgeStyle=orthogonalEdgeStyle;rounded=0;orthogonalLoop=1;jettySize=auto;html=1;exitX=0;exitY=0.5;exitDx=0;exitDy=0;entryX=1;entryY=0.5;entryDx=0;entryDy=0;endArrow=ERoneToMany;endFill=0;" parent="1" source="xqbkVaiGyp1VWLEOoLGr-25" target="rDBvauipaGxmnxQRqZRf-25" edge="1">
          <mxGeometry relative="1" as="geometry" />
        </mxCell>
        <mxCell id="s-ch1ZFBF_oa3OEAjtPF-6" value="Evento" style="shape=table;startSize=30;container=1;collapsible=1;childLayout=tableLayout;fixedRows=1;rowLines=0;fontStyle=1;align=center;resizeLast=1;html=1;whiteSpace=wrap;strokeColor=default;swimlaneLine=1;" parent="1" vertex="1">
          <mxGeometry x="245" y="204" width="180" height="210" as="geometry" />
        </mxCell>
        <mxCell id="s-ch1ZFBF_oa3OEAjtPF-7" value="" style="shape=tableRow;horizontal=0;startSize=0;swimlaneHead=0;swimlaneBody=0;fillColor=none;collapsible=0;dropTarget=0;points=[[0,0.5],[1,0.5]];portConstraint=eastwest;top=0;left=0;right=0;bottom=0;html=1;" parent="s-ch1ZFBF_oa3OEAjtPF-6" vertex="1">
          <mxGeometry y="30" width="180" height="30" as="geometry" />
        </mxCell>
        <mxCell id="s-ch1ZFBF_oa3OEAjtPF-8" value="PK" style="shape=partialRectangle;connectable=0;fillColor=none;top=0;left=0;bottom=0;right=0;fontStyle=1;overflow=hidden;html=1;whiteSpace=wrap;" parent="s-ch1ZFBF_oa3OEAjtPF-7" vertex="1">
          <mxGeometry width="60" height="30" as="geometry">
            <mxRectangle width="60" height="30" as="alternateBounds" />
          </mxGeometry>
        </mxCell>
        <mxCell id="s-ch1ZFBF_oa3OEAjtPF-9" value="IdEvento" style="shape=partialRectangle;connectable=0;fillColor=none;top=0;left=0;bottom=0;right=0;align=left;spacingLeft=6;fontStyle=5;overflow=hidden;html=1;whiteSpace=wrap;" parent="s-ch1ZFBF_oa3OEAjtPF-7" vertex="1">
          <mxGeometry x="60" width="120" height="30" as="geometry">
            <mxRectangle width="120" height="30" as="alternateBounds" />
          </mxGeometry>
        </mxCell>
        <mxCell id="s-ch1ZFBF_oa3OEAjtPF-10" style="shape=tableRow;horizontal=0;startSize=0;swimlaneHead=0;swimlaneBody=0;fillColor=none;collapsible=0;dropTarget=0;points=[[0,0.5],[1,0.5]];portConstraint=eastwest;top=0;left=0;right=0;bottom=0;html=1;" parent="s-ch1ZFBF_oa3OEAjtPF-6" vertex="1">
          <mxGeometry y="60" width="180" height="30" as="geometry" />
        </mxCell>
        <mxCell id="s-ch1ZFBF_oa3OEAjtPF-11" value="FK1" style="shape=partialRectangle;connectable=0;fillColor=none;top=0;left=0;bottom=0;right=0;fontStyle=1;overflow=hidden;html=1;whiteSpace=wrap;" parent="s-ch1ZFBF_oa3OEAjtPF-10" vertex="1">
          <mxGeometry width="60" height="30" as="geometry">
            <mxRectangle width="60" height="30" as="alternateBounds" />
          </mxGeometry>
        </mxCell>
        <mxCell id="s-ch1ZFBF_oa3OEAjtPF-12" value="IdInstituicao" style="shape=partialRectangle;connectable=0;fillColor=none;top=0;left=0;bottom=0;right=0;align=left;spacingLeft=6;fontStyle=5;overflow=hidden;html=1;whiteSpace=wrap;" parent="s-ch1ZFBF_oa3OEAjtPF-10" vertex="1">
          <mxGeometry x="60" width="120" height="30" as="geometry">
            <mxRectangle width="120" height="30" as="alternateBounds" />
          </mxGeometry>
        </mxCell>
        <mxCell id="s-ch1ZFBF_oa3OEAjtPF-13" value="" style="shape=tableRow;horizontal=0;startSize=0;swimlaneHead=0;swimlaneBody=0;fillColor=none;collapsible=0;dropTarget=0;points=[[0,0.5],[1,0.5]];portConstraint=eastwest;top=0;left=0;right=0;bottom=1;html=1;" parent="s-ch1ZFBF_oa3OEAjtPF-6" vertex="1">
          <mxGeometry y="90" width="180" height="30" as="geometry" />
        </mxCell>
        <mxCell id="s-ch1ZFBF_oa3OEAjtPF-14" value="FK2" style="shape=partialRectangle;connectable=0;fillColor=none;top=0;left=0;bottom=0;right=0;fontStyle=1;overflow=hidden;html=1;whiteSpace=wrap;" parent="s-ch1ZFBF_oa3OEAjtPF-13" vertex="1">
          <mxGeometry width="60" height="30" as="geometry">
            <mxRectangle width="60" height="30" as="alternateBounds" />
          </mxGeometry>
        </mxCell>
        <mxCell id="s-ch1ZFBF_oa3OEAjtPF-15" value="IdTipoEvento" style="shape=partialRectangle;connectable=0;fillColor=none;top=0;left=0;bottom=0;right=0;align=left;spacingLeft=6;fontStyle=5;overflow=hidden;html=1;whiteSpace=wrap;" parent="s-ch1ZFBF_oa3OEAjtPF-13" vertex="1">
          <mxGeometry x="60" width="120" height="30" as="geometry">
            <mxRectangle width="120" height="30" as="alternateBounds" />
          </mxGeometry>
        </mxCell>
        <mxCell id="s-ch1ZFBF_oa3OEAjtPF-16" style="shape=tableRow;horizontal=0;startSize=0;swimlaneHead=0;swimlaneBody=0;fillColor=none;collapsible=0;dropTarget=0;points=[[0,0.5],[1,0.5]];portConstraint=eastwest;top=0;left=0;right=0;bottom=1;html=1;strokeColor=inherit;" parent="s-ch1ZFBF_oa3OEAjtPF-6" vertex="1">
          <mxGeometry y="120" width="180" height="30" as="geometry" />
        </mxCell>
        <mxCell id="s-ch1ZFBF_oa3OEAjtPF-17" style="shape=partialRectangle;connectable=0;fillColor=none;top=0;left=0;bottom=0;right=0;fontStyle=1;overflow=hidden;html=1;whiteSpace=wrap;" parent="s-ch1ZFBF_oa3OEAjtPF-16" vertex="1">
          <mxGeometry width="60" height="30" as="geometry">
            <mxRectangle width="60" height="30" as="alternateBounds" />
          </mxGeometry>
        </mxCell>
        <mxCell id="s-ch1ZFBF_oa3OEAjtPF-18" value="&lt;span style=&quot;&quot;&gt;NomeEvento&lt;/span&gt;" style="shape=partialRectangle;connectable=0;fillColor=none;top=0;left=0;bottom=0;right=0;align=left;spacingLeft=6;fontStyle=0;overflow=hidden;html=1;whiteSpace=wrap;strokeColor=default;" parent="s-ch1ZFBF_oa3OEAjtPF-16" vertex="1">
          <mxGeometry x="60" width="120" height="30" as="geometry">
            <mxRectangle width="120" height="30" as="alternateBounds" />
          </mxGeometry>
        </mxCell>
        <mxCell id="s-ch1ZFBF_oa3OEAjtPF-37" style="shape=tableRow;horizontal=0;startSize=0;swimlaneHead=0;swimlaneBody=0;fillColor=none;collapsible=0;dropTarget=0;points=[[0,0.5],[1,0.5]];portConstraint=eastwest;top=0;left=0;right=0;bottom=1;html=1;" parent="s-ch1ZFBF_oa3OEAjtPF-6" vertex="1">
          <mxGeometry y="150" width="180" height="30" as="geometry" />
        </mxCell>
        <mxCell id="s-ch1ZFBF_oa3OEAjtPF-38" style="shape=partialRectangle;connectable=0;fillColor=none;top=0;left=0;bottom=0;right=0;fontStyle=1;overflow=hidden;html=1;whiteSpace=wrap;" parent="s-ch1ZFBF_oa3OEAjtPF-37" vertex="1">
          <mxGeometry width="60" height="30" as="geometry">
            <mxRectangle width="60" height="30" as="alternateBounds" />
          </mxGeometry>
        </mxCell>
        <mxCell id="s-ch1ZFBF_oa3OEAjtPF-39" value="Descricao" style="shape=partialRectangle;connectable=0;fillColor=none;top=0;left=0;bottom=0;right=0;align=left;spacingLeft=6;fontStyle=0;overflow=hidden;html=1;whiteSpace=wrap;strokeColor=default;" parent="s-ch1ZFBF_oa3OEAjtPF-37" vertex="1">
          <mxGeometry x="60" width="120" height="30" as="geometry">
            <mxRectangle width="120" height="30" as="alternateBounds" />
          </mxGeometry>
        </mxCell>
        <mxCell id="s-ch1ZFBF_oa3OEAjtPF-34" style="shape=tableRow;horizontal=0;startSize=0;swimlaneHead=0;swimlaneBody=0;fillColor=none;collapsible=0;dropTarget=0;points=[[0,0.5],[1,0.5]];portConstraint=eastwest;top=0;left=0;right=0;bottom=1;html=1;" parent="s-ch1ZFBF_oa3OEAjtPF-6" vertex="1">
          <mxGeometry y="180" width="180" height="30" as="geometry" />
        </mxCell>
        <mxCell id="s-ch1ZFBF_oa3OEAjtPF-35" style="shape=partialRectangle;connectable=0;fillColor=none;top=0;left=0;bottom=0;right=0;fontStyle=1;overflow=hidden;html=1;whiteSpace=wrap;" parent="s-ch1ZFBF_oa3OEAjtPF-34" vertex="1">
          <mxGeometry width="60" height="30" as="geometry">
            <mxRectangle width="60" height="30" as="alternateBounds" />
          </mxGeometry>
        </mxCell>
        <mxCell id="s-ch1ZFBF_oa3OEAjtPF-36" value="DataEvento" style="shape=partialRectangle;connectable=0;fillColor=none;top=0;left=0;bottom=0;right=0;align=left;spacingLeft=6;fontStyle=0;overflow=hidden;html=1;whiteSpace=wrap;strokeColor=default;" parent="s-ch1ZFBF_oa3OEAjtPF-34" vertex="1">
          <mxGeometry x="60" width="120" height="30" as="geometry">
            <mxRectangle width="120" height="30" as="alternateBounds" />
          </mxGeometry>
        </mxCell>
        <mxCell id="s-ch1ZFBF_oa3OEAjtPF-96" style="edgeStyle=orthogonalEdgeStyle;rounded=0;orthogonalLoop=1;jettySize=auto;html=1;exitX=1;exitY=0.5;exitDx=0;exitDy=0;entryX=0;entryY=0.5;entryDx=0;entryDy=0;endArrow=ERoneToMany;endFill=0;" parent="1" source="s-ch1ZFBF_oa3OEAjtPF-7" target="rDBvauipaGxmnxQRqZRf-7" edge="1">
          <mxGeometry relative="1" as="geometry" />
        </mxCell>
        <mxCell id="c3DySWaS_NolMdvDocjY-2" style="edgeStyle=orthogonalEdgeStyle;rounded=0;orthogonalLoop=1;jettySize=auto;html=1;exitX=1;exitY=0.5;exitDx=0;exitDy=0;entryX=0;entryY=0.5;entryDx=0;entryDy=0;endArrow=ERoneToMany;endFill=0;" parent="1" source="xqbkVaiGyp1VWLEOoLGr-12" target="s-ch1ZFBF_oa3OEAjtPF-10" edge="1">
          <mxGeometry relative="1" as="geometry" />
        </mxCell>
        <mxCell id="c3DySWaS_NolMdvDocjY-4" style="edgeStyle=orthogonalEdgeStyle;rounded=0;orthogonalLoop=1;jettySize=auto;html=1;exitX=1;exitY=0.5;exitDx=0;exitDy=0;entryX=0;entryY=0.5;entryDx=0;entryDy=0;endArrow=ERoneToMany;endFill=0;" parent="1" source="xqbkVaiGyp1VWLEOoLGr-5" target="s-ch1ZFBF_oa3OEAjtPF-13" edge="1">
          <mxGeometry relative="1" as="geometry" />
        </mxCell>
        <mxCell id="c3DySWaS_NolMdvDocjY-5" value="Comentario" style="shape=table;startSize=30;container=1;collapsible=1;childLayout=tableLayout;fixedRows=1;rowLines=0;fontStyle=1;align=center;resizeLast=1;html=1;whiteSpace=wrap;" parent="1" vertex="1">
          <mxGeometry x="475" y="444" width="180" height="180" as="geometry" />
        </mxCell>
        <mxCell id="c3DySWaS_NolMdvDocjY-6" value="" style="shape=tableRow;horizontal=0;startSize=0;swimlaneHead=0;swimlaneBody=0;fillColor=none;collapsible=0;dropTarget=0;points=[[0,0.5],[1,0.5]];portConstraint=eastwest;top=0;left=0;right=0;bottom=0;html=1;" parent="c3DySWaS_NolMdvDocjY-5" vertex="1">
          <mxGeometry y="30" width="180" height="30" as="geometry" />
        </mxCell>
        <mxCell id="c3DySWaS_NolMdvDocjY-7" value="PK" style="shape=partialRectangle;connectable=0;fillColor=none;top=0;left=0;bottom=0;right=0;fontStyle=1;overflow=hidden;html=1;whiteSpace=wrap;" parent="c3DySWaS_NolMdvDocjY-6" vertex="1">
          <mxGeometry width="60" height="30" as="geometry">
            <mxRectangle width="60" height="30" as="alternateBounds" />
          </mxGeometry>
        </mxCell>
        <mxCell id="c3DySWaS_NolMdvDocjY-8" value="IdComentario" style="shape=partialRectangle;connectable=0;fillColor=none;top=0;left=0;bottom=0;right=0;align=left;spacingLeft=6;fontStyle=5;overflow=hidden;html=1;whiteSpace=wrap;" parent="c3DySWaS_NolMdvDocjY-6" vertex="1">
          <mxGeometry x="60" width="120" height="30" as="geometry">
            <mxRectangle width="120" height="30" as="alternateBounds" />
          </mxGeometry>
        </mxCell>
        <mxCell id="c3DySWaS_NolMdvDocjY-9" style="shape=tableRow;horizontal=0;startSize=0;swimlaneHead=0;swimlaneBody=0;fillColor=none;collapsible=0;dropTarget=0;points=[[0,0.5],[1,0.5]];portConstraint=eastwest;top=0;left=0;right=0;bottom=0;html=1;" parent="c3DySWaS_NolMdvDocjY-5" vertex="1">
          <mxGeometry y="60" width="180" height="30" as="geometry" />
        </mxCell>
        <mxCell id="c3DySWaS_NolMdvDocjY-10" value="FK1" style="shape=partialRectangle;connectable=0;fillColor=none;top=0;left=0;bottom=0;right=0;fontStyle=1;overflow=hidden;html=1;whiteSpace=wrap;" parent="c3DySWaS_NolMdvDocjY-9" vertex="1">
          <mxGeometry width="60" height="30" as="geometry">
            <mxRectangle width="60" height="30" as="alternateBounds" />
          </mxGeometry>
        </mxCell>
        <mxCell id="c3DySWaS_NolMdvDocjY-11" value="IdEvento" style="shape=partialRectangle;connectable=0;fillColor=none;top=0;left=0;bottom=0;right=0;align=left;spacingLeft=6;fontStyle=5;overflow=hidden;html=1;whiteSpace=wrap;" parent="c3DySWaS_NolMdvDocjY-9" vertex="1">
          <mxGeometry x="60" width="120" height="30" as="geometry">
            <mxRectangle width="120" height="30" as="alternateBounds" />
          </mxGeometry>
        </mxCell>
        <mxCell id="c3DySWaS_NolMdvDocjY-12" value="" style="shape=tableRow;horizontal=0;startSize=0;swimlaneHead=0;swimlaneBody=0;fillColor=none;collapsible=0;dropTarget=0;points=[[0,0.5],[1,0.5]];portConstraint=eastwest;top=0;left=0;right=0;bottom=1;html=1;" parent="c3DySWaS_NolMdvDocjY-5" vertex="1">
          <mxGeometry y="90" width="180" height="30" as="geometry" />
        </mxCell>
        <mxCell id="c3DySWaS_NolMdvDocjY-13" value="FK2" style="shape=partialRectangle;connectable=0;fillColor=none;top=0;left=0;bottom=0;right=0;fontStyle=1;overflow=hidden;html=1;whiteSpace=wrap;" parent="c3DySWaS_NolMdvDocjY-12" vertex="1">
          <mxGeometry width="60" height="30" as="geometry">
            <mxRectangle width="60" height="30" as="alternateBounds" />
          </mxGeometry>
        </mxCell>
        <mxCell id="c3DySWaS_NolMdvDocjY-14" value="IdUsuario" style="shape=partialRectangle;connectable=0;fillColor=none;top=0;left=0;bottom=0;right=0;align=left;spacingLeft=6;fontStyle=5;overflow=hidden;html=1;whiteSpace=wrap;" parent="c3DySWaS_NolMdvDocjY-12" vertex="1">
          <mxGeometry x="60" width="120" height="30" as="geometry">
            <mxRectangle width="120" height="30" as="alternateBounds" />
          </mxGeometry>
        </mxCell>
        <mxCell id="c3DySWaS_NolMdvDocjY-15" style="shape=tableRow;horizontal=0;startSize=0;swimlaneHead=0;swimlaneBody=0;fillColor=none;collapsible=0;dropTarget=0;points=[[0,0.5],[1,0.5]];portConstraint=eastwest;top=0;left=0;right=0;bottom=1;html=1;" parent="c3DySWaS_NolMdvDocjY-5" vertex="1">
          <mxGeometry y="120" width="180" height="30" as="geometry" />
        </mxCell>
        <mxCell id="c3DySWaS_NolMdvDocjY-16" style="shape=partialRectangle;connectable=0;fillColor=none;top=0;left=0;bottom=0;right=0;fontStyle=1;overflow=hidden;html=1;whiteSpace=wrap;" parent="c3DySWaS_NolMdvDocjY-15" vertex="1">
          <mxGeometry width="60" height="30" as="geometry">
            <mxRectangle width="60" height="30" as="alternateBounds" />
          </mxGeometry>
        </mxCell>
        <mxCell id="c3DySWaS_NolMdvDocjY-17" value="&lt;span style=&quot;&quot;&gt;Descricao&lt;/span&gt;" style="shape=partialRectangle;connectable=0;fillColor=none;top=0;left=0;bottom=0;right=0;align=left;spacingLeft=6;fontStyle=0;overflow=hidden;html=1;whiteSpace=wrap;" parent="c3DySWaS_NolMdvDocjY-15" vertex="1">
          <mxGeometry x="60" width="120" height="30" as="geometry">
            <mxRectangle width="120" height="30" as="alternateBounds" />
          </mxGeometry>
        </mxCell>
        <mxCell id="c3DySWaS_NolMdvDocjY-18" style="shape=tableRow;horizontal=0;startSize=0;swimlaneHead=0;swimlaneBody=0;fillColor=none;collapsible=0;dropTarget=0;points=[[0,0.5],[1,0.5]];portConstraint=eastwest;top=0;left=0;right=0;bottom=1;html=1;" parent="c3DySWaS_NolMdvDocjY-5" vertex="1">
          <mxGeometry y="150" width="180" height="30" as="geometry" />
        </mxCell>
        <mxCell id="c3DySWaS_NolMdvDocjY-19" style="shape=partialRectangle;connectable=0;fillColor=none;top=0;left=0;bottom=0;right=0;fontStyle=1;overflow=hidden;html=1;whiteSpace=wrap;" parent="c3DySWaS_NolMdvDocjY-18" vertex="1">
          <mxGeometry width="60" height="30" as="geometry">
            <mxRectangle width="60" height="30" as="alternateBounds" />
          </mxGeometry>
        </mxCell>
        <mxCell id="c3DySWaS_NolMdvDocjY-20" value="Exibe" style="shape=partialRectangle;connectable=0;fillColor=none;top=0;left=0;bottom=0;right=0;align=left;spacingLeft=6;fontStyle=0;overflow=hidden;html=1;whiteSpace=wrap;" parent="c3DySWaS_NolMdvDocjY-18" vertex="1">
          <mxGeometry x="60" width="120" height="30" as="geometry">
            <mxRectangle width="120" height="30" as="alternateBounds" />
          </mxGeometry>
        </mxCell>
        <mxCell id="c3DySWaS_NolMdvDocjY-21" style="edgeStyle=orthogonalEdgeStyle;rounded=0;orthogonalLoop=1;jettySize=auto;html=1;exitX=0;exitY=0.5;exitDx=0;exitDy=0;entryX=1;entryY=0.5;entryDx=0;entryDy=0;endArrow=ERoneToMany;endFill=0;" parent="1" source="xqbkVaiGyp1VWLEOoLGr-25" target="c3DySWaS_NolMdvDocjY-12" edge="1">
          <mxGeometry relative="1" as="geometry" />
        </mxCell>
        <mxCell id="c3DySWaS_NolMdvDocjY-22" style="edgeStyle=orthogonalEdgeStyle;rounded=0;orthogonalLoop=1;jettySize=auto;html=1;exitX=1;exitY=0.5;exitDx=0;exitDy=0;entryX=0;entryY=0.5;entryDx=0;entryDy=0;endArrow=ERoneToMany;endFill=0;" parent="1" source="s-ch1ZFBF_oa3OEAjtPF-7" target="c3DySWaS_NolMdvDocjY-9" edge="1">
          <mxGeometry relative="1" as="geometry" />
        </mxCell>
      </root>
    </mxGraphModel>
  </diagram>
  <diagram id="SFV5358CdU4X8fFQeKQY" name="fisico">
    <mxGraphModel dx="1050" dy="574" grid="1" gridSize="10" guides="1" tooltips="1" connect="1" arrows="1" fold="1" page="1" pageScale="1" pageWidth="1169" pageHeight="827" math="0" shadow="0">
      <root>
        <mxCell id="0" />
        <mxCell id="1" parent="0" />
        <mxCell id="-8IyOOPCJsGeNDWP_MvK-1" value="Instituicao" style="shape=table;startSize=30;container=1;collapsible=0;childLayout=tableLayout;strokeColor=default;fontSize=16;" parent="1" vertex="1">
          <mxGeometry x="60" y="249" width="510" height="90" as="geometry" />
        </mxCell>
        <mxCell id="-8IyOOPCJsGeNDWP_MvK-2" value="" style="shape=tableRow;horizontal=0;startSize=0;swimlaneHead=0;swimlaneBody=0;strokeColor=inherit;top=0;left=0;bottom=0;right=0;collapsible=0;dropTarget=0;fillColor=none;points=[[0,0.5],[1,0.5]];portConstraint=eastwest;fontSize=16;" parent="-8IyOOPCJsGeNDWP_MvK-1" vertex="1">
          <mxGeometry y="30" width="510" height="20" as="geometry" />
        </mxCell>
        <mxCell id="-8IyOOPCJsGeNDWP_MvK-3" value="&lt;font style=&quot;font-size: 12px;&quot;&gt;IdInstituicao&lt;/font&gt;" style="shape=partialRectangle;html=1;whiteSpace=wrap;connectable=0;strokeColor=inherit;overflow=hidden;fillColor=none;top=0;left=0;bottom=0;right=0;pointerEvents=1;fontSize=12;" parent="-8IyOOPCJsGeNDWP_MvK-2" vertex="1">
          <mxGeometry width="74" height="20" as="geometry">
            <mxRectangle width="74" height="20" as="alternateBounds" />
          </mxGeometry>
        </mxCell>
        <mxCell id="-8IyOOPCJsGeNDWP_MvK-4" value="&lt;font style=&quot;font-size: 12px;&quot;&gt;CNPJ&lt;/font&gt;" style="shape=partialRectangle;html=1;whiteSpace=wrap;connectable=0;strokeColor=inherit;overflow=hidden;fillColor=none;top=0;left=0;bottom=0;right=0;pointerEvents=1;fontSize=12;" parent="-8IyOOPCJsGeNDWP_MvK-2" vertex="1">
          <mxGeometry x="74" width="126" height="20" as="geometry">
            <mxRectangle width="126" height="20" as="alternateBounds" />
          </mxGeometry>
        </mxCell>
        <mxCell id="-8IyOOPCJsGeNDWP_MvK-5" value="NomeFantasia" style="shape=partialRectangle;html=1;whiteSpace=wrap;connectable=0;strokeColor=inherit;overflow=hidden;fillColor=none;top=0;left=0;bottom=0;right=0;pointerEvents=1;fontSize=12;" parent="-8IyOOPCJsGeNDWP_MvK-2" vertex="1">
          <mxGeometry x="200" width="130" height="20" as="geometry">
            <mxRectangle width="130" height="20" as="alternateBounds" />
          </mxGeometry>
        </mxCell>
        <mxCell id="-8IyOOPCJsGeNDWP_MvK-6" value="&lt;font style=&quot;font-size: 12px;&quot;&gt;Endereco&lt;/font&gt;" style="shape=partialRectangle;html=1;whiteSpace=wrap;connectable=0;strokeColor=inherit;overflow=hidden;fillColor=none;top=0;left=0;bottom=0;right=0;pointerEvents=1;fontSize=12;" parent="-8IyOOPCJsGeNDWP_MvK-2" vertex="1">
          <mxGeometry x="330" width="180" height="20" as="geometry">
            <mxRectangle width="180" height="20" as="alternateBounds" />
          </mxGeometry>
        </mxCell>
        <mxCell id="-8IyOOPCJsGeNDWP_MvK-7" value="" style="shape=tableRow;horizontal=0;startSize=0;swimlaneHead=0;swimlaneBody=0;strokeColor=inherit;top=0;left=0;bottom=0;right=0;collapsible=0;dropTarget=0;fillColor=none;points=[[0,0.5],[1,0.5]];portConstraint=eastwest;fontSize=16;" parent="-8IyOOPCJsGeNDWP_MvK-1" vertex="1">
          <mxGeometry y="50" width="510" height="20" as="geometry" />
        </mxCell>
        <mxCell id="-8IyOOPCJsGeNDWP_MvK-8" value="" style="shape=partialRectangle;html=1;whiteSpace=wrap;connectable=0;strokeColor=inherit;overflow=hidden;fillColor=none;top=0;left=0;bottom=0;right=0;pointerEvents=1;fontSize=12;" parent="-8IyOOPCJsGeNDWP_MvK-7" vertex="1">
          <mxGeometry width="74" height="20" as="geometry">
            <mxRectangle width="74" height="20" as="alternateBounds" />
          </mxGeometry>
        </mxCell>
        <mxCell id="-8IyOOPCJsGeNDWP_MvK-9" value="" style="shape=partialRectangle;html=1;whiteSpace=wrap;connectable=0;strokeColor=inherit;overflow=hidden;fillColor=none;top=0;left=0;bottom=0;right=0;pointerEvents=1;fontSize=12;" parent="-8IyOOPCJsGeNDWP_MvK-7" vertex="1">
          <mxGeometry x="74" width="126" height="20" as="geometry">
            <mxRectangle width="126" height="20" as="alternateBounds" />
          </mxGeometry>
        </mxCell>
        <mxCell id="-8IyOOPCJsGeNDWP_MvK-10" value="" style="shape=partialRectangle;html=1;whiteSpace=wrap;connectable=0;strokeColor=inherit;overflow=hidden;fillColor=none;top=0;left=0;bottom=0;right=0;pointerEvents=1;fontSize=12;" parent="-8IyOOPCJsGeNDWP_MvK-7" vertex="1">
          <mxGeometry x="200" width="130" height="20" as="geometry">
            <mxRectangle width="130" height="20" as="alternateBounds" />
          </mxGeometry>
        </mxCell>
        <mxCell id="-8IyOOPCJsGeNDWP_MvK-11" style="shape=partialRectangle;html=1;whiteSpace=wrap;connectable=0;strokeColor=inherit;overflow=hidden;fillColor=none;top=0;left=0;bottom=0;right=0;pointerEvents=1;fontSize=12;" parent="-8IyOOPCJsGeNDWP_MvK-7" vertex="1">
          <mxGeometry x="330" width="180" height="20" as="geometry">
            <mxRectangle width="180" height="20" as="alternateBounds" />
          </mxGeometry>
        </mxCell>
        <mxCell id="-8IyOOPCJsGeNDWP_MvK-12" value="" style="shape=tableRow;horizontal=0;startSize=0;swimlaneHead=0;swimlaneBody=0;strokeColor=inherit;top=0;left=0;bottom=0;right=0;collapsible=0;dropTarget=0;fillColor=none;points=[[0,0.5],[1,0.5]];portConstraint=eastwest;fontSize=16;" parent="-8IyOOPCJsGeNDWP_MvK-1" vertex="1">
          <mxGeometry y="70" width="510" height="20" as="geometry" />
        </mxCell>
        <mxCell id="-8IyOOPCJsGeNDWP_MvK-13" value="" style="shape=partialRectangle;html=1;whiteSpace=wrap;connectable=0;strokeColor=inherit;overflow=hidden;fillColor=none;top=0;left=0;bottom=0;right=0;pointerEvents=1;fontSize=12;" parent="-8IyOOPCJsGeNDWP_MvK-12" vertex="1">
          <mxGeometry width="74" height="20" as="geometry">
            <mxRectangle width="74" height="20" as="alternateBounds" />
          </mxGeometry>
        </mxCell>
        <mxCell id="-8IyOOPCJsGeNDWP_MvK-14" value="" style="shape=partialRectangle;html=1;whiteSpace=wrap;connectable=0;strokeColor=inherit;overflow=hidden;fillColor=none;top=0;left=0;bottom=0;right=0;pointerEvents=1;fontSize=12;" parent="-8IyOOPCJsGeNDWP_MvK-12" vertex="1">
          <mxGeometry x="74" width="126" height="20" as="geometry">
            <mxRectangle width="126" height="20" as="alternateBounds" />
          </mxGeometry>
        </mxCell>
        <mxCell id="-8IyOOPCJsGeNDWP_MvK-15" value="" style="shape=partialRectangle;html=1;whiteSpace=wrap;connectable=0;strokeColor=inherit;overflow=hidden;fillColor=none;top=0;left=0;bottom=0;right=0;pointerEvents=1;fontSize=12;" parent="-8IyOOPCJsGeNDWP_MvK-12" vertex="1">
          <mxGeometry x="200" width="130" height="20" as="geometry">
            <mxRectangle width="130" height="20" as="alternateBounds" />
          </mxGeometry>
        </mxCell>
        <mxCell id="-8IyOOPCJsGeNDWP_MvK-16" style="shape=partialRectangle;html=1;whiteSpace=wrap;connectable=0;strokeColor=inherit;overflow=hidden;fillColor=none;top=0;left=0;bottom=0;right=0;pointerEvents=1;fontSize=12;" parent="-8IyOOPCJsGeNDWP_MvK-12" vertex="1">
          <mxGeometry x="330" width="180" height="20" as="geometry">
            <mxRectangle width="180" height="20" as="alternateBounds" />
          </mxGeometry>
        </mxCell>
        <mxCell id="zpUZ8RO5JenyXYzTqGgp-1" value="PresencasEvento" style="shape=table;startSize=30;container=1;collapsible=0;childLayout=tableLayout;strokeColor=default;fontSize=16;" parent="1" vertex="1">
          <mxGeometry x="820" y="489" width="290" height="90" as="geometry" />
        </mxCell>
        <mxCell id="zpUZ8RO5JenyXYzTqGgp-2" value="" style="shape=tableRow;horizontal=0;startSize=0;swimlaneHead=0;swimlaneBody=0;strokeColor=inherit;top=0;left=0;bottom=0;right=0;collapsible=0;dropTarget=0;fillColor=none;points=[[0,0.5],[1,0.5]];portConstraint=eastwest;fontSize=16;" parent="zpUZ8RO5JenyXYzTqGgp-1" vertex="1">
          <mxGeometry y="30" width="290" height="20" as="geometry" />
        </mxCell>
        <mxCell id="zpUZ8RO5JenyXYzTqGgp-3" value="&lt;font style=&quot;font-size: 12px;&quot;&gt;IdPresencaEvento&lt;/font&gt;" style="shape=partialRectangle;html=1;whiteSpace=wrap;connectable=0;strokeColor=inherit;overflow=hidden;fillColor=none;top=0;left=0;bottom=0;right=0;pointerEvents=1;fontSize=12;" parent="zpUZ8RO5JenyXYzTqGgp-2" vertex="1">
          <mxGeometry width="110" height="20" as="geometry">
            <mxRectangle width="110" height="20" as="alternateBounds" />
          </mxGeometry>
        </mxCell>
        <mxCell id="zpUZ8RO5JenyXYzTqGgp-4" value="&lt;font style=&quot;font-size: 12px;&quot;&gt;IdUsuario&lt;/font&gt;" style="shape=partialRectangle;html=1;whiteSpace=wrap;connectable=0;strokeColor=inherit;overflow=hidden;fillColor=none;top=0;left=0;bottom=0;right=0;pointerEvents=1;fontSize=12;" parent="zpUZ8RO5JenyXYzTqGgp-2" vertex="1">
          <mxGeometry x="110" width="60" height="20" as="geometry">
            <mxRectangle width="60" height="20" as="alternateBounds" />
          </mxGeometry>
        </mxCell>
        <mxCell id="zpUZ8RO5JenyXYzTqGgp-5" value="IdEvento" style="shape=partialRectangle;html=1;whiteSpace=wrap;connectable=0;strokeColor=inherit;overflow=hidden;fillColor=none;top=0;left=0;bottom=0;right=0;pointerEvents=1;fontSize=12;" parent="zpUZ8RO5JenyXYzTqGgp-2" vertex="1">
          <mxGeometry x="170" width="60" height="20" as="geometry">
            <mxRectangle width="60" height="20" as="alternateBounds" />
          </mxGeometry>
        </mxCell>
        <mxCell id="zpUZ8RO5JenyXYzTqGgp-6" value="&lt;font style=&quot;font-size: 12px;&quot;&gt;Situacao&lt;/font&gt;" style="shape=partialRectangle;html=1;whiteSpace=wrap;connectable=0;strokeColor=inherit;overflow=hidden;fillColor=none;top=0;left=0;bottom=0;right=0;pointerEvents=1;fontSize=12;" parent="zpUZ8RO5JenyXYzTqGgp-2" vertex="1">
          <mxGeometry x="230" width="60" height="20" as="geometry">
            <mxRectangle width="60" height="20" as="alternateBounds" />
          </mxGeometry>
        </mxCell>
        <mxCell id="zpUZ8RO5JenyXYzTqGgp-7" value="" style="shape=tableRow;horizontal=0;startSize=0;swimlaneHead=0;swimlaneBody=0;strokeColor=inherit;top=0;left=0;bottom=0;right=0;collapsible=0;dropTarget=0;fillColor=none;points=[[0,0.5],[1,0.5]];portConstraint=eastwest;fontSize=16;" parent="zpUZ8RO5JenyXYzTqGgp-1" vertex="1">
          <mxGeometry y="50" width="290" height="20" as="geometry" />
        </mxCell>
        <mxCell id="zpUZ8RO5JenyXYzTqGgp-8" value="" style="shape=partialRectangle;html=1;whiteSpace=wrap;connectable=0;strokeColor=inherit;overflow=hidden;fillColor=none;top=0;left=0;bottom=0;right=0;pointerEvents=1;fontSize=12;" parent="zpUZ8RO5JenyXYzTqGgp-7" vertex="1">
          <mxGeometry width="110" height="20" as="geometry">
            <mxRectangle width="110" height="20" as="alternateBounds" />
          </mxGeometry>
        </mxCell>
        <mxCell id="zpUZ8RO5JenyXYzTqGgp-9" value="" style="shape=partialRectangle;html=1;whiteSpace=wrap;connectable=0;strokeColor=inherit;overflow=hidden;fillColor=none;top=0;left=0;bottom=0;right=0;pointerEvents=1;fontSize=12;" parent="zpUZ8RO5JenyXYzTqGgp-7" vertex="1">
          <mxGeometry x="110" width="60" height="20" as="geometry">
            <mxRectangle width="60" height="20" as="alternateBounds" />
          </mxGeometry>
        </mxCell>
        <mxCell id="zpUZ8RO5JenyXYzTqGgp-10" value="" style="shape=partialRectangle;html=1;whiteSpace=wrap;connectable=0;strokeColor=inherit;overflow=hidden;fillColor=none;top=0;left=0;bottom=0;right=0;pointerEvents=1;fontSize=12;" parent="zpUZ8RO5JenyXYzTqGgp-7" vertex="1">
          <mxGeometry x="170" width="60" height="20" as="geometry">
            <mxRectangle width="60" height="20" as="alternateBounds" />
          </mxGeometry>
        </mxCell>
        <mxCell id="zpUZ8RO5JenyXYzTqGgp-11" style="shape=partialRectangle;html=1;whiteSpace=wrap;connectable=0;strokeColor=inherit;overflow=hidden;fillColor=none;top=0;left=0;bottom=0;right=0;pointerEvents=1;fontSize=12;" parent="zpUZ8RO5JenyXYzTqGgp-7" vertex="1">
          <mxGeometry x="230" width="60" height="20" as="geometry">
            <mxRectangle width="60" height="20" as="alternateBounds" />
          </mxGeometry>
        </mxCell>
        <mxCell id="zpUZ8RO5JenyXYzTqGgp-12" value="" style="shape=tableRow;horizontal=0;startSize=0;swimlaneHead=0;swimlaneBody=0;strokeColor=inherit;top=0;left=0;bottom=0;right=0;collapsible=0;dropTarget=0;fillColor=none;points=[[0,0.5],[1,0.5]];portConstraint=eastwest;fontSize=16;" parent="zpUZ8RO5JenyXYzTqGgp-1" vertex="1">
          <mxGeometry y="70" width="290" height="20" as="geometry" />
        </mxCell>
        <mxCell id="zpUZ8RO5JenyXYzTqGgp-13" value="" style="shape=partialRectangle;html=1;whiteSpace=wrap;connectable=0;strokeColor=inherit;overflow=hidden;fillColor=none;top=0;left=0;bottom=0;right=0;pointerEvents=1;fontSize=12;" parent="zpUZ8RO5JenyXYzTqGgp-12" vertex="1">
          <mxGeometry width="110" height="20" as="geometry">
            <mxRectangle width="110" height="20" as="alternateBounds" />
          </mxGeometry>
        </mxCell>
        <mxCell id="zpUZ8RO5JenyXYzTqGgp-14" value="" style="shape=partialRectangle;html=1;whiteSpace=wrap;connectable=0;strokeColor=inherit;overflow=hidden;fillColor=none;top=0;left=0;bottom=0;right=0;pointerEvents=1;fontSize=12;" parent="zpUZ8RO5JenyXYzTqGgp-12" vertex="1">
          <mxGeometry x="110" width="60" height="20" as="geometry">
            <mxRectangle width="60" height="20" as="alternateBounds" />
          </mxGeometry>
        </mxCell>
        <mxCell id="zpUZ8RO5JenyXYzTqGgp-15" value="" style="shape=partialRectangle;html=1;whiteSpace=wrap;connectable=0;strokeColor=inherit;overflow=hidden;fillColor=none;top=0;left=0;bottom=0;right=0;pointerEvents=1;fontSize=12;" parent="zpUZ8RO5JenyXYzTqGgp-12" vertex="1">
          <mxGeometry x="170" width="60" height="20" as="geometry">
            <mxRectangle width="60" height="20" as="alternateBounds" />
          </mxGeometry>
        </mxCell>
        <mxCell id="zpUZ8RO5JenyXYzTqGgp-16" style="shape=partialRectangle;html=1;whiteSpace=wrap;connectable=0;strokeColor=inherit;overflow=hidden;fillColor=none;top=0;left=0;bottom=0;right=0;pointerEvents=1;fontSize=12;" parent="zpUZ8RO5JenyXYzTqGgp-12" vertex="1">
          <mxGeometry x="230" width="60" height="20" as="geometry">
            <mxRectangle width="60" height="20" as="alternateBounds" />
          </mxGeometry>
        </mxCell>
        <mxCell id="c0z6p7lN9WcotFeyk0KN-1" value="TiposDeEvento" style="shape=table;startSize=30;container=1;collapsible=0;childLayout=tableLayout;strokeColor=default;fontSize=16;" parent="1" vertex="1">
          <mxGeometry x="60" y="369" width="270" height="90" as="geometry" />
        </mxCell>
        <mxCell id="c0z6p7lN9WcotFeyk0KN-2" value="" style="shape=tableRow;horizontal=0;startSize=0;swimlaneHead=0;swimlaneBody=0;strokeColor=inherit;top=0;left=0;bottom=0;right=0;collapsible=0;dropTarget=0;fillColor=none;points=[[0,0.5],[1,0.5]];portConstraint=eastwest;fontSize=16;" parent="c0z6p7lN9WcotFeyk0KN-1" vertex="1">
          <mxGeometry y="30" width="270" height="20" as="geometry" />
        </mxCell>
        <mxCell id="c0z6p7lN9WcotFeyk0KN-3" value="&lt;font style=&quot;font-size: 12px;&quot;&gt;IdTipoEvento&lt;/font&gt;" style="shape=partialRectangle;html=1;whiteSpace=wrap;connectable=0;strokeColor=inherit;overflow=hidden;fillColor=none;top=0;left=0;bottom=0;right=0;pointerEvents=1;fontSize=12;" parent="c0z6p7lN9WcotFeyk0KN-2" vertex="1">
          <mxGeometry width="80" height="20" as="geometry">
            <mxRectangle width="80" height="20" as="alternateBounds" />
          </mxGeometry>
        </mxCell>
        <mxCell id="c0z6p7lN9WcotFeyk0KN-4" value="TituloTipoEvento" style="shape=partialRectangle;html=1;whiteSpace=wrap;connectable=0;strokeColor=inherit;overflow=hidden;fillColor=none;top=0;left=0;bottom=0;right=0;pointerEvents=1;fontSize=12;" parent="c0z6p7lN9WcotFeyk0KN-2" vertex="1">
          <mxGeometry x="80" width="190" height="20" as="geometry">
            <mxRectangle width="190" height="20" as="alternateBounds" />
          </mxGeometry>
        </mxCell>
        <mxCell id="c0z6p7lN9WcotFeyk0KN-7" value="" style="shape=tableRow;horizontal=0;startSize=0;swimlaneHead=0;swimlaneBody=0;strokeColor=inherit;top=0;left=0;bottom=0;right=0;collapsible=0;dropTarget=0;fillColor=none;points=[[0,0.5],[1,0.5]];portConstraint=eastwest;fontSize=16;" parent="c0z6p7lN9WcotFeyk0KN-1" vertex="1">
          <mxGeometry y="50" width="270" height="20" as="geometry" />
        </mxCell>
        <mxCell id="c0z6p7lN9WcotFeyk0KN-8" value="" style="shape=partialRectangle;html=1;whiteSpace=wrap;connectable=0;strokeColor=inherit;overflow=hidden;fillColor=none;top=0;left=0;bottom=0;right=0;pointerEvents=1;fontSize=12;" parent="c0z6p7lN9WcotFeyk0KN-7" vertex="1">
          <mxGeometry width="80" height="20" as="geometry">
            <mxRectangle width="80" height="20" as="alternateBounds" />
          </mxGeometry>
        </mxCell>
        <mxCell id="c0z6p7lN9WcotFeyk0KN-9" value="" style="shape=partialRectangle;html=1;whiteSpace=wrap;connectable=0;strokeColor=inherit;overflow=hidden;fillColor=none;top=0;left=0;bottom=0;right=0;pointerEvents=1;fontSize=12;" parent="c0z6p7lN9WcotFeyk0KN-7" vertex="1">
          <mxGeometry x="80" width="190" height="20" as="geometry">
            <mxRectangle width="190" height="20" as="alternateBounds" />
          </mxGeometry>
        </mxCell>
        <mxCell id="c0z6p7lN9WcotFeyk0KN-12" value="" style="shape=tableRow;horizontal=0;startSize=0;swimlaneHead=0;swimlaneBody=0;strokeColor=inherit;top=0;left=0;bottom=0;right=0;collapsible=0;dropTarget=0;fillColor=none;points=[[0,0.5],[1,0.5]];portConstraint=eastwest;fontSize=16;" parent="c0z6p7lN9WcotFeyk0KN-1" vertex="1">
          <mxGeometry y="70" width="270" height="20" as="geometry" />
        </mxCell>
        <mxCell id="c0z6p7lN9WcotFeyk0KN-13" value="" style="shape=partialRectangle;html=1;whiteSpace=wrap;connectable=0;strokeColor=inherit;overflow=hidden;fillColor=none;top=0;left=0;bottom=0;right=0;pointerEvents=1;fontSize=12;" parent="c0z6p7lN9WcotFeyk0KN-12" vertex="1">
          <mxGeometry width="80" height="20" as="geometry">
            <mxRectangle width="80" height="20" as="alternateBounds" />
          </mxGeometry>
        </mxCell>
        <mxCell id="c0z6p7lN9WcotFeyk0KN-14" value="" style="shape=partialRectangle;html=1;whiteSpace=wrap;connectable=0;strokeColor=inherit;overflow=hidden;fillColor=none;top=0;left=0;bottom=0;right=0;pointerEvents=1;fontSize=12;" parent="c0z6p7lN9WcotFeyk0KN-12" vertex="1">
          <mxGeometry x="80" width="190" height="20" as="geometry">
            <mxRectangle width="190" height="20" as="alternateBounds" />
          </mxGeometry>
        </mxCell>
        <mxCell id="M2Tdkdm6wXp5eHSdeVOZ-1" value="TiposDeUsuario" style="shape=table;startSize=30;container=1;collapsible=0;childLayout=tableLayout;strokeColor=default;fontSize=16;" parent="1" vertex="1">
          <mxGeometry x="60" y="489" width="270" height="90" as="geometry" />
        </mxCell>
        <mxCell id="M2Tdkdm6wXp5eHSdeVOZ-2" value="" style="shape=tableRow;horizontal=0;startSize=0;swimlaneHead=0;swimlaneBody=0;strokeColor=inherit;top=0;left=0;bottom=0;right=0;collapsible=0;dropTarget=0;fillColor=none;points=[[0,0.5],[1,0.5]];portConstraint=eastwest;fontSize=16;" parent="M2Tdkdm6wXp5eHSdeVOZ-1" vertex="1">
          <mxGeometry y="30" width="270" height="20" as="geometry" />
        </mxCell>
        <mxCell id="M2Tdkdm6wXp5eHSdeVOZ-3" value="IdTipoUsuario" style="shape=partialRectangle;html=1;whiteSpace=wrap;connectable=0;strokeColor=inherit;overflow=hidden;fillColor=none;top=0;left=0;bottom=0;right=0;pointerEvents=1;fontSize=12;" parent="M2Tdkdm6wXp5eHSdeVOZ-2" vertex="1">
          <mxGeometry width="80" height="20" as="geometry">
            <mxRectangle width="80" height="20" as="alternateBounds" />
          </mxGeometry>
        </mxCell>
        <mxCell id="M2Tdkdm6wXp5eHSdeVOZ-4" value="TituloTipoUsuario" style="shape=partialRectangle;html=1;whiteSpace=wrap;connectable=0;strokeColor=inherit;overflow=hidden;fillColor=none;top=0;left=0;bottom=0;right=0;pointerEvents=1;fontSize=12;" parent="M2Tdkdm6wXp5eHSdeVOZ-2" vertex="1">
          <mxGeometry x="80" width="190" height="20" as="geometry">
            <mxRectangle width="190" height="20" as="alternateBounds" />
          </mxGeometry>
        </mxCell>
        <mxCell id="M2Tdkdm6wXp5eHSdeVOZ-5" value="" style="shape=tableRow;horizontal=0;startSize=0;swimlaneHead=0;swimlaneBody=0;strokeColor=inherit;top=0;left=0;bottom=0;right=0;collapsible=0;dropTarget=0;fillColor=none;points=[[0,0.5],[1,0.5]];portConstraint=eastwest;fontSize=16;" parent="M2Tdkdm6wXp5eHSdeVOZ-1" vertex="1">
          <mxGeometry y="50" width="270" height="20" as="geometry" />
        </mxCell>
        <mxCell id="M2Tdkdm6wXp5eHSdeVOZ-6" value="" style="shape=partialRectangle;html=1;whiteSpace=wrap;connectable=0;strokeColor=inherit;overflow=hidden;fillColor=none;top=0;left=0;bottom=0;right=0;pointerEvents=1;fontSize=12;" parent="M2Tdkdm6wXp5eHSdeVOZ-5" vertex="1">
          <mxGeometry width="80" height="20" as="geometry">
            <mxRectangle width="80" height="20" as="alternateBounds" />
          </mxGeometry>
        </mxCell>
        <mxCell id="M2Tdkdm6wXp5eHSdeVOZ-7" value="" style="shape=partialRectangle;html=1;whiteSpace=wrap;connectable=0;strokeColor=inherit;overflow=hidden;fillColor=none;top=0;left=0;bottom=0;right=0;pointerEvents=1;fontSize=12;" parent="M2Tdkdm6wXp5eHSdeVOZ-5" vertex="1">
          <mxGeometry x="80" width="190" height="20" as="geometry">
            <mxRectangle width="190" height="20" as="alternateBounds" />
          </mxGeometry>
        </mxCell>
        <mxCell id="M2Tdkdm6wXp5eHSdeVOZ-8" value="" style="shape=tableRow;horizontal=0;startSize=0;swimlaneHead=0;swimlaneBody=0;strokeColor=inherit;top=0;left=0;bottom=0;right=0;collapsible=0;dropTarget=0;fillColor=none;points=[[0,0.5],[1,0.5]];portConstraint=eastwest;fontSize=16;" parent="M2Tdkdm6wXp5eHSdeVOZ-1" vertex="1">
          <mxGeometry y="70" width="270" height="20" as="geometry" />
        </mxCell>
        <mxCell id="M2Tdkdm6wXp5eHSdeVOZ-9" value="" style="shape=partialRectangle;html=1;whiteSpace=wrap;connectable=0;strokeColor=inherit;overflow=hidden;fillColor=none;top=0;left=0;bottom=0;right=0;pointerEvents=1;fontSize=12;" parent="M2Tdkdm6wXp5eHSdeVOZ-8" vertex="1">
          <mxGeometry width="80" height="20" as="geometry">
            <mxRectangle width="80" height="20" as="alternateBounds" />
          </mxGeometry>
        </mxCell>
        <mxCell id="M2Tdkdm6wXp5eHSdeVOZ-10" value="" style="shape=partialRectangle;html=1;whiteSpace=wrap;connectable=0;strokeColor=inherit;overflow=hidden;fillColor=none;top=0;left=0;bottom=0;right=0;pointerEvents=1;fontSize=12;" parent="M2Tdkdm6wXp5eHSdeVOZ-8" vertex="1">
          <mxGeometry x="80" width="190" height="20" as="geometry">
            <mxRectangle width="190" height="20" as="alternateBounds" />
          </mxGeometry>
        </mxCell>
        <mxCell id="4FB3yHCw3SHlR6ncSlkT-1" value="Evento" style="shape=table;startSize=30;container=1;collapsible=0;childLayout=tableLayout;strokeColor=default;fontSize=16;" parent="1" vertex="1">
          <mxGeometry x="350" y="369" width="750" height="90" as="geometry" />
        </mxCell>
        <mxCell id="4FB3yHCw3SHlR6ncSlkT-2" value="" style="shape=tableRow;horizontal=0;startSize=0;swimlaneHead=0;swimlaneBody=0;strokeColor=inherit;top=0;left=0;bottom=0;right=0;collapsible=0;dropTarget=0;fillColor=none;points=[[0,0.5],[1,0.5]];portConstraint=eastwest;fontSize=16;" parent="4FB3yHCw3SHlR6ncSlkT-1" vertex="1">
          <mxGeometry y="30" width="750" height="20" as="geometry" />
        </mxCell>
        <mxCell id="4FB3yHCw3SHlR6ncSlkT-3" value="IdEvento" style="shape=partialRectangle;html=1;whiteSpace=wrap;connectable=0;strokeColor=inherit;overflow=hidden;fillColor=none;top=0;left=0;bottom=0;right=0;pointerEvents=1;fontSize=12;" parent="4FB3yHCw3SHlR6ncSlkT-2" vertex="1">
          <mxGeometry width="60" height="20" as="geometry">
            <mxRectangle width="60" height="20" as="alternateBounds" />
          </mxGeometry>
        </mxCell>
        <mxCell id="4FB3yHCw3SHlR6ncSlkT-4" value="IdInstituicao" style="shape=partialRectangle;html=1;whiteSpace=wrap;connectable=0;strokeColor=inherit;overflow=hidden;fillColor=none;top=0;left=0;bottom=0;right=0;pointerEvents=1;fontSize=12;" parent="4FB3yHCw3SHlR6ncSlkT-2" vertex="1">
          <mxGeometry x="60" width="60" height="20" as="geometry">
            <mxRectangle width="60" height="20" as="alternateBounds" />
          </mxGeometry>
        </mxCell>
        <mxCell id="4FB3yHCw3SHlR6ncSlkT-5" value="IdTipoEvento" style="shape=partialRectangle;html=1;whiteSpace=wrap;connectable=0;strokeColor=inherit;overflow=hidden;fillColor=none;top=0;left=0;bottom=0;right=0;pointerEvents=1;fontSize=12;" parent="4FB3yHCw3SHlR6ncSlkT-2" vertex="1">
          <mxGeometry x="120" width="80" height="20" as="geometry">
            <mxRectangle width="80" height="20" as="alternateBounds" />
          </mxGeometry>
        </mxCell>
        <mxCell id="4FB3yHCw3SHlR6ncSlkT-6" value="NomeEvento" style="shape=partialRectangle;html=1;whiteSpace=wrap;connectable=0;strokeColor=inherit;overflow=hidden;fillColor=none;top=0;left=0;bottom=0;right=0;pointerEvents=1;fontSize=12;" parent="4FB3yHCw3SHlR6ncSlkT-2" vertex="1">
          <mxGeometry x="200" width="170" height="20" as="geometry">
            <mxRectangle width="170" height="20" as="alternateBounds" />
          </mxGeometry>
        </mxCell>
        <mxCell id="4FB3yHCw3SHlR6ncSlkT-17" value="Descricao" style="shape=partialRectangle;html=1;whiteSpace=wrap;connectable=0;strokeColor=inherit;overflow=hidden;fillColor=none;top=0;left=0;bottom=0;right=0;pointerEvents=1;fontSize=12;" parent="4FB3yHCw3SHlR6ncSlkT-2" vertex="1">
          <mxGeometry x="370" width="290" height="20" as="geometry">
            <mxRectangle width="290" height="20" as="alternateBounds" />
          </mxGeometry>
        </mxCell>
        <mxCell id="TpNCZvpsFERyPfDOSm4Q-1" value="DataEvento" style="shape=partialRectangle;html=1;whiteSpace=wrap;connectable=0;strokeColor=inherit;overflow=hidden;fillColor=none;top=0;left=0;bottom=0;right=0;pointerEvents=1;fontSize=12;" parent="4FB3yHCw3SHlR6ncSlkT-2" vertex="1">
          <mxGeometry x="660" width="90" height="20" as="geometry">
            <mxRectangle width="90" height="20" as="alternateBounds" />
          </mxGeometry>
        </mxCell>
        <mxCell id="4FB3yHCw3SHlR6ncSlkT-7" value="" style="shape=tableRow;horizontal=0;startSize=0;swimlaneHead=0;swimlaneBody=0;strokeColor=inherit;top=0;left=0;bottom=0;right=0;collapsible=0;dropTarget=0;fillColor=none;points=[[0,0.5],[1,0.5]];portConstraint=eastwest;fontSize=16;" parent="4FB3yHCw3SHlR6ncSlkT-1" vertex="1">
          <mxGeometry y="50" width="750" height="20" as="geometry" />
        </mxCell>
        <mxCell id="4FB3yHCw3SHlR6ncSlkT-8" value="" style="shape=partialRectangle;html=1;whiteSpace=wrap;connectable=0;strokeColor=inherit;overflow=hidden;fillColor=none;top=0;left=0;bottom=0;right=0;pointerEvents=1;fontSize=12;" parent="4FB3yHCw3SHlR6ncSlkT-7" vertex="1">
          <mxGeometry width="60" height="20" as="geometry">
            <mxRectangle width="60" height="20" as="alternateBounds" />
          </mxGeometry>
        </mxCell>
        <mxCell id="4FB3yHCw3SHlR6ncSlkT-9" value="" style="shape=partialRectangle;html=1;whiteSpace=wrap;connectable=0;strokeColor=inherit;overflow=hidden;fillColor=none;top=0;left=0;bottom=0;right=0;pointerEvents=1;fontSize=12;" parent="4FB3yHCw3SHlR6ncSlkT-7" vertex="1">
          <mxGeometry x="60" width="60" height="20" as="geometry">
            <mxRectangle width="60" height="20" as="alternateBounds" />
          </mxGeometry>
        </mxCell>
        <mxCell id="4FB3yHCw3SHlR6ncSlkT-10" value="" style="shape=partialRectangle;html=1;whiteSpace=wrap;connectable=0;strokeColor=inherit;overflow=hidden;fillColor=none;top=0;left=0;bottom=0;right=0;pointerEvents=1;fontSize=12;" parent="4FB3yHCw3SHlR6ncSlkT-7" vertex="1">
          <mxGeometry x="120" width="80" height="20" as="geometry">
            <mxRectangle width="80" height="20" as="alternateBounds" />
          </mxGeometry>
        </mxCell>
        <mxCell id="4FB3yHCw3SHlR6ncSlkT-11" style="shape=partialRectangle;html=1;whiteSpace=wrap;connectable=0;strokeColor=inherit;overflow=hidden;fillColor=none;top=0;left=0;bottom=0;right=0;pointerEvents=1;fontSize=12;" parent="4FB3yHCw3SHlR6ncSlkT-7" vertex="1">
          <mxGeometry x="200" width="170" height="20" as="geometry">
            <mxRectangle width="170" height="20" as="alternateBounds" />
          </mxGeometry>
        </mxCell>
        <mxCell id="4FB3yHCw3SHlR6ncSlkT-18" style="shape=partialRectangle;html=1;whiteSpace=wrap;connectable=0;strokeColor=inherit;overflow=hidden;fillColor=none;top=0;left=0;bottom=0;right=0;pointerEvents=1;fontSize=12;" parent="4FB3yHCw3SHlR6ncSlkT-7" vertex="1">
          <mxGeometry x="370" width="290" height="20" as="geometry">
            <mxRectangle width="290" height="20" as="alternateBounds" />
          </mxGeometry>
        </mxCell>
        <mxCell id="TpNCZvpsFERyPfDOSm4Q-2" style="shape=partialRectangle;html=1;whiteSpace=wrap;connectable=0;strokeColor=inherit;overflow=hidden;fillColor=none;top=0;left=0;bottom=0;right=0;pointerEvents=1;fontSize=12;" parent="4FB3yHCw3SHlR6ncSlkT-7" vertex="1">
          <mxGeometry x="660" width="90" height="20" as="geometry">
            <mxRectangle width="90" height="20" as="alternateBounds" />
          </mxGeometry>
        </mxCell>
        <mxCell id="4FB3yHCw3SHlR6ncSlkT-12" value="" style="shape=tableRow;horizontal=0;startSize=0;swimlaneHead=0;swimlaneBody=0;strokeColor=inherit;top=0;left=0;bottom=0;right=0;collapsible=0;dropTarget=0;fillColor=none;points=[[0,0.5],[1,0.5]];portConstraint=eastwest;fontSize=16;" parent="4FB3yHCw3SHlR6ncSlkT-1" vertex="1">
          <mxGeometry y="70" width="750" height="20" as="geometry" />
        </mxCell>
        <mxCell id="4FB3yHCw3SHlR6ncSlkT-13" value="" style="shape=partialRectangle;html=1;whiteSpace=wrap;connectable=0;strokeColor=inherit;overflow=hidden;fillColor=none;top=0;left=0;bottom=0;right=0;pointerEvents=1;fontSize=12;" parent="4FB3yHCw3SHlR6ncSlkT-12" vertex="1">
          <mxGeometry width="60" height="20" as="geometry">
            <mxRectangle width="60" height="20" as="alternateBounds" />
          </mxGeometry>
        </mxCell>
        <mxCell id="4FB3yHCw3SHlR6ncSlkT-14" value="" style="shape=partialRectangle;html=1;whiteSpace=wrap;connectable=0;strokeColor=inherit;overflow=hidden;fillColor=none;top=0;left=0;bottom=0;right=0;pointerEvents=1;fontSize=12;" parent="4FB3yHCw3SHlR6ncSlkT-12" vertex="1">
          <mxGeometry x="60" width="60" height="20" as="geometry">
            <mxRectangle width="60" height="20" as="alternateBounds" />
          </mxGeometry>
        </mxCell>
        <mxCell id="4FB3yHCw3SHlR6ncSlkT-15" value="" style="shape=partialRectangle;html=1;whiteSpace=wrap;connectable=0;strokeColor=inherit;overflow=hidden;fillColor=none;top=0;left=0;bottom=0;right=0;pointerEvents=1;fontSize=12;" parent="4FB3yHCw3SHlR6ncSlkT-12" vertex="1">
          <mxGeometry x="120" width="80" height="20" as="geometry">
            <mxRectangle width="80" height="20" as="alternateBounds" />
          </mxGeometry>
        </mxCell>
        <mxCell id="4FB3yHCw3SHlR6ncSlkT-16" style="shape=partialRectangle;html=1;whiteSpace=wrap;connectable=0;strokeColor=inherit;overflow=hidden;fillColor=none;top=0;left=0;bottom=0;right=0;pointerEvents=1;fontSize=12;" parent="4FB3yHCw3SHlR6ncSlkT-12" vertex="1">
          <mxGeometry x="200" width="170" height="20" as="geometry">
            <mxRectangle width="170" height="20" as="alternateBounds" />
          </mxGeometry>
        </mxCell>
        <mxCell id="4FB3yHCw3SHlR6ncSlkT-19" style="shape=partialRectangle;html=1;whiteSpace=wrap;connectable=0;strokeColor=inherit;overflow=hidden;fillColor=none;top=0;left=0;bottom=0;right=0;pointerEvents=1;fontSize=12;" parent="4FB3yHCw3SHlR6ncSlkT-12" vertex="1">
          <mxGeometry x="370" width="290" height="20" as="geometry">
            <mxRectangle width="290" height="20" as="alternateBounds" />
          </mxGeometry>
        </mxCell>
        <mxCell id="TpNCZvpsFERyPfDOSm4Q-3" style="shape=partialRectangle;html=1;whiteSpace=wrap;connectable=0;strokeColor=inherit;overflow=hidden;fillColor=none;top=0;left=0;bottom=0;right=0;pointerEvents=1;fontSize=12;" parent="4FB3yHCw3SHlR6ncSlkT-12" vertex="1">
          <mxGeometry x="660" width="90" height="20" as="geometry">
            <mxRectangle width="90" height="20" as="alternateBounds" />
          </mxGeometry>
        </mxCell>
        <mxCell id="NATdjjnsgaZrQwcwxaE2-2" value="Comentario" style="shape=table;startSize=30;container=1;collapsible=0;childLayout=tableLayout;strokeColor=default;fontSize=16;" parent="1" vertex="1">
          <mxGeometry x="350" y="489" width="440" height="90" as="geometry" />
        </mxCell>
        <mxCell id="NATdjjnsgaZrQwcwxaE2-3" value="" style="shape=tableRow;horizontal=0;startSize=0;swimlaneHead=0;swimlaneBody=0;strokeColor=inherit;top=0;left=0;bottom=0;right=0;collapsible=0;dropTarget=0;fillColor=none;points=[[0,0.5],[1,0.5]];portConstraint=eastwest;fontSize=16;" parent="NATdjjnsgaZrQwcwxaE2-2" vertex="1">
          <mxGeometry y="30" width="440" height="20" as="geometry" />
        </mxCell>
        <mxCell id="NATdjjnsgaZrQwcwxaE2-4" value="IdComentario" style="shape=partialRectangle;html=1;whiteSpace=wrap;connectable=0;strokeColor=inherit;overflow=hidden;fillColor=none;top=0;left=0;bottom=0;right=0;pointerEvents=1;fontSize=12;" parent="NATdjjnsgaZrQwcwxaE2-3" vertex="1">
          <mxGeometry width="80" height="20" as="geometry">
            <mxRectangle width="80" height="20" as="alternateBounds" />
          </mxGeometry>
        </mxCell>
        <mxCell id="NATdjjnsgaZrQwcwxaE2-5" value="IdEvento" style="shape=partialRectangle;html=1;whiteSpace=wrap;connectable=0;strokeColor=inherit;overflow=hidden;fillColor=none;top=0;left=0;bottom=0;right=0;pointerEvents=1;fontSize=12;" parent="NATdjjnsgaZrQwcwxaE2-3" vertex="1">
          <mxGeometry x="80" width="53" height="20" as="geometry">
            <mxRectangle width="53" height="20" as="alternateBounds" />
          </mxGeometry>
        </mxCell>
        <mxCell id="NATdjjnsgaZrQwcwxaE2-6" value="IdUsuario" style="shape=partialRectangle;html=1;whiteSpace=wrap;connectable=0;strokeColor=inherit;overflow=hidden;fillColor=none;top=0;left=0;bottom=0;right=0;pointerEvents=1;fontSize=12;" parent="NATdjjnsgaZrQwcwxaE2-3" vertex="1">
          <mxGeometry x="133" width="57" height="20" as="geometry">
            <mxRectangle width="57" height="20" as="alternateBounds" />
          </mxGeometry>
        </mxCell>
        <mxCell id="NATdjjnsgaZrQwcwxaE2-7" value="Descricao" style="shape=partialRectangle;html=1;whiteSpace=wrap;connectable=0;strokeColor=inherit;overflow=hidden;fillColor=none;top=0;left=0;bottom=0;right=0;pointerEvents=1;fontSize=12;" parent="NATdjjnsgaZrQwcwxaE2-3" vertex="1">
          <mxGeometry x="190" width="207" height="20" as="geometry">
            <mxRectangle width="207" height="20" as="alternateBounds" />
          </mxGeometry>
        </mxCell>
        <mxCell id="oD5b0MH4LdpKnOj35ojF-1" value="Exibe" style="shape=partialRectangle;html=1;whiteSpace=wrap;connectable=0;strokeColor=inherit;overflow=hidden;fillColor=none;top=0;left=0;bottom=0;right=0;pointerEvents=1;fontSize=12;" parent="NATdjjnsgaZrQwcwxaE2-3" vertex="1">
          <mxGeometry x="397" width="43" height="20" as="geometry">
            <mxRectangle width="43" height="20" as="alternateBounds" />
          </mxGeometry>
        </mxCell>
        <mxCell id="NATdjjnsgaZrQwcwxaE2-8" value="" style="shape=tableRow;horizontal=0;startSize=0;swimlaneHead=0;swimlaneBody=0;strokeColor=inherit;top=0;left=0;bottom=0;right=0;collapsible=0;dropTarget=0;fillColor=none;points=[[0,0.5],[1,0.5]];portConstraint=eastwest;fontSize=16;" parent="NATdjjnsgaZrQwcwxaE2-2" vertex="1">
          <mxGeometry y="50" width="440" height="20" as="geometry" />
        </mxCell>
        <mxCell id="NATdjjnsgaZrQwcwxaE2-9" value="" style="shape=partialRectangle;html=1;whiteSpace=wrap;connectable=0;strokeColor=inherit;overflow=hidden;fillColor=none;top=0;left=0;bottom=0;right=0;pointerEvents=1;fontSize=12;" parent="NATdjjnsgaZrQwcwxaE2-8" vertex="1">
          <mxGeometry width="80" height="20" as="geometry">
            <mxRectangle width="80" height="20" as="alternateBounds" />
          </mxGeometry>
        </mxCell>
        <mxCell id="NATdjjnsgaZrQwcwxaE2-10" value="" style="shape=partialRectangle;html=1;whiteSpace=wrap;connectable=0;strokeColor=inherit;overflow=hidden;fillColor=none;top=0;left=0;bottom=0;right=0;pointerEvents=1;fontSize=12;" parent="NATdjjnsgaZrQwcwxaE2-8" vertex="1">
          <mxGeometry x="80" width="53" height="20" as="geometry">
            <mxRectangle width="53" height="20" as="alternateBounds" />
          </mxGeometry>
        </mxCell>
        <mxCell id="NATdjjnsgaZrQwcwxaE2-11" value="" style="shape=partialRectangle;html=1;whiteSpace=wrap;connectable=0;strokeColor=inherit;overflow=hidden;fillColor=none;top=0;left=0;bottom=0;right=0;pointerEvents=1;fontSize=12;" parent="NATdjjnsgaZrQwcwxaE2-8" vertex="1">
          <mxGeometry x="133" width="57" height="20" as="geometry">
            <mxRectangle width="57" height="20" as="alternateBounds" />
          </mxGeometry>
        </mxCell>
        <mxCell id="NATdjjnsgaZrQwcwxaE2-12" style="shape=partialRectangle;html=1;whiteSpace=wrap;connectable=0;strokeColor=inherit;overflow=hidden;fillColor=none;top=0;left=0;bottom=0;right=0;pointerEvents=1;fontSize=12;" parent="NATdjjnsgaZrQwcwxaE2-8" vertex="1">
          <mxGeometry x="190" width="207" height="20" as="geometry">
            <mxRectangle width="207" height="20" as="alternateBounds" />
          </mxGeometry>
        </mxCell>
        <mxCell id="oD5b0MH4LdpKnOj35ojF-2" style="shape=partialRectangle;html=1;whiteSpace=wrap;connectable=0;strokeColor=inherit;overflow=hidden;fillColor=none;top=0;left=0;bottom=0;right=0;pointerEvents=1;fontSize=12;" parent="NATdjjnsgaZrQwcwxaE2-8" vertex="1">
          <mxGeometry x="397" width="43" height="20" as="geometry">
            <mxRectangle width="43" height="20" as="alternateBounds" />
          </mxGeometry>
        </mxCell>
        <mxCell id="NATdjjnsgaZrQwcwxaE2-13" value="" style="shape=tableRow;horizontal=0;startSize=0;swimlaneHead=0;swimlaneBody=0;strokeColor=inherit;top=0;left=0;bottom=0;right=0;collapsible=0;dropTarget=0;fillColor=none;points=[[0,0.5],[1,0.5]];portConstraint=eastwest;fontSize=16;" parent="NATdjjnsgaZrQwcwxaE2-2" vertex="1">
          <mxGeometry y="70" width="440" height="20" as="geometry" />
        </mxCell>
        <mxCell id="NATdjjnsgaZrQwcwxaE2-14" value="" style="shape=partialRectangle;html=1;whiteSpace=wrap;connectable=0;strokeColor=inherit;overflow=hidden;fillColor=none;top=0;left=0;bottom=0;right=0;pointerEvents=1;fontSize=12;" parent="NATdjjnsgaZrQwcwxaE2-13" vertex="1">
          <mxGeometry width="80" height="20" as="geometry">
            <mxRectangle width="80" height="20" as="alternateBounds" />
          </mxGeometry>
        </mxCell>
        <mxCell id="NATdjjnsgaZrQwcwxaE2-15" value="" style="shape=partialRectangle;html=1;whiteSpace=wrap;connectable=0;strokeColor=inherit;overflow=hidden;fillColor=none;top=0;left=0;bottom=0;right=0;pointerEvents=1;fontSize=12;" parent="NATdjjnsgaZrQwcwxaE2-13" vertex="1">
          <mxGeometry x="80" width="53" height="20" as="geometry">
            <mxRectangle width="53" height="20" as="alternateBounds" />
          </mxGeometry>
        </mxCell>
        <mxCell id="NATdjjnsgaZrQwcwxaE2-16" value="" style="shape=partialRectangle;html=1;whiteSpace=wrap;connectable=0;strokeColor=inherit;overflow=hidden;fillColor=none;top=0;left=0;bottom=0;right=0;pointerEvents=1;fontSize=12;" parent="NATdjjnsgaZrQwcwxaE2-13" vertex="1">
          <mxGeometry x="133" width="57" height="20" as="geometry">
            <mxRectangle width="57" height="20" as="alternateBounds" />
          </mxGeometry>
        </mxCell>
        <mxCell id="NATdjjnsgaZrQwcwxaE2-17" style="shape=partialRectangle;html=1;whiteSpace=wrap;connectable=0;strokeColor=inherit;overflow=hidden;fillColor=none;top=0;left=0;bottom=0;right=0;pointerEvents=1;fontSize=12;" parent="NATdjjnsgaZrQwcwxaE2-13" vertex="1">
          <mxGeometry x="190" width="207" height="20" as="geometry">
            <mxRectangle width="207" height="20" as="alternateBounds" />
          </mxGeometry>
        </mxCell>
        <mxCell id="oD5b0MH4LdpKnOj35ojF-3" style="shape=partialRectangle;html=1;whiteSpace=wrap;connectable=0;strokeColor=inherit;overflow=hidden;fillColor=none;top=0;left=0;bottom=0;right=0;pointerEvents=1;fontSize=12;" parent="NATdjjnsgaZrQwcwxaE2-13" vertex="1">
          <mxGeometry x="397" width="43" height="20" as="geometry">
            <mxRectangle width="43" height="20" as="alternateBounds" />
          </mxGeometry>
        </mxCell>
        <mxCell id="DAf2_TcuUSZJi7Yc_9Si-1" value="Usuario" style="shape=table;startSize=30;container=1;collapsible=0;childLayout=tableLayout;strokeColor=default;fontSize=16;" parent="1" vertex="1">
          <mxGeometry x="600" y="249" width="440" height="90" as="geometry" />
        </mxCell>
        <mxCell id="DAf2_TcuUSZJi7Yc_9Si-2" value="" style="shape=tableRow;horizontal=0;startSize=0;swimlaneHead=0;swimlaneBody=0;strokeColor=inherit;top=0;left=0;bottom=0;right=0;collapsible=0;dropTarget=0;fillColor=none;points=[[0,0.5],[1,0.5]];portConstraint=eastwest;fontSize=16;" parent="DAf2_TcuUSZJi7Yc_9Si-1" vertex="1">
          <mxGeometry y="30" width="440" height="20" as="geometry" />
        </mxCell>
        <mxCell id="DAf2_TcuUSZJi7Yc_9Si-3" value="IdUsuario" style="shape=partialRectangle;html=1;whiteSpace=wrap;connectable=0;strokeColor=inherit;overflow=hidden;fillColor=none;top=0;left=0;bottom=0;right=0;pointerEvents=1;fontSize=12;" parent="DAf2_TcuUSZJi7Yc_9Si-2" vertex="1">
          <mxGeometry width="60" height="20" as="geometry">
            <mxRectangle width="60" height="20" as="alternateBounds" />
          </mxGeometry>
        </mxCell>
        <mxCell id="DAf2_TcuUSZJi7Yc_9Si-4" value="IdTipoDeUsuario" style="shape=partialRectangle;html=1;whiteSpace=wrap;connectable=0;strokeColor=inherit;overflow=hidden;fillColor=none;top=0;left=0;bottom=0;right=0;pointerEvents=1;fontSize=12;" parent="DAf2_TcuUSZJi7Yc_9Si-2" vertex="1">
          <mxGeometry x="60" width="100" height="20" as="geometry">
            <mxRectangle width="100" height="20" as="alternateBounds" />
          </mxGeometry>
        </mxCell>
        <mxCell id="DAf2_TcuUSZJi7Yc_9Si-5" value="Nome" style="shape=partialRectangle;html=1;whiteSpace=wrap;connectable=0;strokeColor=inherit;overflow=hidden;fillColor=none;top=0;left=0;bottom=0;right=0;pointerEvents=1;fontSize=12;" parent="DAf2_TcuUSZJi7Yc_9Si-2" vertex="1">
          <mxGeometry x="160" width="90" height="20" as="geometry">
            <mxRectangle width="90" height="20" as="alternateBounds" />
          </mxGeometry>
        </mxCell>
        <mxCell id="DAf2_TcuUSZJi7Yc_9Si-6" value="Email" style="shape=partialRectangle;html=1;whiteSpace=wrap;connectable=0;strokeColor=inherit;overflow=hidden;fillColor=none;top=0;left=0;bottom=0;right=0;pointerEvents=1;fontSize=12;" parent="DAf2_TcuUSZJi7Yc_9Si-2" vertex="1">
          <mxGeometry x="250" width="100" height="20" as="geometry">
            <mxRectangle width="100" height="20" as="alternateBounds" />
          </mxGeometry>
        </mxCell>
        <mxCell id="DAf2_TcuUSZJi7Yc_9Si-7" value="Senha" style="shape=partialRectangle;html=1;whiteSpace=wrap;connectable=0;strokeColor=inherit;overflow=hidden;fillColor=none;top=0;left=0;bottom=0;right=0;pointerEvents=1;fontSize=12;" parent="DAf2_TcuUSZJi7Yc_9Si-2" vertex="1">
          <mxGeometry x="350" width="90" height="20" as="geometry">
            <mxRectangle width="90" height="20" as="alternateBounds" />
          </mxGeometry>
        </mxCell>
        <mxCell id="DAf2_TcuUSZJi7Yc_9Si-8" value="" style="shape=tableRow;horizontal=0;startSize=0;swimlaneHead=0;swimlaneBody=0;strokeColor=inherit;top=0;left=0;bottom=0;right=0;collapsible=0;dropTarget=0;fillColor=none;points=[[0,0.5],[1,0.5]];portConstraint=eastwest;fontSize=16;" parent="DAf2_TcuUSZJi7Yc_9Si-1" vertex="1">
          <mxGeometry y="50" width="440" height="20" as="geometry" />
        </mxCell>
        <mxCell id="DAf2_TcuUSZJi7Yc_9Si-9" value="" style="shape=partialRectangle;html=1;whiteSpace=wrap;connectable=0;strokeColor=inherit;overflow=hidden;fillColor=none;top=0;left=0;bottom=0;right=0;pointerEvents=1;fontSize=12;" parent="DAf2_TcuUSZJi7Yc_9Si-8" vertex="1">
          <mxGeometry width="60" height="20" as="geometry">
            <mxRectangle width="60" height="20" as="alternateBounds" />
          </mxGeometry>
        </mxCell>
        <mxCell id="DAf2_TcuUSZJi7Yc_9Si-10" value="" style="shape=partialRectangle;html=1;whiteSpace=wrap;connectable=0;strokeColor=inherit;overflow=hidden;fillColor=none;top=0;left=0;bottom=0;right=0;pointerEvents=1;fontSize=12;" parent="DAf2_TcuUSZJi7Yc_9Si-8" vertex="1">
          <mxGeometry x="60" width="100" height="20" as="geometry">
            <mxRectangle width="100" height="20" as="alternateBounds" />
          </mxGeometry>
        </mxCell>
        <mxCell id="DAf2_TcuUSZJi7Yc_9Si-11" value="" style="shape=partialRectangle;html=1;whiteSpace=wrap;connectable=0;strokeColor=inherit;overflow=hidden;fillColor=none;top=0;left=0;bottom=0;right=0;pointerEvents=1;fontSize=12;" parent="DAf2_TcuUSZJi7Yc_9Si-8" vertex="1">
          <mxGeometry x="160" width="90" height="20" as="geometry">
            <mxRectangle width="90" height="20" as="alternateBounds" />
          </mxGeometry>
        </mxCell>
        <mxCell id="DAf2_TcuUSZJi7Yc_9Si-12" style="shape=partialRectangle;html=1;whiteSpace=wrap;connectable=0;strokeColor=inherit;overflow=hidden;fillColor=none;top=0;left=0;bottom=0;right=0;pointerEvents=1;fontSize=12;" parent="DAf2_TcuUSZJi7Yc_9Si-8" vertex="1">
          <mxGeometry x="250" width="100" height="20" as="geometry">
            <mxRectangle width="100" height="20" as="alternateBounds" />
          </mxGeometry>
        </mxCell>
        <mxCell id="DAf2_TcuUSZJi7Yc_9Si-13" style="shape=partialRectangle;html=1;whiteSpace=wrap;connectable=0;strokeColor=inherit;overflow=hidden;fillColor=none;top=0;left=0;bottom=0;right=0;pointerEvents=1;fontSize=12;" parent="DAf2_TcuUSZJi7Yc_9Si-8" vertex="1">
          <mxGeometry x="350" width="90" height="20" as="geometry">
            <mxRectangle width="90" height="20" as="alternateBounds" />
          </mxGeometry>
        </mxCell>
        <mxCell id="DAf2_TcuUSZJi7Yc_9Si-14" value="" style="shape=tableRow;horizontal=0;startSize=0;swimlaneHead=0;swimlaneBody=0;strokeColor=inherit;top=0;left=0;bottom=0;right=0;collapsible=0;dropTarget=0;fillColor=none;points=[[0,0.5],[1,0.5]];portConstraint=eastwest;fontSize=16;" parent="DAf2_TcuUSZJi7Yc_9Si-1" vertex="1">
          <mxGeometry y="70" width="440" height="20" as="geometry" />
        </mxCell>
        <mxCell id="DAf2_TcuUSZJi7Yc_9Si-15" value="" style="shape=partialRectangle;html=1;whiteSpace=wrap;connectable=0;strokeColor=inherit;overflow=hidden;fillColor=none;top=0;left=0;bottom=0;right=0;pointerEvents=1;fontSize=12;" parent="DAf2_TcuUSZJi7Yc_9Si-14" vertex="1">
          <mxGeometry width="60" height="20" as="geometry">
            <mxRectangle width="60" height="20" as="alternateBounds" />
          </mxGeometry>
        </mxCell>
        <mxCell id="DAf2_TcuUSZJi7Yc_9Si-16" value="" style="shape=partialRectangle;html=1;whiteSpace=wrap;connectable=0;strokeColor=inherit;overflow=hidden;fillColor=none;top=0;left=0;bottom=0;right=0;pointerEvents=1;fontSize=12;" parent="DAf2_TcuUSZJi7Yc_9Si-14" vertex="1">
          <mxGeometry x="60" width="100" height="20" as="geometry">
            <mxRectangle width="100" height="20" as="alternateBounds" />
          </mxGeometry>
        </mxCell>
        <mxCell id="DAf2_TcuUSZJi7Yc_9Si-17" value="" style="shape=partialRectangle;html=1;whiteSpace=wrap;connectable=0;strokeColor=inherit;overflow=hidden;fillColor=none;top=0;left=0;bottom=0;right=0;pointerEvents=1;fontSize=12;" parent="DAf2_TcuUSZJi7Yc_9Si-14" vertex="1">
          <mxGeometry x="160" width="90" height="20" as="geometry">
            <mxRectangle width="90" height="20" as="alternateBounds" />
          </mxGeometry>
        </mxCell>
        <mxCell id="DAf2_TcuUSZJi7Yc_9Si-18" style="shape=partialRectangle;html=1;whiteSpace=wrap;connectable=0;strokeColor=inherit;overflow=hidden;fillColor=none;top=0;left=0;bottom=0;right=0;pointerEvents=1;fontSize=12;" parent="DAf2_TcuUSZJi7Yc_9Si-14" vertex="1">
          <mxGeometry x="250" width="100" height="20" as="geometry">
            <mxRectangle width="100" height="20" as="alternateBounds" />
          </mxGeometry>
        </mxCell>
        <mxCell id="DAf2_TcuUSZJi7Yc_9Si-19" style="shape=partialRectangle;html=1;whiteSpace=wrap;connectable=0;strokeColor=inherit;overflow=hidden;fillColor=none;top=0;left=0;bottom=0;right=0;pointerEvents=1;fontSize=12;" parent="DAf2_TcuUSZJi7Yc_9Si-14" vertex="1">
          <mxGeometry x="350" width="90" height="20" as="geometry">
            <mxRectangle width="90" height="20" as="alternateBounds" />
          </mxGeometry>
        </mxCell>
      </root>
    </mxGraphModel>
  </diagram>
</mxfile>
